<svg width="40" height="44" fill="none" xmlns="http://www.w3.org/2000/svg"><path fill-rule="evenodd" clip-rule="evenodd" d="M16.077.157c-1.132.296-2.374 1.128-2.642 1.77-.087.208-.116.804-.116 2.38v2.1l-6.103.002c-5.766.002-6.122.01-6.454.161-.193.088-.443.29-.556.448L0 7.307v4.469c0 4.4.003 4.473.18 4.71.381.516.664.628 1.589.628h.843v24.068H1.77c-.735 0-.881.026-1.127.193-.474.322-.642.62-.642 1.135 0 .495.152.782.59 1.108l.236.177h38.348l.236-.177c.438-.326.59-.613.59-1.108 0-.515-.168-.813-.642-1.135-.246-.167-.392-.193-1.127-.193h-.843V17.13l.893-.03c.964-.031 1.163-.111 1.542-.619.173-.232.177-.325.177-4.705v-4.47l-.206-.288a1.634 1.634 0 0 0-.556-.448c-.332-.15-.688-.159-6.454-.16l-6.103-.003v-2.1c0-1.576-.03-2.172-.116-2.38-.064-.153-.323-.464-.575-.69C24.548-.06 22.233-.379 20.493.481L20 .725l-.492-.243c-1.002-.494-2.312-.619-3.43-.325Zm2.188 2.697L18.63 3v5.078H15.972l.023-2.526.022-2.526.257-.123a2.474 2.474 0 0 1 1.991-.05Zm5.395.02.323.151.023 2.526.022 2.527H21.37V2.996l.364-.13.493-.177c.23-.084 1.102.028 1.433.184Zm-10.327 7.168c.034 1.043.139 1.255.78 1.577.527.264.956.198 1.456-.222.2-.168.57-.4.822-.517.391-.18.549-.206 1.07-.172.669.044 1.024.19 1.55.638.65.555 1.328.555 1.979 0 .606-.517.863-.612 1.665-.611.808 0 1.123.118 1.782.67.494.412.927.476 1.45.214.641-.322.746-.534.78-1.577l.03-.894H37.388v5.311H2.612V9.148H13.303l.03.894ZM8.009 29.15v12.037l-1.35-.024-1.349-.023-.021-12.013-.022-12.013H8.01V29.15Zm21.327-.002v12.034H26.681v-4.96c0-5.352-.019-5.627-.463-6.806-.338-.894-.787-1.569-1.548-2.323-1.324-1.315-2.805-1.925-4.67-1.925-1.864 0-3.332.605-4.673 1.925-.817.803-1.285 1.553-1.682 2.698l-.283.813-.026 5.29-.025 5.288H10.664V17.114h18.672v12.034Zm5.375-.021L34.69 41.14l-1.35.023-1.349.024V17.114h2.741l-.02 12.013Zm-17.623-9.282c-.165.034-.404.13-.531.215-.262.172-.583.77-.583 1.089 0 .354.362.958.686 1.145.285.165.444.173 3.34.173s3.055-.008 3.34-.173c.324-.187.686-.791.686-1.145 0-.363-.335-.933-.67-1.141-.31-.193-.358-.196-3.142-.21-1.554-.009-2.961.013-3.126.047Zm3.946 8.114c1.531.454 2.623 1.641 2.899 3.154.06.325.093 2.225.093 5.289v4.78h-8.052l.002-4.818c.001-5.257.024-5.562.486-6.426.3-.561 1.071-1.35 1.572-1.607.979-.504 2.09-.642 3-.372Z" fill="#988155"/></svg>