<svg width="43" height="43" fill="none" xmlns="http://www.w3.org/2000/svg"><path fill-rule="evenodd" clip-rule="evenodd" d="m21.549.053-1.045.121c-3.12.361-6.81 1.972-9.575 4.18C8.53 6.27 6.334 8.982 5.03 11.638c-1.177 2.398-1.748 4.519-1.862 6.922-.045.93-.098 1.216-.43 2.322-.59 1.962-1.683 5.244-2.229 6.697-.611 1.628-.649 2.087-.236 2.91.296.591.662.927 1.393 1.277.573.275 1.762.584 2.246.585h.316l.002 3.005c.001 3.343.045 3.742.521 4.709.347.705 1.103 1.474 1.821 1.853 1.181.623 5.532 1.186 8.244 1.067.69-.03 5.529-.081 10.753-.113l9.499-.058.3-.29c.165-.16.338-.425.384-.589.05-.18.083-2.312.083-5.405v-5.107l.25-.493c.137-.271.56-1.017.938-1.657 2.528-4.275 3.628-6.678 4.291-9.376 1.015-4.126.444-7.957-1.648-11.073-.252-.376-.459-.696-.459-.711 0-.015.18-.054.399-.087C41.514 7.74 43 6.014 43 4.083 43 1.449 40.65-.45 38.092.117c-1.631.362-2.82 1.644-3.094 3.333-.046.286-.1.536-.118.555-.02.019-.448-.234-.952-.563C31.819 2.067 28.863.84 26.564.386 24.9.056 22.748-.086 21.55.053Zm3.877 2.67c1.75.296 3.177.768 4.973 1.642 1.25.609 3.226 1.832 3.92 2.425l.294.253-.26.28c-.142.154-1.028 1.122-1.967 2.15-.94 1.029-1.738 1.87-1.774 1.87-.036 0-.27-.092-.519-.205a5.034 5.034 0 0 0-1.015-.302c-1.065-.183-2.402.187-3.167.876-.185.167-.393.303-.462.303s-1.107-.473-2.308-1.052L20.96 9.911l-.056-.543c-.104-1.004-.455-1.773-1.137-2.485-1.574-1.646-4.102-1.666-5.722-.046-1.235 1.234-1.54 2.985-.798 4.572.308.657 1.042 1.438 1.65 1.754l.457.239-.003 2.269-.005 2.268-.509.241c-.726.343-1.435 1.065-1.798 1.83a4.007 4.007 0 0 0 3.917 5.763c2.1-.147 3.709-1.887 3.709-4.01 0-1.587-.883-2.975-2.326-3.656l-.455-.215v-4.284l.192-.073c.594-.225 1.052-.499 1.462-.872l.46-.42 2.21 1.064 2.208 1.064.021.566c.04 1.05.385 1.881 1.098 2.64.791.844 1.738 1.245 2.937 1.245 1.614 0 2.929-.844 3.64-2.337.273-.574.31-.733.34-1.454.022-.554-.007-.944-.092-1.233l-.124-.422 1.604-1.752 2.094-2.288c.576-.63.522-.644 1.264.352 2.228 2.988 2.67 6.592 1.324 10.789-.653 2.035-1.555 3.904-3.438 7.12a73.28 73.28 0 0 0-1.267 2.226c-.514 1.016-.509.957-.509 5.947v4.564h-9.979l.255-.273c1.238-1.328 1.97-3.247 1.97-5.167 0-.633-.284-1.125-.758-1.314-.445-.178-.633-.172-1.055.031-.471.228-.716.67-.716 1.297 0 1.117-.442 2.431-1.071 3.183-1.804 2.158-6.165 2.914-11.951 2.072-2.071-.302-2.158-.328-2.679-.825-.545-.52-.566-.688-.568-4.502-.002-3.781.003-3.746-.633-4.361-.37-.359-.831-.51-1.94-.64-.754-.087-1.514-.29-1.6-.428-.023-.039.113-.48.304-.98.546-1.431 1.12-3.143 1.969-5.866l.784-2.52.05-1.177c.081-1.882.381-3.233 1.12-5.035 1.685-4.12 5.089-7.716 9.146-9.665a16.343 16.343 0 0 1 5.299-1.558c.871-.105 3.254-.039 4.172.117Zm14.092-.114c.571.215.953.803.953 1.467 0 1.105-1.19 1.81-2.194 1.299-1.082-.55-1.068-2.14.023-2.678.393-.194.849-.227 1.218-.088ZM17.486 8.286c.387.195.56.365.752.74.488.954-.273 2.152-1.366 2.148-.928-.004-1.655-.884-1.483-1.796.172-.915 1.293-1.498 2.097-1.092Zm11.372 5.077c.668.185 1.078.745 1.078 1.473 0 1.253-1.41 1.932-2.418 1.164-.93-.707-.678-2.205.437-2.598.411-.145.504-.149.903-.039ZM17.182 20.34c.29.11.675.463.835.767.065.125.118.42.118.656 0 .873-.645 1.512-1.526 1.512-1.214 0-1.893-1.445-1.15-2.447.355-.478 1.151-.704 1.723-.488Z" fill="#988155"/></svg>