<svg width="42" height="47" fill="none" xmlns="http://www.w3.org/2000/svg"><path fill-rule="evenodd" clip-rule="evenodd" d="M19.674.133c-.642.173-1.407.57-2.093 1.086-1.644 1.236-3.32 4.067-4.33 7.32l-.243.78-1.194-.253c-1.75-.37-2.926-.476-4.673-.42-1.779.057-2.669.243-3.792.79-2.035.992-2.936 2.507-2.836 4.77.105 2.383 1.522 5.23 4.03 8.093.444.506.474.567.335.681-.312.257-1.689 1.853-2.306 2.674-2.05 2.729-2.917 5.319-2.447 7.314.471 1.997 2.227 3.399 5.013 4.002.797.172 1.216.203 2.842.205 1.911.002 2.923-.102 4.486-.46.32-.074.612-.101.65-.061.038.04.159.38.27.754.485 1.649 1.525 3.97 2.346 5.235 2.023 3.118 4.663 4.454 7.05 3.568 2.405-.894 4.407-3.57 5.838-7.804l.417-1.236.997.206c1.848.382 3.228.511 4.912.461 1.17-.035 1.727-.093 2.276-.237 2.14-.564 3.645-1.878 4.167-3.637.229-.773.195-2.152-.08-3.242-.437-1.726-1.798-4.122-3.484-6.133l-.812-.968.271-.258c.15-.142.608-.646 1.019-1.12 2.49-2.877 3.688-5.306 3.697-7.492.004-.956-.118-1.522-.487-2.263-1.396-2.8-5.84-3.896-11.417-2.818-.623.12-1.158.19-1.19.153-.032-.037-.171-.435-.308-.884-.75-2.454-2.024-4.937-3.323-6.485-1.612-1.919-3.77-2.813-5.6-2.32Zm2.129 2.9c1.446.662 2.991 3.146 4.206 6.762l.259.77-1.652.558c-.909.307-2.028.71-2.488.897l-.836.34-.935-.429a45.676 45.676 0 0 0-3.704-1.494c-.475-.166-.9-.333-.943-.372-.125-.109.646-2.257 1.272-3.543.844-1.734 1.553-2.711 2.38-3.28.825-.568 1.526-.628 2.44-.209ZM8.57 11.346c1.116.096 3.534.518 3.667.64.046.041-.005.547-.118 1.177-.227 1.266-.547 3.628-.55 4.058-.002.325-.03.352-1.455 1.356a49.595 49.595 0 0 0-1.991 1.515l-1.129.906-.188-.228-.743-.899c-1.224-1.48-2.395-3.55-2.716-4.803-.226-.882-.161-1.873.153-2.314.523-.736 1.577-1.245 2.892-1.397.957-.111 1.014-.111 2.178-.011Zm28.061.865c1.851.426 2.634 1.184 2.634 2.552 0 .813-.178 1.408-.747 2.502-.517.994-1.373 2.172-2.557 3.519l-.807.918-.343-.298-1.372-1.191a48.146 48.146 0 0 0-2.033-1.656l-1.002-.76-.162-1.297a53.623 53.623 0 0 0-.41-2.629l-.249-1.333.777-.138a40.024 40.024 0 0 1 2.593-.365c.819-.081 3.016.024 3.678.176Zm-20.176 1.051a31.88 31.88 0 0 1 1.366.532c.082.045-.302.293-1.135.732a61.44 61.44 0 0 0-1.702.926c-.243.143-.46.243-.48.222-.04-.04.069-.804.299-2.081.103-.575.18-.795.277-.795.074 0 .693.209 1.375.464Zm10.707 1.132c.11.596.192 1.13.181 1.188-.015.079-2.57-1.353-2.77-1.553-.051-.051 2.18-.772 2.296-.741.05.013.181.511.293 1.106Zm-4.98 1.462a67.383 67.383 0 0 1 4.52 2.687l1.105.724.076.875c.041.48.076 2.273.076 3.982 0 2.64-.02 3.127-.137 3.242-.283.282-3.028 1.823-4.97 2.79l-2.018 1.004-1.296-.706a50.51 50.51 0 0 1-4.123-2.473l-1.193-.785-.055-.729a56.104 56.104 0 0 1-.105-5.614l.068-1.709.376-.237c1.158-.733 2.61-1.537 4.501-2.491 1.17-.592 2.147-1.075 2.17-1.075.024 0 .476.232 1.006.515Zm-2.442 3.197c-.73.236-1.067.434-1.604.941-.864.817-1.34 1.794-1.45 2.97-.11 1.178.296 2.304 1.163 3.231 1.389 1.485 3.655 1.835 5.37.83.57-.334 1.372-1.239 1.683-1.9.477-1.01.576-1.914.328-2.967-.35-1.482-1.618-2.73-3.192-3.14-.688-.18-1.68-.164-2.298.035Zm-8.413 5.904c-.034.044-1.075-.81-1.834-1.506l-.575-.527 1.166-.926 1.165-.927.053 1.925c.029 1.06.04 1.941.025 1.96Zm20.457-2.59c1.52 1.309 1.502 1.056.149 2.125l-1.16.916-.02-.289c-.052-.755-.063-3.603-.014-3.603.031 0 .501.383 1.045.851Zm-10.069-.568c1.081.524 1.22 2.025.257 2.76-1.249.953-3.033-.417-2.469-1.895.357-.933 1.305-1.304 2.212-.865ZM7.633 25.431c.761.705 2.337 2.009 3.356 2.777l.648.489.062.61c.078.765.453 3.127.63 3.968.073.35.123.645.11.657-.084.084-2.337.406-3.483.497-3.136.249-5.39-.384-6.002-1.688-.241-.513-.262-1.432-.05-2.15.276-.928 1.109-2.381 2.052-3.58.37-.471 1.913-2.226 1.957-2.226.013 0 .338.29.72.646Zm28.019.785c1.43 1.697 2.688 3.857 3.024 5.188.168.668.19 1.577.048 1.953-.496 1.305-2.508 2.006-5.118 1.784-1.21-.103-3.692-.52-3.822-.643-.048-.045-.02-.388.066-.831.194-.998.5-3.136.575-4.02l.06-.706.591-.42c1.087-.773 3.053-2.268 3.466-2.637.225-.2.433-.366.463-.368.03-.002.32.313.647.7ZM16.2 31.678c.623.37 1.168.703 1.21.741.044.038-.441.238-1.077.445-.635.207-1.178.354-1.205.327-.05-.05-.468-2.087-.472-2.302-.003-.135-.09-.18 1.544.789Zm11.26-.207c-.054.344-.163.986-.242 1.429l-.145.803-.254-.05c-.14-.029-.816-.265-1.504-.526-.868-.33-1.21-.499-1.12-.553.45-.268 3.313-1.775 3.335-1.754.014.015-.017.308-.07.651Zm-5.559 3.179c1.278.566 3.389 1.403 4 1.585.218.065.413.163.434.219.07.184-.693 2.252-1.284 3.477-1.245 2.58-2.448 3.787-3.768 3.782-.946-.005-1.814-.571-2.722-1.776-.928-1.231-1.596-2.584-2.367-4.797l-.427-1.222 1.555-.521a45.842 45.842 0 0 0 2.417-.882c.475-.199.896-.364.936-.368.04-.005.592.222 1.226.503Z" fill="#988155"/></svg>