<svg width="42" height="37" fill="none" xmlns="http://www.w3.org/2000/svg"><path fill-rule="evenodd" clip-rule="evenodd" d="M15.613.096c-.48.153-.855.402-1.24.823-.588.641-.663.871-.959 2.943a49.84 49.84 0 0 1-.249 1.626l-.043.185H8.175c-4.31 0-5.003.017-5.391.133C1.338 6.238.31 7.368.08 8.777c-.108.663-.106 24.087.002 24.75.23 1.413 1.329 2.596 2.764 2.972.71.186 35.598.186 36.308 0 1.435-.376 2.535-1.559 2.764-2.972.108-.663.11-24.087.002-24.75-.23-1.409-1.258-2.54-2.704-2.97-.388-.117-1.082-.134-5.392-.134h-4.946l-.043-.185a49.84 49.84 0 0 1-.25-1.626c-.239-1.68-.312-1.991-.572-2.444-.256-.445-.865-1-1.338-1.22-.38-.176-.446-.178-5.552-.194-4.09-.013-5.24.006-5.51.092Zm10.216 2.47c.071.085.503 2.69.503 3.032 0 .044-2.196.075-5.332.075-3.136 0-5.332-.03-5.332-.075 0-.342.432-2.947.503-3.033.135-.164 9.523-.164 9.658 0Zm12.922 5.698c.151.063.38.255.51.427l.237.312.024 3.47c.015 2.144-.01 3.693-.063 4.05-.172 1.156-.932 2.276-1.924 2.84-.904.513-.806.505-6.46.505h-5.153v-1.093c0-1.227-.085-1.484-.594-1.796-.257-.157-.42-.164-4.328-.164-3.907 0-4.07.006-4.328.164-.509.312-.593.569-.594 1.796v1.093h-5.153c-5.654 0-5.556.008-6.46-.505-.992-.564-1.752-1.684-1.924-2.84-.054-.357-.078-1.906-.063-4.05l.024-3.47.236-.312c.13-.171.352-.362.492-.423.388-.17 35.118-.174 35.522-.004ZM23.46 21.086l-.002 1.795-1.229.644L21 24.17l-1.23-.645-1.229-.644v-1.795l-.002-1.795H23.46v1.795Zm-19.746.684c.28.132.806.323 1.167.423.64.178.79.183 5.927.214l5.27.032v.757c0 .607.033.81.162 1.023.2.33.36.43 2.592 1.618 1.51.803 1.87.964 2.168.964.298 0 .658-.16 2.168-.964C25.4 24.65 25.56 24.55 25.76 24.22c.128-.213.16-.416.16-1.023v-.758l5.271-.03c5.138-.032 5.287-.037 5.927-.215.757-.21 1.517-.553 2.05-.922l.373-.257-.022 6.147c-.022 6.063-.024 6.15-.191 6.375a2.35 2.35 0 0 1-.396.398l-.226.17H3.293l-.226-.17a2.351 2.351 0 0 1-.396-.398c-.167-.224-.17-.312-.191-6.375l-.022-6.147.372.257c.205.142.603.366.884.499Z" fill="#988155"/></svg>