<svg width="42" height="46" fill="none" xmlns="http://www.w3.org/2000/svg"><path fill-rule="evenodd" clip-rule="evenodd" d="M.694.189a1.627 1.627 0 0 0-.508.517L0 1.037V44.148l.187.333c.103.183.338.417.522.52l.334.189 18.344-.023 18.344-.024.595-.231c1.7-.661 2.893-1.93 3.476-3.696.147-.446.163-.963.187-6.311.025-5.436.017-5.845-.13-6.128a1.655 1.655 0 0 0-.405-.485c-.24-.176-.384-.185-3.84-.227l-3.59-.044-.044-13.608C33.936.906 33.935.803 33.757.565a1.743 1.743 0 0 0-.484-.403C32.979.004 32.373-.002 16.99 0L1.015.002.694.19Zm30.659 21.455.023 18.998.209.618c.115.34.284.767.377.949l.168.33H2.648V2.646H31.329l.024 18.998ZM10.503 6.038C7.567 6.659 5.56 9.117 5.56 12.09c0 1.317.344 2.44 1.071 3.502l.253.369v4.441c0 4.959-.014 4.838.618 5.264.254.171.395.202.794.174.462-.033.558-.087 1.926-1.09.792-.58 1.455-1.054 1.472-1.054.018 0 .66.462 1.428 1.027.768.565 1.536 1.064 1.706 1.11a1.324 1.324 0 0 0 1.522-.687c.14-.276.154-.69.154-4.744v-4.441l.253-.369c.693-1.011.986-1.92 1.045-3.237.053-1.187-.075-1.868-.534-2.853a6.208 6.208 0 0 0-3.985-3.367c-.741-.2-2.077-.246-2.78-.097Zm1.931 2.615c1.036.239 2.008 1.029 2.465 2.002.21.45.238.613.238 1.435 0 .822-.027.984-.238 1.434a3.686 3.686 0 0 1-2.685 2.036c-1.48.253-3.055-.608-3.724-2.036-.21-.45-.238-.612-.238-1.434 0-.82.027-.985.237-1.432.71-1.516 2.382-2.365 3.945-2.005Zm-1.799 9.5c.708.152 1.823.107 2.604-.104.267-.073.515-.132.552-.133.036 0 .066.912.066 2.028v2.029l-.807-.59c-.728-.533-.855-.594-1.302-.626-.493-.035-.498-.033-1.355.588l-.86.624v-4.073l.242.062c.133.034.52.122.86.195ZM6.575 30.44c-.706.175-1.055.663-.995 1.388.034.416.087.533.365.81l.324.325h10.674l.322-.322c.595-.595.488-1.598-.218-2.037l-.322-.2-4.942-.015c-2.719-.008-5.062.015-5.208.051Zm32.77 5.105-.025 4.832-.23.49c-.302.645-.672 1.053-1.227 1.355-1.158.63-2.61.24-3.34-.899-.526-.819-.543-1.002-.543-6.04v-4.57h5.39l-.025 4.832Zm-32.858.44c-1.073.269-1.258 1.814-.288 2.407.284.174.432.176 10.306.154l10.017-.022.28-.2c.355-.253.602-.866.521-1.294-.072-.388-.438-.832-.816-.99-.238-.1-1.99-.118-10.066-.11-5.377.006-9.857.03-9.954.055Z" fill="#988155"/></svg>