<svg width="48" height="40" fill="none" xmlns="http://www.w3.org/2000/svg"><path fill-rule="evenodd" clip-rule="evenodd" d="M20.509.19c-.606.32-.728.7-.728 2.276v1.351l-.26.108c-.144.06-.443.229-.666.376l-.405.269-1.139-.66c-1.352-.78-1.766-.87-2.349-.51-.312.195-.588.614-1.897 2.884-.843 1.461-1.558 2.793-1.59 2.96-.069.37.088.878.365 1.175.114.122.681.489 1.262.815l1.054.592v1.653l-1.054.593c-.58.325-1.148.692-1.262.814-.277.298-.434.805-.364 1.176.031.166.746 1.498 1.588 2.96 1.31 2.27 1.586 2.689 1.898 2.883.583.361.997.271 2.349-.51l1.14-.66.404.269c.223.147.522.317.666.376l.26.108v1.352c0 1.594.12 1.96.748 2.28.349.178.548.189 3.471.189s3.122-.01 3.471-.189c.627-.32.748-.687.748-2.273v-1.344l.398-.202c.22-.11.525-.283.68-.384l.281-.184 1.125.66c1.317.773 1.702.864 2.277.54.409-.229.52-.401 2.464-3.79.938-1.634 1.072-1.921 1.072-2.296 0-.71-.255-.996-1.541-1.735l-1.131-.65v-1.621l1.029-.589c.566-.324 1.133-.693 1.26-.821.298-.297.464-.8.391-1.187-.03-.166-.702-1.418-1.49-2.783-1.779-3.078-1.626-2.849-2.061-3.094-.567-.318-.958-.224-2.27.547l-1.125.662-.281-.186a8.435 8.435 0 0 0-.68-.386l-.398-.201V2.458c0-1.586-.121-1.953-.748-2.273-.35-.178-.543-.188-3.49-.184-2.923.004-3.144.016-3.472.189Zm4.913 3.831c.039 1.517.071 1.57 1.358 2.21.518.258 1.182.65 1.476.874.984.745 1.231.742 2.599-.032.5-.283.928-.514.952-.514.108 0 1.396 2.365 1.322 2.427-.045.039-.493.312-.996.607-1.092.642-1.247.861-1.196 1.7.046.751.045 1.923-.001 2.676-.055.879.123 1.125 1.309 1.817.518.302.943.57.943.597 0 .08-1.334 2.364-1.38 2.364-.025 0-.454-.232-.953-.514-1.368-.775-1.615-.778-2.599-.032-.294.223-.958.616-1.476.874-1.287.64-1.32.693-1.358 2.21l-.03 1.212h-2.783l-.031-1.213c-.039-1.515-.071-1.568-1.355-2.21-.517-.257-1.202-.667-1.523-.91-.6-.454-1.05-.61-1.434-.495-.12.035-.623.292-1.116.57-.493.28-.92.508-.95.508-.028 0-.36-.534-.735-1.186-.602-1.043-.665-1.198-.531-1.289.083-.057.514-.312.956-.566 1.02-.588 1.227-.884 1.175-1.69a26.293 26.293 0 0 1 0-2.727c.052-.806-.154-1.102-1.175-1.69-.443-.254-.873-.509-.956-.566-.134-.091-.07-.245.53-1.289.377-.652.704-1.185.729-1.185.024 0 .452.228.95.507.497.278 1.002.535 1.123.571.385.114.833-.041 1.434-.495.32-.244 1.006-.653 1.523-.911 1.284-.641 1.316-.694 1.355-2.21l.03-1.212h2.783l.031 1.212Zm-2.406 4.546c-.79.198-1.381.535-1.973 1.128-1.665 1.666-1.665 4.25 0 5.915s4.258 1.666 5.914.003c1.665-1.672 1.665-4.248 0-5.92-1.057-1.062-2.523-1.48-3.941-1.126Zm1.643 2.868c.416.212.747.752.747 1.218 0 .716-.693 1.406-1.413 1.406-.436 0-1.015-.365-1.221-.769-.347-.679-.13-1.42.534-1.82.448-.273.866-.283 1.353-.035ZM3.634 28.315a1.361 1.361 0 0 0-.54.554c-.173.34-.188.55-.188 2.624v2.253h-.894c-.711 0-.97.04-1.264.19-.416.211-.748.752-.748 1.217 0 .46.332 1.005.738 1.212.347.178.636.185 8.178.22 7.528.034 7.851.043 8.709.233 1.584.35 2.45.724 3.681 1.589 1.02.716 1.588.907 2.694.907 1.11 0 1.675-.191 2.709-.92 1.399-.986 2.878-1.518 4.82-1.734.563-.063 3.607-.101 8.127-.101 7.058 0 7.235-.004 7.596-.189.416-.212.748-.752.748-1.217 0-.465-.332-1.006-.748-1.218-.294-.15-.553-.189-1.264-.189h-.894v-2.253c0-2.074-.015-2.284-.189-2.624a1.292 1.292 0 0 0-.559-.559c-.361-.184-.538-.188-7.877-.188-6.456 0-7.608.02-8.22.147-1.42.293-2.412.829-3.522 1.902l-.727.702-.727-.702c-1.11-1.073-2.103-1.61-3.522-1.902-.613-.127-1.755-.147-8.24-.143-7.308.004-7.537.01-7.877.189Zm15.604 2.725a4.269 4.269 0 0 1 3.25 3.25c.112.524.145 1.519.05 1.519-.03 0-.178-.087-.326-.193-.494-.35-1.997-1.012-2.853-1.254-1.899-.537-2.002-.544-8.039-.589l-5.601-.04v-2.799h6.51c4.5 0 6.665.033 7.009.106Zm23.043 1.293v1.4l-5.601.04c-6.037.045-6.14.052-8.04.59-.855.241-2.358.902-2.852 1.253-.148.106-.295.193-.326.193-.095 0-.062-.995.05-1.519.176-.82.544-1.485 1.16-2.095.602-.596 1.19-.933 1.969-1.128.351-.088 2.118-.12 7.054-.125l6.586-.008v1.4Z" fill="#988155"/></svg>