<svg width="48" height="40" fill="none" xmlns="http://www.w3.org/2000/svg"><path fill-rule="evenodd" clip-rule="evenodd" d="M13.642 2.889C4.225 5.589 3.592 5.784 3.31 6.065c-.531.53-.53 1.39.003 1.922.282.282.674.409 5.573 1.803l5.27 1.5.001 3.657c.002 3.607.005 3.66.212 4.03.198.356.412.479 3.991 2.298 2.938 1.493 3.91 2.032 4.36 2.416.691.593 1.127.753 1.632.601.193-.058.612-.329.93-.6.448-.384 1.432-.929 4.36-2.417 3.576-1.819 3.79-1.942 3.989-2.297.207-.37.21-.423.212-4.031l.002-3.657 1.336-.366a83.566 83.566 0 0 0 1.428-.4c.062-.021.086 1.81.07 5.407-.025 5.306-.021 5.448.165 5.812.213.419.752.75 1.218.75.466 0 1.006-.331 1.218-.747.183-.36.189-.543.19-6.21v-5.84l2.45-.695c2.207-.627 2.48-.727 2.76-1.007a1.355 1.355 0 0 0 .007-1.932c-.288-.286-.86-.461-10.425-3.189C28.695 1.286 24.035-.007 23.906 0c-.129.007-4.748 1.307-10.264 2.889Zm17.645 2.05c3.932 1.121 7.15 2.06 7.15 2.086 0 .026-3.249.973-7.219 2.105L24 11.188 16.787 9.13c-3.968-1.132-7.185-2.087-7.149-2.123.082-.08 14.062-4.082 14.314-4.097.102-.006 3.403.907 7.335 2.029Zm-10.782 8.176c1.816.518 3.398.941 3.517.941.118 0 1.743-.437 3.612-.972l3.397-.971v2.636l-.001 2.635-2.93 1.47c-1.61.81-3.192 1.642-3.514 1.85l-.586.38-.586-.381c-.322-.21-1.904-1.042-3.515-1.85l-2.93-1.469V14.74c0-2.076.025-2.637.117-2.605.064.022 1.603.464 3.419.981ZM3.634 28.312a1.361 1.361 0 0 0-.54.554c-.173.34-.188.55-.188 2.624v2.253h-.894c-.711 0-.97.04-1.264.19-.416.211-.748.752-.748 1.217 0 .46.332 1.005.738 1.212.347.178.636.185 8.178.22 7.528.034 7.851.043 8.709.233 1.584.35 2.45.724 3.681 1.589 1.02.716 1.588.907 2.694.907 1.11 0 1.675-.191 2.709-.92 1.399-.986 2.878-1.518 4.82-1.734.563-.063 3.607-.101 8.127-.101 7.058 0 7.235-.004 7.596-.189.416-.212.748-.752.748-1.217 0-.465-.332-1.006-.748-1.218-.294-.15-.553-.189-1.264-.189h-.894V31.49c0-2.074-.015-2.284-.189-2.624a1.292 1.292 0 0 0-.559-.559c-.361-.184-.538-.188-7.877-.188-6.456 0-7.608.02-8.22.147-1.42.293-2.412.829-3.522 1.902L24 30.87l-.727-.702c-1.11-1.073-2.103-1.61-3.522-1.902-.613-.127-1.755-.147-8.24-.143-7.308.004-7.537.01-7.877.189Zm15.604 2.725a4.269 4.269 0 0 1 3.25 3.25c.112.524.145 1.519.05 1.519-.03 0-.178-.087-.326-.193-.494-.35-1.997-1.012-2.853-1.254-1.899-.537-2.002-.544-8.039-.589l-5.601-.04V30.93h6.51c4.5 0 6.665.033 7.009.106ZM42.28 32.33v1.4l-5.601.04c-6.037.045-6.14.052-8.04.59-.855.241-2.358.902-2.852 1.253-.148.106-.295.193-.326.193-.095 0-.062-.995.05-1.519.176-.82.544-1.485 1.16-2.095.602-.596 1.19-.933 1.969-1.128.351-.088 2.118-.12 7.054-.125l6.586-.008v1.4Z" fill="#988155"/></svg>