<svg width="38" height="44" fill="none" xmlns="http://www.w3.org/2000/svg"><path fill-rule="evenodd" clip-rule="evenodd" d="M17.453.075C12.05.704 7.485 4.41 5.793 9.538c-.653 1.98-.863 3.956-.627 5.9.055.452.103.95.106 1.109l.006.288-1.098.2c-1.465.267-3.374.754-3.638.927-.118.077-.288.285-.378.462-.16.314-.164.605-.164 12.098C0 41.827.006 42.31.157 42.593c.182.343.703.672 1.068.674.14 0 .52-.075.844-.169 2.771-.796 6.688-1.212 9.647-1.023 2.43.154 3.788.36 6.044.918l1.25.31 1.072-.273c2.182-.555 3.84-.81 6.207-.957 2.978-.184 6.875.23 9.642 1.025.325.094.697.17.827.17.396 0 .885-.307 1.072-.674.168-.33.17-.474.17-12.09 0-11.617-.002-11.762-.17-12.091a1.15 1.15 0 0 0-.486-.494c-.39-.197-2.063-.616-3.524-.883l-1.098-.201.007-.288c.003-.158.056-.706.116-1.218.127-1.075.075-2.66-.124-3.784C31.636 5.425 26.646.742 20.502.075c-.922-.1-2.188-.1-3.05 0Zm1.995 2.562c.708.296 1.676 1.9 2.297 3.807.165.506.288.932.274.946-.063.063-2.144.202-3.019.202-.904 0-2.957-.14-3.023-.207-.017-.016.124-.491.313-1.056.427-1.279 1.084-2.571 1.596-3.142.57-.634 1-.786 1.562-.55Zm-5.12 1.673c-.2.49-.472 1.267-.605 1.728-.134.46-.25.849-.259.862-.028.044-1.674-.506-2.148-.718l-.465-.208.561-.525c.309-.29.832-.707 1.163-.93.59-.396 2.038-1.176 2.089-1.125.014.014-.137.426-.337.916Zm10.444-.21c.705.424 1.63 1.126 2.033 1.541l.332.343-.459.203c-.471.208-2.116.756-2.14.713a43.16 43.16 0 0 1-.29-.954 19.713 19.713 0 0 0-.61-1.711c-.182-.43-.331-.8-.331-.823 0-.072.92.36 1.465.689ZM11.738 9.036c1.001.335 1.221.437 1.208.562-.009.084-.065.59-.126 1.125-.06.546-.109 1.936-.11 3.17 0 1.862.039 2.586.235 4.38.014.124-.204.226-1.207.56-.674.225-1.516.542-1.872.706l-.647.298-.422-.859c-.848-1.723-1.155-3.08-1.15-5.085.005-1.98.394-3.616 1.239-5.212l.343-.648.642.297c.353.163 1.193.48 1.867.706Zm17.645.208c.696 1.536.971 2.865.971 4.691 0 1.99-.3 3.303-1.152 5.043l-.42.859-.648-.298c-.356-.164-1.198-.48-1.872-.704-.673-.224-1.223-.438-1.222-.476.001-.039.058-.584.127-1.211.075-.69.124-1.96.124-3.213 0-1.253-.05-2.522-.124-3.212a65.355 65.355 0 0 1-.127-1.221c-.001-.044.245-.151.547-.239a24.68 24.68 0 0 0 2.66-.982l.506-.233.2.344c.11.19.304.573.43.852Zm-12.32.81c1.28.104 3.91.056 4.89-.088.3-.045.553-.072.564-.062.108.109.237 2.294.237 4.031 0 1.737-.129 3.923-.237 4.032-.01.01-.284-.024-.607-.076-.767-.124-5.053-.124-5.82 0-.323.052-.596.087-.605.077-.069-.068-.213-1.898-.255-3.23-.046-1.44.03-3.191.194-4.465.047-.365.072-.403.235-.362.1.025.732.09 1.403.144ZM6.411 19.909c1.923 4.114 6.06 7.177 10.554 7.814l.767.108v12.541l-.485-.115c-4.033-.956-9.214-1.004-13.588-.125l-1.127.226V19.958l.866-.182c1.301-.274 2.097-.412 2.44-.422.301-.01.316.006.573.554Zm26.606-.438a57.76 57.76 0 0 1 1.583.307l.866.181v20.414l-.486-.116c-4.033-.956-9.214-1.004-13.587-.125l-1.127.226V27.83l.767-.108a14.271 14.271 0 0 0 3.146-.853c3.134-1.226 5.976-3.897 7.408-6.961.303-.65.273-.64 1.43-.438Zm-11.992.896c.534.05.982.102.995.115.07.07-.64 1.995-1.034 2.804-1.3 2.667-2.595 2.714-3.911.142-.39-.76-1.175-2.868-1.098-2.945.018-.018.392-.067.83-.109 1.151-.109 3.095-.112 4.218-.007Zm-7.278 1.537c.154.522.432 1.306.617 1.741.185.436.326.803.312.817-.014.013-.27-.087-.57-.224-.747-.34-2.111-1.262-2.734-1.848l-.516-.485.274-.142c.24-.124 2.183-.809 2.296-.809.023 0 .168.428.321.95Zm11.648-.688c.453.145 1.033.357 1.288.471l.465.207-.54.511c-.64.605-1.842 1.418-2.669 1.806-.325.153-.602.266-.616.252-.015-.014.125-.382.311-.818a19.26 19.26 0 0 0 .617-1.741c.153-.522.288-.95.3-.951.01 0 .39.118.844.263Z" fill="#988155"/></svg>