<svg width="42" height="37" viewBox="0 0 42 37" fill="none" xmlns="http://www.w3.org/2000/svg">
<path fill-rule="evenodd" clip-rule="evenodd" d="M15.6125 0.0963023C15.1338 0.248569 14.7584 0.497561 14.3724 0.918874C13.7847 1.56029 13.7098 1.79047 13.4144 3.86155C13.3013 4.65366 13.1893 5.38545 13.1654 5.48754L13.1219 5.67323H8.17547C3.86557 5.67323 3.17176 5.69032 2.78359 5.80627C1.3382 6.23765 0.309536 7.36822 0.080178 8.77742C-0.0276104 9.43955 -0.0262979 32.8635 0.0815726 33.5269C0.311341 34.9405 1.41105 36.1227 2.84601 36.4987C3.5564 36.6848 38.4436 36.6848 39.154 36.4987C40.589 36.1227 41.6887 34.9405 41.9184 33.5269C42.0263 32.8635 42.0276 9.43955 41.9198 8.77742C41.6905 7.36822 40.6618 6.23765 39.2164 5.80627C38.8282 5.69032 38.1344 5.67323 33.8245 5.67323H28.8781L28.8346 5.48754C28.8107 5.38545 28.6987 4.65366 28.5856 3.86155C28.3461 2.18224 28.2731 1.87093 28.0127 1.41818C27.7568 0.973261 27.1485 0.418663 26.6746 0.198309C26.2956 0.0221083 26.2291 0.0197974 21.123 0.00362163C17.0333 -0.00925297 15.8837 0.010059 15.6125 0.0963023ZM25.829 2.56525C25.9 2.65133 26.332 5.25621 26.332 5.59838C26.332 5.64237 24.1361 5.67323 21 5.67323C17.8639 5.67323 15.668 5.64237 15.668 5.59838C15.668 5.25621 16.1 2.65133 16.171 2.56525C16.3061 2.40143 25.6939 2.40143 25.829 2.56525ZM38.7515 8.26416C38.902 8.32746 39.1315 8.51943 39.2615 8.69092L39.4979 9.00264L39.5219 12.4734C39.5367 14.6174 39.5128 16.1658 39.4593 16.5239C39.2868 17.6789 38.5273 18.7992 37.5348 19.3628C36.6309 19.876 36.7294 19.8683 31.0749 19.8683H25.9218L25.9215 18.7748C25.9212 17.5477 25.8365 17.2912 25.3279 16.9794C25.0706 16.8215 24.9074 16.8153 21 16.8153C17.0926 16.8153 16.9294 16.8215 16.6721 16.9794C16.1635 17.2912 16.0788 17.5477 16.0785 18.7748L16.0782 19.8683H10.9251C5.2706 19.8683 5.36911 19.876 4.46522 19.3628C3.47273 18.7992 2.7132 17.6789 2.54069 16.5239C2.48721 16.1658 2.46334 14.6174 2.4781 12.4734L2.50206 9.00264L2.73822 8.69117C2.86816 8.51992 3.08964 8.32936 3.23041 8.26771C3.61808 8.09795 38.3479 8.09448 38.7515 8.26416ZM23.4598 21.0856L23.4585 22.8806L22.2293 23.5252L21 24.1698L19.7707 23.5252L18.5415 22.8806L18.5402 21.0856L18.5391 19.2906H21H23.4609L23.4598 21.0856ZM3.71365 21.7697C3.99477 21.902 4.52001 22.0925 4.88095 22.1929C5.52063 22.3709 5.6705 22.3764 10.8077 22.4071L16.0782 22.4385L16.0785 23.196C16.0787 23.8027 16.1108 24.0063 16.2395 24.2188C16.4398 24.5493 16.5999 24.6492 18.8322 25.8372C20.3416 26.6405 20.7022 26.8008 21 26.8008C21.2978 26.8008 21.6584 26.6405 23.1678 25.8372C25.4001 24.6492 25.5602 24.5493 25.7605 24.2188C25.8892 24.0063 25.9213 23.8027 25.9215 23.196L25.9218 22.4385L31.1923 22.4071C36.3295 22.3764 36.4794 22.3709 37.1191 22.1929C37.876 21.9823 38.6364 21.6405 39.1697 21.2714L39.5421 21.0136L39.52 27.1611C39.4983 33.2238 39.4956 33.3117 39.3288 33.5364C39.2358 33.6618 39.0578 33.8409 38.9332 33.9345L38.7066 34.1046H21H3.29341L3.06684 33.9345C2.94223 33.8409 2.76423 33.6618 2.6712 33.5364C2.50435 33.3117 2.50173 33.2238 2.47999 27.1611L2.45792 21.0136L2.83034 21.2714C3.03509 21.4132 3.43261 21.6374 3.71365 21.7697Z" fill="#988155"/>
</svg>
