<svg width="42" height="46" viewBox="0 0 42 46" fill="none" xmlns="http://www.w3.org/2000/svg">
<path fill-rule="evenodd" clip-rule="evenodd" d="M0.693635 0.188678C0.51685 0.291147 0.288434 0.523977 0.18614 0.706146L0 1.03721V22.5928V44.1483L0.186935 44.4809C0.289758 44.6639 0.524529 44.8982 0.708639 45.0016L1.04341 45.1898L19.3873 45.1665L37.7311 45.1432L38.3262 44.9117C40.0256 44.2505 41.2188 42.9817 41.802 41.2156C41.9492 40.7699 41.9645 40.2531 41.9892 34.905C42.0141 29.4691 42.0055 29.0597 41.8594 28.7772C41.7733 28.6108 41.5908 28.3923 41.4538 28.2918C41.2141 28.1159 41.0703 28.1073 37.6145 28.0649L34.0242 28.0208L33.9801 14.4131C33.9363 0.905878 33.9346 0.803673 33.7566 0.565283C33.6579 0.433158 33.4401 0.251519 33.2725 0.161582C32.9791 0.00430246 32.3741 -0.00169922 16.9915 0.000242499L1.01499 0.00227248L0.693635 0.188678ZM31.3528 21.644L31.3764 40.6419L31.585 41.2598C31.6996 41.5996 31.8693 42.0266 31.9619 42.2086L32.1303 42.5395H17.389H2.6478V22.5928V2.64601H16.9885H31.3291L31.3528 21.644ZM10.5029 6.03784C7.5675 6.65902 5.56038 9.11671 5.56038 12.0898C5.56038 13.4074 5.90398 14.5308 6.63141 15.592L6.88428 15.9609L6.88446 20.4022C6.88454 25.361 6.87042 25.2402 7.5021 25.6659C7.75629 25.8371 7.89706 25.8679 8.29644 25.8399C8.7576 25.8074 8.8538 25.753 10.2222 24.7508C11.0143 24.1707 11.6767 23.696 11.6942 23.696C11.7116 23.696 12.3542 24.1581 13.1223 24.723C13.8904 25.2879 14.6578 25.7871 14.8277 25.8324C15.4316 25.9937 16.063 25.7091 16.35 25.146C16.4908 24.8698 16.5044 24.456 16.5044 20.4022L16.5046 15.9609L16.7573 15.592C17.4501 14.5805 17.7434 13.6715 17.8019 12.3546C17.8545 11.1676 17.7272 10.4871 17.2681 9.50214C16.4966 7.847 15.0228 6.60165 13.2831 6.13475C12.5417 5.93573 11.2056 5.88913 10.5029 6.03784ZM12.4345 8.65299C13.4702 8.89173 14.4423 9.68166 14.8986 10.6553C15.1098 11.1057 15.1366 11.2678 15.1366 12.0898C15.1366 12.9119 15.1098 13.0739 14.8986 13.5243C14.4031 14.5815 13.3757 15.3606 12.2143 15.5595C10.7347 15.8129 9.15936 14.952 8.49026 13.5243C8.27914 13.0739 8.25231 12.9119 8.25231 12.0898C8.25231 11.2691 8.2794 11.1054 8.48885 10.6584C9.19934 9.14248 10.8714 8.29262 12.4345 8.65299ZM10.6353 18.1527C11.343 18.3049 12.4583 18.2604 13.239 18.0487C13.506 17.9763 13.7543 17.9166 13.7906 17.916C13.827 17.9154 13.8568 18.828 13.8568 19.9437V21.9726L13.0502 21.3827C12.3221 20.8503 12.1954 20.7894 11.7484 20.7573C11.2549 20.7218 11.2501 20.724 10.3926 21.3453L9.53208 21.9689V19.9324V17.8958L9.77479 17.9579C9.90824 17.992 10.2955 18.0796 10.6353 18.1527ZM6.57537 30.4401C5.86947 30.6154 5.51969 31.1029 5.57971 31.8276C5.61422 32.2437 5.667 32.3609 5.94475 32.6387L6.26937 32.9633H11.6062H16.943L17.2655 32.6408C17.8602 32.046 17.7525 31.0426 17.0469 30.6038L16.7253 30.4038L11.7827 30.389C9.0643 30.3809 6.721 30.4039 6.57537 30.4401ZM39.3448 35.5449L39.3198 40.3772L39.0903 40.8666C38.7876 41.5117 38.4177 41.9205 37.8633 42.2222C36.7048 42.8528 35.253 42.4622 34.5222 41.3234C33.9966 40.5043 33.9801 40.3208 33.9801 35.2837V30.7127H36.6749H39.3697L39.3448 35.5449ZM6.48711 35.9847C5.4136 36.2535 5.22905 37.7986 6.19947 38.3925C6.48296 38.5659 6.63141 38.5681 16.5046 38.546L26.5221 38.5237L26.8021 38.324C27.1568 38.0709 27.4038 37.4579 27.3235 37.0297C27.2507 36.6418 26.8846 36.1981 26.507 36.0404C26.269 35.9409 24.517 35.9218 16.4412 35.9303C11.0636 35.9359 6.5842 35.9604 6.48711 35.9847Z" fill="#988155"/>
</svg>
