<svg width="43" height="43" viewBox="0 0 43 43" fill="none" xmlns="http://www.w3.org/2000/svg">
<path fill-rule="evenodd" clip-rule="evenodd" d="M21.549 0.053163C21.41 0.0693812 20.9397 0.123834 20.5041 0.174253C17.3848 0.535422 13.6947 2.14648 10.9289 4.35476C8.53027 6.26984 6.33444 8.98088 5.03044 11.637C3.85295 14.0354 3.28225 16.156 3.16762 18.5589C3.1232 19.4895 3.07027 19.7752 2.73776 20.8806C2.14733 22.8429 1.05539 26.1246 0.509467 27.5777C-0.102454 29.2061 -0.139793 29.6648 0.272622 30.4876C0.569311 31.0795 0.934778 31.4145 1.66571 31.7649C2.23903 32.0397 3.42764 32.3494 3.91204 32.3503L4.22811 32.3509L4.22955 35.355C4.23123 38.6984 4.2754 39.0973 4.75111 40.0639C5.09804 40.769 5.85367 41.5379 6.57204 41.9171C7.75324 42.5405 12.1045 43.1035 14.8164 42.9838C15.5061 42.9534 20.3448 42.9025 25.5691 42.8707L35.0678 42.8129L35.3683 42.5225C35.5335 42.3628 35.7061 42.0981 35.7517 41.9342C35.8019 41.7539 35.8349 39.6217 35.8351 36.5291L35.8356 31.4218L36.0851 30.929C36.2223 30.658 36.6445 29.9123 37.0233 29.2718C39.5512 24.9972 40.6509 22.5944 41.3144 19.8958C42.3287 15.7704 41.7585 11.9393 39.6663 8.82298C39.4138 8.44677 39.2071 8.12678 39.2071 8.11191C39.2071 8.09695 39.3865 8.05796 39.6056 8.02519C41.5136 7.7399 43 6.01371 43 4.083C43 1.44935 40.6492 -0.450272 38.0919 0.116943C36.461 0.478701 35.2712 1.76061 34.9982 3.45024C34.9521 3.73628 34.8987 3.98594 34.8796 4.00493C34.8605 4.02392 34.4325 3.77073 33.9285 3.44234C31.8179 2.06724 28.8616 0.84029 26.5641 0.385677C24.9 0.0565243 22.7482 -0.0861619 21.549 0.053163ZM25.4262 2.72269C27.1763 3.01932 28.6032 3.49066 30.3991 4.36534C31.6481 4.97365 33.6247 6.19673 34.3185 6.7905L34.6135 7.04302L34.3536 7.32327C34.2107 7.47738 33.3251 8.44484 32.3857 9.47322C31.4463 10.5016 30.648 11.3429 30.6118 11.3429C30.5756 11.3429 30.3422 11.2506 30.0933 11.1377C29.8443 11.0249 29.3875 10.8892 29.0782 10.8361C28.0129 10.6535 26.6757 11.0232 25.9113 11.7117C25.726 11.8786 25.518 12.0152 25.4491 12.0152C25.3802 12.0152 24.3417 11.5418 23.1414 10.9633L20.959 9.91128L20.903 9.36843C20.7991 8.36375 20.4477 7.59528 19.7659 6.88269C18.1915 5.23709 15.664 5.21692 14.0436 6.83706C12.8094 8.07098 12.5041 9.82238 13.2465 11.4092C13.5539 12.066 14.2879 12.8466 14.8961 13.1634L15.3535 13.4017L15.3495 15.6706L15.3455 17.9394L14.8364 18.1801C14.11 18.5234 13.4012 19.2448 13.0378 20.0105C11.694 22.842 13.8354 25.9918 16.9554 25.773C19.0552 25.6257 20.664 23.8861 20.664 21.7629C20.664 20.1757 19.7809 18.7879 18.338 18.1072L17.8826 17.8925V15.7501V13.6076L18.0749 13.5347C18.6687 13.3096 19.1274 13.0362 19.5369 12.663L19.9974 12.2434L22.2061 13.3072L24.4148 14.371L24.4362 14.9367C24.4759 15.987 24.8214 16.8181 25.5339 17.5776C26.325 18.4208 27.2716 18.8218 28.4707 18.8218C30.0847 18.8218 31.3997 17.9777 32.1105 16.4854C32.3842 15.911 32.4213 15.7522 32.4503 15.0307C32.4726 14.4775 32.4436 14.0868 32.3587 13.7984L32.2346 13.3761L33.8385 11.6243C34.7205 10.6607 35.6631 9.63103 35.933 9.33608C36.5087 8.70694 36.4545 8.69181 37.1974 9.68834C39.4247 12.6762 39.8669 16.2796 38.5211 20.4766C37.8685 22.5119 36.9659 24.3808 35.083 27.5964C34.5168 28.5632 33.9468 29.5653 33.8162 29.8232C33.302 30.8392 33.307 30.7796 33.307 35.7695V40.3339H28.3176H23.3282L23.5828 40.0608C24.8212 38.733 25.5527 36.8144 25.5527 34.8941C25.5527 34.2607 25.2689 33.7686 24.7947 33.5795C24.3501 33.4021 24.1623 33.4078 23.7405 33.6114C23.2687 33.8391 23.024 34.2817 23.024 34.9078C23.024 36.0246 22.5817 37.3392 21.9528 38.0914C20.1489 40.2491 15.7876 41.005 10.0018 40.1628C7.93066 39.8614 7.84418 39.8348 7.32312 39.3381C6.77821 38.8187 6.75697 38.6504 6.75486 34.8356C6.75275 31.0546 6.75789 31.09 6.12246 30.4747C5.75235 30.1164 5.29055 29.9643 4.18218 29.8358C3.42848 29.7484 2.66813 29.5447 2.58292 29.4072C2.55873 29.3682 2.69502 28.9274 2.88576 28.4277C3.43228 26.9959 4.00686 25.2839 4.85453 22.5612L5.63941 20.0402L5.68981 18.8638C5.77039 16.982 6.07045 15.631 6.80821 13.8287C8.49437 9.70944 11.8978 6.11312 15.955 4.1635C17.7044 3.32284 19.3609 2.83613 21.254 2.60639C22.1252 2.50068 24.5083 2.56715 25.4262 2.72269ZM39.5177 2.60899C40.0893 2.82428 40.4714 3.41183 40.4714 4.07569C40.4714 5.18071 39.2807 5.88565 38.2767 5.37499C37.1947 4.82466 37.2086 3.23562 38.3002 2.69689C38.6932 2.50295 39.1489 2.47 39.5177 2.60899ZM17.4864 8.28594C17.8735 8.48131 18.0463 8.65147 18.2379 9.02575C18.7263 9.97977 17.9648 11.1775 16.8725 11.1735C15.9444 11.1701 15.2171 10.2898 15.3888 9.37759C15.5608 8.46324 16.6819 7.87981 17.4864 8.28594ZM28.8583 13.3634C29.5262 13.5484 29.9356 14.1078 29.9356 14.8359C29.9356 16.0894 28.5269 16.7679 27.5176 16.0004C26.5878 15.2934 26.8399 13.7949 27.9548 13.4019C28.3661 13.2569 28.4594 13.253 28.8583 13.3634ZM17.1817 20.3397C17.4724 20.4492 17.8569 20.8028 18.0165 21.1074C18.0819 21.2323 18.1354 21.5272 18.1354 21.7629C18.1354 22.6359 17.4901 23.2755 16.6094 23.2755C15.3951 23.2755 14.7162 21.8303 15.4595 20.8278C15.8139 20.35 16.61 20.1244 17.1817 20.3397Z" fill="#988155"/>
</svg>
