<svg width="48" height="40" viewBox="0 0 48 40" fill="none" xmlns="http://www.w3.org/2000/svg">
<path fill-rule="evenodd" clip-rule="evenodd" d="M13.6416 2.88903C4.22484 5.58931 3.59287 5.78356 3.31022 6.0649C2.77866 6.59412 2.77988 7.45503 3.31294 7.98706C3.5955 8.26906 3.98709 8.39572 8.886 9.79034L14.1551 11.2903L14.1573 14.9466C14.1593 18.5539 14.1622 18.6079 14.3687 18.9778C14.5669 19.3328 14.7807 19.4558 18.36 21.2747C21.2981 22.7679 22.2706 23.3069 22.7194 23.6913C23.4112 24.284 23.8467 24.4443 24.3516 24.2922C24.545 24.2338 24.9637 23.9635 25.282 23.6913C25.7303 23.3082 26.7136 22.7631 29.6412 21.2747C33.2178 19.4564 33.4328 19.3326 33.631 18.9778C33.8379 18.6077 33.8407 18.5549 33.8431 14.9466L33.8454 11.2903L35.1805 10.9243C35.9149 10.7231 36.5578 10.5432 36.6094 10.5249C36.6713 10.5027 36.6947 12.3341 36.6782 15.9307C36.6539 21.237 36.6579 21.3792 36.8436 21.743C37.0572 22.1619 37.5958 22.4935 38.0625 22.4935C38.5277 22.4935 39.0678 22.1619 39.28 21.7459C39.4632 21.3868 39.4688 21.2035 39.4692 15.5363L39.4696 9.69659L41.9199 9.00059C44.1275 8.3735 44.4009 8.27375 44.6806 7.99409C45.2217 7.45306 45.2244 6.59834 44.6867 6.06237C44.3992 5.77578 43.8267 5.60065 34.2616 2.87319C28.695 1.2859 24.0352 -0.00700271 23.9062 2.85435e-05C23.7773 0.00696604 19.1583 1.30709 13.6416 2.88903ZM31.287 4.93878C35.2191 6.06031 38.4362 6.99893 38.4362 7.02472C38.4362 7.0505 35.1881 7.99784 31.2181 9.12997L24 11.1882L16.7865 9.12997C12.8191 7.99784 9.60225 7.04272 9.63806 7.00737C9.72028 6.92619 23.7 2.92475 23.9517 2.9104C24.0541 2.9045 27.3549 3.81725 31.287 4.93878ZM20.5047 13.1151C22.3207 13.6326 23.9032 14.056 24.0215 14.056C24.1397 14.056 25.7653 13.6187 27.6338 13.0844L31.0312 12.1128L31.0306 14.7485L31.03 17.3841L28.1009 18.8546C26.4899 19.6632 24.9083 20.4956 24.5859 20.7041L24 21.0831L23.4141 20.7027C23.0918 20.4933 21.5099 19.6611 19.8986 18.8532L16.9692 17.3841L16.9689 14.7386C16.9688 12.663 16.994 12.1018 17.0859 12.1336C17.1504 12.1559 18.6889 12.5976 20.5047 13.1151ZM3.63384 28.3118C3.41963 28.4249 3.21 28.6406 3.09478 28.8664C2.92134 29.2063 2.90625 29.4169 2.90625 31.4897V33.7435H2.01187C1.30059 33.7435 1.04184 33.7821 0.747563 33.9322C0.331594 34.1444 0 34.6845 0 35.1497C0 35.6098 0.331781 36.1551 0.737813 36.3623C1.08534 36.5396 1.37372 36.5472 8.91619 36.5818C16.4436 36.6164 16.7675 36.6251 17.625 36.8147C19.2089 37.1651 20.0747 37.5387 21.3065 38.4037C22.3267 39.12 22.8942 39.3113 24 39.3113C25.1108 39.3113 25.675 39.1197 26.7089 38.391C28.1075 37.4054 29.5868 36.873 31.5284 36.6565C32.0924 36.5937 35.1363 36.556 39.6562 36.556C46.7136 36.556 46.8911 36.5516 47.2524 36.3672C47.6684 36.155 48 35.6149 48 35.1497C48 34.6845 47.6684 34.1444 47.2524 33.9322C46.9582 33.7821 46.6994 33.7435 45.9881 33.7435H45.0938V31.4897C45.0938 29.416 45.0787 29.2064 44.905 28.866C44.7835 28.6278 44.5844 28.4287 44.3462 28.3072C43.9845 28.1227 43.808 28.1185 36.4686 28.1185C30.0135 28.1185 28.861 28.1391 28.2488 28.2656C26.8298 28.5586 25.8373 29.0947 24.7266 30.1677L24 30.8697L23.2734 30.1677C22.1627 29.0947 21.1702 28.5586 19.7512 28.2656C19.1378 28.1388 17.996 28.119 11.5118 28.1226C4.20253 28.1266 3.97425 28.1322 3.63384 28.3118ZM19.2376 31.0373C20.8482 31.382 22.1427 32.6765 22.4874 34.2871C22.5996 34.8112 22.6327 35.806 22.5379 35.806C22.5072 35.806 22.3604 35.7193 22.2116 35.6134C21.7184 35.2622 20.2154 34.6014 19.3594 34.3594C17.4605 33.8225 17.3573 33.815 11.3203 33.7705L5.71875 33.7292V32.3301V30.931H12.2298C16.7291 30.931 18.8943 30.9638 19.2376 31.0373ZM42.2812 32.3301V33.7292L36.6797 33.7705C30.6427 33.815 30.5395 33.8225 28.6406 34.3594C27.7846 34.6014 26.2816 35.2622 25.7884 35.6134C25.6396 35.7193 25.4928 35.806 25.4621 35.806C25.3673 35.806 25.4004 34.8112 25.5126 34.2871C25.6879 33.4679 26.0565 32.8017 26.6717 32.1923C27.2736 31.5959 27.8616 31.2591 28.6406 31.0642C28.992 30.9762 30.7589 30.9449 35.6953 30.9389L42.2812 30.931V32.3301Z" fill="#988155"/>
</svg>
