<svg width="48" height="40" viewBox="0 0 48 40" fill="none" xmlns="http://www.w3.org/2000/svg">
<path fill-rule="evenodd" clip-rule="evenodd" d="M20.5088 0.189793C19.9027 0.509855 19.7812 0.88973 19.7812 2.46576V3.81745L19.5206 3.92545C19.3774 3.98479 19.0778 4.15401 18.8551 4.30148L18.4502 4.56951L17.311 3.91092C15.959 3.12914 15.5451 3.03923 14.9622 3.40082C14.6496 3.59489 14.3736 4.01423 13.0645 6.28429C12.222 7.74529 11.5071 9.07701 11.4757 9.2437C11.4062 9.61457 11.5634 10.1217 11.8403 10.4192C11.9539 10.5415 12.5215 10.908 13.1016 11.2338L14.1562 11.8261V12.6527V13.4793L13.1016 14.0716C12.5215 14.3974 11.9539 14.764 11.8403 14.8862C11.5634 15.1838 11.4062 15.6909 11.4757 16.0618C11.5071 16.2284 12.222 17.5602 13.0645 19.0212C14.3736 21.2912 14.6496 21.7106 14.9622 21.9046C15.5451 22.2662 15.959 22.1763 17.311 21.3945L18.4502 20.7359L18.8551 21.004C19.0778 21.1514 19.3774 21.3207 19.5206 21.38L19.7812 21.488V22.8397C19.7812 24.4337 19.9013 24.8001 20.5288 25.1203C20.8776 25.2981 21.0769 25.309 24 25.309C26.9231 25.309 27.1224 25.2981 27.4712 25.1203C28.0979 24.8005 28.2188 24.433 28.2188 22.847V21.5026L28.6172 21.3014C28.8363 21.1906 29.1422 21.0176 29.2969 20.9167L29.5781 20.7333L30.7031 21.3934C32.0195 22.1656 32.405 22.2571 32.9804 21.9338C33.3886 21.7043 33.5009 21.5316 35.444 18.1438C36.3816 16.5091 36.5156 16.2218 36.5156 15.8469C36.5156 15.1374 36.2614 14.8512 34.975 14.1124L33.8438 13.4627V12.6519V11.8409L34.8727 11.252C35.4385 10.9281 36.006 10.5586 36.1337 10.4309C36.431 10.1337 36.5967 9.63014 36.5243 9.24426C36.4931 9.07795 35.8225 7.82554 35.0342 6.46129C33.2554 3.38311 33.4079 3.61204 32.9727 3.36736C32.4056 3.0487 32.0147 3.14282 30.7031 3.91401L29.5781 4.57551L29.2969 4.39045C29.1422 4.28864 28.8363 4.11482 28.6172 4.00411L28.2188 3.80282V2.45845C28.2188 0.872481 28.0979 0.50498 27.4712 0.185199C27.1218 0.00698043 26.9277 -0.00333223 23.9803 0.000605266C21.0584 0.00454277 20.837 0.0165429 20.5088 0.189793ZM25.4223 4.02126C25.4609 5.53785 25.493 5.59017 26.7803 6.23085C27.2982 6.48867 27.9624 6.88176 28.2562 7.10451C29.24 7.85029 29.4872 7.84729 30.855 7.07282C31.3541 6.79017 31.7827 6.55898 31.8073 6.55898C31.9151 6.55898 33.2027 8.92373 33.129 8.98635C33.0838 9.0247 32.6357 9.2976 32.1331 9.59292C31.041 10.2345 30.8862 10.4545 30.9371 11.2934C30.9827 12.0443 30.982 13.2159 30.9356 13.969C30.8815 14.8476 31.0589 15.0937 32.2446 15.7856C32.7632 16.0881 33.1875 16.3569 33.1875 16.3827C33.1875 16.4636 31.8545 18.7465 31.8073 18.7465C31.7827 18.7465 31.3541 18.5153 30.855 18.2326C29.4872 17.4582 29.24 17.4552 28.2562 18.2009C27.9624 18.4237 27.2982 18.8168 26.7803 19.0746C25.493 19.7153 25.4609 19.7676 25.4223 21.2842L25.3913 22.4965H24H22.6087L22.5777 21.2842C22.5392 19.7686 22.5067 19.7157 21.2227 19.0746C20.7063 18.8168 20.0209 18.407 19.6995 18.1639C19.0993 17.7098 18.6504 17.5547 18.266 17.6685C18.1455 17.7043 17.6434 17.9613 17.1502 18.2399C16.657 18.5186 16.2297 18.7465 16.2008 18.7465C16.1717 18.7465 15.8405 18.2131 15.4647 17.5612C14.8632 16.5176 14.7998 16.3635 14.9336 16.2721C15.0173 16.215 15.4475 15.9602 15.8896 15.7059C16.9107 15.1184 17.1169 14.8219 17.0649 14.0163C17.0448 13.7046 17.0284 13.091 17.0284 12.6527C17.0284 12.2144 17.0448 11.6009 17.0649 11.2891C17.1169 10.4835 16.9107 10.1871 15.8896 9.59957C15.4475 9.34523 15.0173 9.09042 14.9336 9.03332C14.7998 8.94192 14.8632 8.78789 15.4647 7.74426C15.8405 7.09232 16.168 6.55898 16.1927 6.55898C16.2173 6.55898 16.6446 6.78698 17.1422 7.0656C17.6397 7.34423 18.1455 7.60129 18.266 7.63701C18.6505 7.75073 19.0993 7.59567 19.6995 7.14154C20.0209 6.89845 20.7063 6.48867 21.2227 6.23085C22.5067 5.58979 22.5392 5.53682 22.5777 4.02126L22.6087 2.80898H24H25.3913L25.4223 4.02126ZM23.0156 8.5672C22.2251 8.76501 21.6349 9.10242 21.0427 9.69501C19.3782 11.3609 19.3782 13.9454 21.0427 15.61C22.7078 17.2751 25.3013 17.2762 26.9573 15.6126C28.6218 13.9405 28.6218 11.365 26.9573 9.69285C25.9 8.63076 24.4344 8.21226 23.0156 8.5672ZM24.6587 11.4352C25.0747 11.6474 25.4062 12.1875 25.4062 12.6527C25.4062 13.3693 24.7132 14.059 23.9931 14.059C23.557 14.059 22.9778 13.6944 22.7716 13.29C22.4254 12.6114 22.6427 11.8705 23.3056 11.4691C23.7545 11.1974 24.172 11.1869 24.6587 11.4352ZM3.63384 28.3148C3.41963 28.4279 3.21 28.6436 3.09478 28.8694C2.92134 29.2094 2.90625 29.4199 2.90625 31.4927V33.7465H2.01187C1.30059 33.7465 1.04184 33.7851 0.747563 33.9352C0.331594 34.1474 0 34.6875 0 35.1527C0 35.6129 0.331781 36.1581 0.737813 36.3653C1.08534 36.5426 1.37372 36.5503 8.91619 36.5849C16.4436 36.6194 16.7675 36.6281 17.625 36.8177C19.2089 37.1681 20.0747 37.5418 21.3065 38.4067C22.3267 39.123 22.8942 39.3143 24 39.3143C25.1108 39.3143 25.675 39.1227 26.7089 38.394C28.1075 37.4084 29.5868 36.876 31.5284 36.6595C32.0924 36.5967 35.1363 36.559 39.6562 36.559C46.7136 36.559 46.8911 36.5546 47.2524 36.3703C47.6684 36.158 48 35.6179 48 35.1527C48 34.6875 47.6684 34.1474 47.2524 33.9352C46.9582 33.7851 46.6994 33.7465 45.9881 33.7465H45.0938V31.4927C45.0938 29.419 45.0787 29.2094 44.905 28.869C44.7835 28.6308 44.5844 28.4317 44.3462 28.3102C43.9845 28.1257 43.808 28.1215 36.4686 28.1215C30.0135 28.1215 28.861 28.1421 28.2488 28.2686C26.8298 28.5616 25.8373 29.0977 24.7266 30.1708L24 30.8728L23.2734 30.1708C22.1627 29.0977 21.1702 28.5616 19.7512 28.2686C19.1378 28.1418 17.996 28.122 11.5118 28.1256C4.20253 28.1296 3.97425 28.1352 3.63384 28.3148ZM19.2376 31.0403C20.8482 31.385 22.1427 32.6795 22.4874 34.2901C22.5996 34.8142 22.6327 35.809 22.5379 35.809C22.5072 35.809 22.3604 35.7224 22.2116 35.6164C21.7184 35.2652 20.2154 34.6044 19.3594 34.3624C17.4605 33.8255 17.3573 33.818 11.3203 33.7735L5.71875 33.7322V32.3331V30.934H12.2298C16.7291 30.934 18.8943 30.9668 19.2376 31.0403ZM42.2812 32.3331V33.7322L36.6797 33.7735C30.6427 33.818 30.5395 33.8255 28.6406 34.3624C27.7846 34.6044 26.2816 35.2652 25.7884 35.6164C25.6396 35.7224 25.4928 35.809 25.4621 35.809C25.3673 35.809 25.4004 34.8142 25.5126 34.2901C25.6879 33.4709 26.0565 32.8048 26.6717 32.1953C27.2736 31.5989 27.8616 31.2621 28.6406 31.0672C28.992 30.9793 30.7589 30.9479 35.6953 30.9419L42.2812 30.934V32.3331Z" fill="#988155"/>
</svg>
