<svg width="42" height="47" viewBox="0 0 42 47" fill="none" xmlns="http://www.w3.org/2000/svg">
<path fill-rule="evenodd" clip-rule="evenodd" d="M19.6743 0.133408C19.0325 0.306223 18.2665 0.703526 17.5805 1.21925C15.9369 2.45474 14.2616 5.28635 13.2503 8.53833L13.0076 9.31858L11.8139 9.06613C10.0646 8.69607 8.88778 8.59027 7.1411 8.64621C5.36219 8.70315 4.47223 8.88859 3.34862 9.43637C1.3137 10.4283 0.413391 11.9426 0.513012 14.2057C0.617809 16.5894 2.03538 19.4359 4.54325 22.299C4.98695 22.8053 5.01665 22.8659 4.87789 22.9801C4.56559 23.2369 3.18906 24.8334 2.57199 25.6543C0.521185 28.3827 -0.345434 30.9729 0.124972 32.9675C0.596014 34.9647 2.35205 36.3667 5.13816 36.9698C5.9353 37.1424 6.35386 37.1725 7.98003 37.1745C9.89098 37.1769 10.9034 37.0729 12.4657 36.7142C12.7851 36.6408 13.0775 36.6138 13.1155 36.654C13.1537 36.6942 13.275 37.0336 13.3853 37.4082C13.8708 39.0567 14.9113 41.3779 15.7317 42.6427C17.7549 45.7615 20.3949 47.0974 22.7825 46.2106C25.1873 45.3173 27.1894 42.641 28.6199 38.4072L29.0374 37.1714L30.0338 37.3772C31.8822 37.7588 33.2619 37.8883 34.9463 37.8382C36.1153 37.8034 36.6731 37.7452 37.2215 37.6006C39.3614 37.0368 40.8667 35.7231 41.3887 33.9635C41.6179 33.191 41.5837 31.812 41.3083 30.7224C40.8718 28.9956 39.5111 26.5999 37.8246 24.5893L37.0127 23.6213L37.2843 23.3633C37.4337 23.2213 37.8919 22.7171 38.3027 22.2426C40.7925 19.3662 41.9912 16.9371 41.9999 14.7506C42.0037 13.7947 41.8819 13.2289 41.5128 12.4884C40.1172 9.68828 35.6735 8.59154 30.0959 9.67048C29.4734 9.7909 28.9378 9.85946 28.9057 9.82268C28.8738 9.78599 28.735 9.38815 28.5975 8.93863C27.8471 6.48543 26.5743 4.00154 25.2745 2.45384C23.6633 0.53516 21.5042 -0.359429 19.6743 0.133408ZM21.8029 3.03312C23.2491 3.69514 24.794 6.17894 26.0092 9.79507L26.2679 10.5648L24.616 11.1229C23.7074 11.4299 22.5879 11.8338 22.1281 12.0204L21.2922 12.3599L20.3572 11.931C19.2239 11.411 17.8135 10.842 16.6526 10.4365C16.1781 10.2707 15.7538 10.1036 15.7098 10.0651C15.5847 9.95608 16.356 7.80838 16.9819 6.52221C17.8262 4.7877 18.535 3.81093 19.3623 3.24172C20.1869 2.67433 20.8884 2.61439 21.8029 3.03312ZM8.5703 11.3458C9.68556 11.4419 12.1045 11.864 12.2373 11.9856C12.2829 12.0274 12.232 12.5334 12.1191 13.1627C11.8919 14.4286 11.5717 16.7909 11.5689 17.2213C11.5669 17.5462 11.5386 17.5726 10.1141 18.5771C9.63961 18.9118 8.74357 19.5933 8.12296 20.0918L6.99444 20.9981L6.80619 20.7702C6.70257 20.6448 6.3682 20.2404 6.06308 19.8714C4.83902 18.391 3.66836 16.321 3.34689 15.0684C3.12059 14.1864 3.18588 13.1946 3.49954 12.7539C4.02317 12.0179 5.07704 11.5089 6.39236 11.3566C7.34897 11.2458 7.40573 11.2455 8.5703 11.3458ZM36.6312 12.2109C38.4821 12.6371 39.2648 13.3954 39.2648 14.7628C39.2648 15.5764 39.0875 16.1706 38.5182 17.2648C38.0009 18.2588 37.145 19.4368 35.9609 20.784L35.1544 21.7015L34.8115 21.4045C34.623 21.2411 34.0051 20.7048 33.4386 20.2126C32.872 19.7204 31.9575 18.9753 31.4063 18.557L30.4043 17.7962L30.2425 16.5004C30.1535 15.7878 29.9688 14.6047 29.832 13.8713L29.5833 12.538L30.3602 12.3997C31.1268 12.2631 32.2453 12.1059 32.9533 12.0352C33.7719 11.9536 35.9692 12.0586 36.6312 12.2109ZM16.4554 13.262C17.1382 13.5171 17.7528 13.7565 17.8212 13.7938C17.9034 13.8387 17.5189 14.0869 16.6861 14.5264C15.9934 14.8919 15.2275 15.3083 14.9843 15.4517C14.741 15.5951 14.5248 15.6953 14.5039 15.6744C14.4631 15.6336 14.5728 14.87 14.8029 13.5927C14.9064 13.0176 14.983 12.7981 15.08 12.7981C15.1536 12.7981 15.7726 13.0069 16.4554 13.262ZM27.1616 14.3944C27.2727 14.9899 27.3544 15.5241 27.3432 15.5816C27.3279 15.6607 24.7729 14.2286 24.5734 14.0291C24.5219 13.9777 26.7532 13.257 26.8689 13.2877C26.9189 13.301 27.0505 13.799 27.1616 14.3944ZM22.1826 15.8557C23.5061 16.5631 25.3813 17.6783 26.7023 18.5434L27.8071 19.2669L27.8828 20.1418C27.9245 20.6229 27.9587 22.4148 27.9587 24.1237C27.9587 26.7647 27.9382 27.2511 27.8224 27.3663C27.539 27.6483 24.7936 29.1889 22.8525 30.1552L20.8339 31.1601L19.5378 30.4536C17.9053 29.5637 16.9214 28.9737 15.4147 27.9813L14.2223 27.1957L14.1674 26.4672C14.0426 24.8104 13.9985 22.4562 14.0622 20.8525L14.1299 19.1445L14.5059 18.9068C15.664 18.1743 17.1166 17.3704 19.0074 16.4155C20.1778 15.8244 21.1542 15.3409 21.1774 15.3409C21.2005 15.3409 21.6529 15.5725 22.1826 15.8557ZM19.7402 19.0534C19.0099 19.2891 18.6726 19.487 18.1361 19.9943C17.2724 20.8112 16.7953 21.7882 16.6861 22.9641C16.5766 24.1423 16.9817 25.2683 17.8487 26.195C19.238 27.6802 21.5039 28.0304 23.2195 27.0249C23.7896 26.6908 24.5909 25.7864 24.9025 25.1255C25.3786 24.1154 25.4784 23.2112 25.2301 22.1579C24.8808 20.6757 23.6124 19.428 22.0384 19.018C21.3501 18.8388 20.3582 18.854 19.7402 19.0534ZM11.3273 24.9567C11.2929 25.001 10.2521 24.1465 9.49332 23.451L8.91793 22.9237L10.0836 21.9976L11.2493 21.0715L11.3019 22.9965C11.3309 24.0553 11.3422 24.9373 11.3273 24.9567ZM31.7837 22.367C33.3037 23.676 33.2859 23.4228 31.9328 24.492L30.7738 25.4078L30.7537 25.1192C30.701 24.3643 30.6896 21.516 30.7393 21.5161C30.7703 21.5161 31.2402 21.899 31.7837 22.367ZM21.7153 21.7995C22.7964 22.3229 22.9359 23.8239 21.9721 24.5591C20.7232 25.5117 18.9389 24.1421 19.5033 22.6642C19.8598 21.7309 20.8079 21.3603 21.7153 21.7995ZM7.63349 25.4306C8.39431 26.136 9.96953 27.44 10.9893 28.2085L11.6375 28.6969L11.6994 29.3065C11.7771 30.0717 12.1517 32.4339 12.3286 33.2752C12.402 33.6243 12.452 33.9201 12.4395 33.9324C12.3554 34.0165 10.1019 34.3376 8.95625 34.4287C5.82024 34.678 3.56675 34.0446 2.95431 32.7415C2.71284 32.2279 2.69168 31.3088 2.90473 30.5912C3.18043 29.6631 4.01281 28.21 4.95626 27.0102C5.32641 26.5395 6.86885 24.7853 6.91262 24.7853C6.92633 24.7853 7.25071 25.0757 7.63349 25.4306ZM35.6519 26.2156C37.0815 27.9129 38.3405 30.073 38.6759 31.4042C38.8442 32.0721 38.8664 32.9815 38.7238 33.3569C38.2277 34.6617 36.2157 35.3631 33.6061 35.141C32.396 35.038 29.9143 34.6203 29.7843 34.4977C29.7364 34.4526 29.7634 34.1097 29.8497 33.667C30.0441 32.6695 30.3501 30.5309 30.4247 29.6477L30.4844 28.9412L31.0762 28.5206C32.1627 27.7483 34.129 26.2527 34.5425 25.884C34.7673 25.6835 34.9754 25.5178 35.0051 25.5157C35.0347 25.5135 35.3258 25.8286 35.6519 26.2156ZM16.2006 31.678C16.8237 32.0476 17.3688 32.3812 17.4118 32.4191C17.4549 32.4571 16.97 32.6573 16.3344 32.8641C15.6987 33.071 15.1564 33.2178 15.1291 33.1906C15.079 33.1405 14.6612 31.1045 14.657 30.8895C14.6543 30.7537 14.5673 30.7092 16.2006 31.678ZM27.4603 31.4712C27.407 31.8146 27.2982 32.4574 27.2185 32.8995L27.0737 33.7031L26.8198 33.6524C26.6801 33.6244 26.0036 33.3879 25.3164 33.1268C24.4482 32.7969 24.1065 32.6284 24.1966 32.5743C24.6452 32.3056 27.5094 30.7991 27.5309 30.8204C27.5454 30.8348 27.5136 31.1276 27.4603 31.4712ZM21.9022 34.6499C23.18 35.2163 25.2908 36.0528 25.9021 36.235C26.1196 36.2998 26.315 36.3983 26.3363 36.4537C26.4068 36.6375 25.6427 38.7055 25.0517 39.9306C23.8065 42.5116 22.6043 43.7183 21.284 43.7125C20.3383 43.7083 19.4696 43.1419 18.562 41.9373C17.6341 40.7059 16.9663 39.3526 16.1945 37.1396L15.7683 35.9177L17.3229 35.3965C18.1779 35.1099 19.2657 34.7131 19.7402 34.5147C20.2147 34.3163 20.6359 34.1506 20.6763 34.1465C20.7166 34.1423 21.2683 34.3689 21.9022 34.6499Z" fill="#988155"/>
</svg>
