<svg width="38" height="44" viewBox="0 0 38 44" fill="none" xmlns="http://www.w3.org/2000/svg">
<path fill-rule="evenodd" clip-rule="evenodd" d="M17.4526 0.0752575C12.0501 0.703777 7.4849 4.40912 5.79314 9.53846C5.1403 11.5179 4.93029 13.4939 5.16631 15.4381C5.22112 15.8896 5.26857 16.3886 5.27187 16.547L5.27778 16.8349L4.18 17.0351C2.71497 17.3023 0.806191 17.7887 0.541542 17.9623C0.424164 18.0393 0.254262 18.2472 0.163991 18.4242C0.003969 18.7383 0 19.0293 0 30.5223C0 41.8274 0.0062489 42.3103 0.15656 42.5931C0.338622 42.9356 0.860404 43.2646 1.2247 43.2667C1.3642 43.2674 1.7442 43.1916 2.06914 43.0983C4.84036 42.3019 8.7568 41.8863 11.7157 42.0745C14.1452 42.2292 15.5043 42.4358 17.7596 42.9932L19.0102 43.3023L20.0818 43.03C22.2636 42.4754 23.9216 42.2199 26.2887 42.0733C29.2668 41.889 33.1645 42.3033 35.9309 43.0983C36.2558 43.1916 36.6278 43.268 36.7576 43.268C37.1543 43.268 37.643 42.9608 37.83 42.5939C37.998 42.2643 38 42.1197 38 30.5032C38 18.8867 37.998 18.7421 37.83 18.4125C37.7231 18.2028 37.5426 18.0195 37.3445 17.9195C36.9542 17.7224 35.2807 17.3028 33.82 17.0357L32.7222 16.8349L32.7287 16.547C32.7324 16.3886 32.7847 15.8406 32.8452 15.3291C32.9723 14.2543 32.9202 12.6692 32.7209 11.5452C31.6358 5.42583 26.6464 0.741987 20.5022 0.0750039C19.5801 -0.0250858 18.3142 -0.0250012 17.4526 0.0752575ZM19.4484 2.63667C20.1563 2.9328 21.1243 4.53753 21.7449 6.44363C21.9097 6.94991 22.0332 7.37555 22.0193 7.3895C21.9563 7.45256 19.8752 7.59238 19 7.59238C18.0958 7.59238 16.0429 7.4518 15.9766 7.38527C15.9603 7.36904 16.1014 6.89387 16.2899 6.32926C16.7171 5.04998 17.3735 3.75786 17.8858 3.18742C18.4555 2.55315 18.8859 2.40141 19.4484 2.63667ZM14.3273 4.31005C14.128 4.79951 13.8558 5.57706 13.7225 6.03786C13.5891 6.49858 13.4729 6.88651 13.4642 6.89995C13.4357 6.94391 11.7896 6.39376 11.3156 6.18183L10.8511 5.97412L11.4122 5.44882C11.7208 5.15988 12.2443 4.74152 12.5754 4.5191C13.1645 4.12348 14.6129 3.3433 14.6639 3.39428C14.678 3.4084 14.5266 3.8205 14.3273 4.31005ZM24.7722 4.10057C25.4771 4.52426 26.4029 5.2259 26.8051 5.64122L27.137 5.98384L26.6784 6.18673C26.2067 6.39536 24.5623 6.94323 24.5378 6.89995C24.5303 6.88651 24.3995 6.45716 24.2471 5.94572C24.0948 5.43428 23.8208 4.66433 23.6384 4.23464C23.456 3.80503 23.3067 3.4346 23.3067 3.41152C23.3067 3.34001 24.2264 3.7724 24.7722 4.10057ZM11.7378 9.03514C12.7394 9.37007 12.9593 9.47236 12.946 9.59722C12.9371 9.68116 12.8806 10.1873 12.8205 10.722C12.7592 11.2678 12.711 12.6579 12.7105 13.892C12.7098 15.7539 12.7487 16.4777 12.9455 18.2714C12.9592 18.3964 12.7406 18.4979 11.7378 18.8322C11.0643 19.0566 10.2221 19.3742 9.86607 19.538L9.2188 19.8356L8.79658 18.9772C7.94892 17.2536 7.64239 15.8977 7.64712 13.892C7.65168 11.912 8.04055 10.276 8.88592 8.67967L9.22876 8.03222L9.87105 8.32894C10.2243 8.49217 11.0643 8.80994 11.7378 9.03514ZM29.3834 9.24259C30.0789 10.779 30.354 12.1084 30.354 13.9343C30.354 15.9249 30.0543 17.2365 29.2016 18.9772L28.7812 19.8356L28.1339 19.538C27.7779 19.3742 26.9357 19.0575 26.2622 18.834C25.5888 18.6105 25.0387 18.3962 25.0399 18.3578C25.0411 18.3193 25.0981 17.7743 25.1666 17.1466C25.2419 16.4562 25.2911 15.1873 25.2911 13.9343C25.2911 12.6813 25.2419 11.4124 25.1666 10.722C25.0981 10.0943 25.0411 9.5448 25.0399 9.50085C25.0387 9.45689 25.2848 9.34961 25.5867 9.26237C26.3068 9.05442 27.6109 8.5729 28.2467 8.28024L28.7533 8.04693L28.9536 8.39115C29.0637 8.58051 29.257 8.96363 29.3834 9.24259ZM17.0621 10.0538C18.3427 10.1566 20.9739 10.1086 21.9524 9.96461C22.2525 9.92048 22.5065 9.89275 22.5167 9.90298C22.6253 10.0116 22.7538 12.1975 22.7538 13.9343C22.7538 15.6714 22.6252 17.857 22.5167 17.9657C22.5064 17.9759 22.2335 17.9417 21.9101 17.8896C21.1426 17.766 16.8574 17.766 16.0899 17.8896C15.7665 17.9417 15.4942 17.9765 15.4847 17.967C15.4165 17.8987 15.272 16.0689 15.2297 14.7374C15.184 13.2971 15.2602 11.5459 15.4242 10.2719C15.4713 9.90662 15.4957 9.86891 15.6594 9.91008C15.7598 9.93527 16.3911 9.99994 17.0621 10.0538ZM6.4117 19.9076C8.33492 24.0218 12.4724 27.085 16.9663 27.7217L17.7333 27.8304V34.101V40.3716L17.2478 40.2564C13.2146 39.2998 8.03396 39.2519 3.6605 40.1308L2.53333 40.3574V30.1579V19.9584L3.39889 19.7758C4.70018 19.5016 5.4964 19.3639 5.83984 19.3537C6.14038 19.3448 6.15549 19.3595 6.4117 19.9076ZM33.0178 19.4701C33.4126 19.539 34.1251 19.677 34.6011 19.7769L35.4667 19.9584V30.165V40.3716L34.9811 40.2564C30.948 39.2998 25.7673 39.2519 21.3938 40.1308L20.2667 40.3574V34.0939V27.8304L21.0337 27.7217C22.0311 27.5804 23.1109 27.2879 24.1802 26.8694C27.3138 25.6429 30.1557 22.9722 31.5883 19.9076C31.8915 19.2589 31.8611 19.2682 33.0178 19.4701ZM21.0264 20.3661C21.5604 20.4161 22.0079 20.4678 22.0209 20.4808C22.0912 20.5511 21.3813 22.4764 20.9871 23.2847C19.6866 25.9517 18.3922 25.9989 17.0758 23.4274C16.6866 22.667 15.9009 20.5591 15.978 20.4819C15.9961 20.4637 16.37 20.4148 16.8088 20.3732C17.9591 20.264 19.9029 20.2607 21.0264 20.3661ZM13.7483 21.9029C13.902 22.4253 14.1795 23.209 14.365 23.6443C14.5505 24.0797 14.6907 24.447 14.6767 24.4606C14.6626 24.4741 14.4061 24.3736 14.1068 24.2373C13.3602 23.8973 11.9957 22.9745 11.3731 22.3887L10.8574 21.9035L11.1314 21.7617C11.3707 21.6378 13.3137 20.9533 13.4267 20.9532C13.4499 20.9531 13.5946 21.3805 13.7483 21.9029ZM25.3957 21.2149C25.849 21.3602 26.429 21.5722 26.6844 21.686L27.1489 21.8929L26.6082 22.404C25.9684 23.0088 24.7666 23.8224 23.9403 24.2102C23.6152 24.3627 23.3377 24.4759 23.3236 24.4617C23.3094 24.4475 23.4495 24.0797 23.635 23.6443C23.8205 23.209 24.098 22.4253 24.2517 21.9029C24.4054 21.3805 24.5401 20.9525 24.5512 20.9519C24.5623 20.9512 24.9423 21.0696 25.3957 21.2149Z" fill="#988155"/>
</svg>
