<svg width="49" height="50" viewBox="0 0 49 50" fill="none" xmlns="http://www.w3.org/2000/svg">
<rect x="1.11608" y="1.71617" width="46.6171" height="46.6171" rx="23.3086" stroke="#132043" stroke-width="1.48215"/>
<path d="M32.3786 20.0454C31.7895 19.3123 30.7019 19.0132 28.6248 19.0132H21.085C18.9604 19.0132 17.8544 19.3315 17.2675 20.1121C16.6953 20.8732 16.6953 21.9946 16.6953 23.5466V26.5047C16.6953 29.5114 17.3742 31.038 21.085 31.038H28.6249C30.4261 31.038 31.4242 30.7741 32.07 30.1271C32.7322 29.4636 33.0147 28.3802 33.0147 26.5047V23.5466C33.0147 21.9098 32.9704 20.7819 32.3786 20.0454ZM27.1724 25.434L23.7486 27.3075C23.6721 27.3494 23.5884 27.3702 23.5048 27.3702C23.4101 27.3702 23.3157 27.3435 23.232 27.2905C23.0745 27.1906 22.9783 27.0118 22.9783 26.819V23.084C22.9783 22.8915 23.0742 22.713 23.2314 22.613C23.3887 22.513 23.5843 22.5062 23.7474 22.5949L27.1712 24.4563C27.3454 24.551 27.4548 24.7393 27.4551 24.9447C27.4553 25.1503 27.3463 25.3389 27.1724 25.434Z" fill="#132043"/>
</svg>
