<svg width="49" height="50" viewBox="0 0 49 50" fill="none" xmlns="http://www.w3.org/2000/svg">
<path d="M27.563 23.7703H27.0688L27.2135 24.2428C27.2993 24.5227 27.3457 24.8191 27.3457 25.126C27.3457 26.8335 25.9136 28.2371 24.1228 28.2371C22.3321 28.2371 20.9002 26.8335 20.9002 25.126C20.9002 24.8188 20.9465 24.5226 21.0323 24.2429L21.1773 23.7703H20.6829H19.6227H19.2572V24.1357V29.012C19.2572 29.4661 19.6272 29.8364 20.0816 29.8364H28.1203C28.5746 29.8364 28.9447 29.4663 28.9447 29.012V24.1357V23.7703H28.5793H28.579H27.563ZM19.8215 19.6194H28.4021C29.0255 19.6194 29.5182 20.0693 29.5182 20.7355V29.3161C29.5182 29.9823 29.0255 30.4322 28.4021 30.4322H19.8215C19.1979 30.4322 18.7053 29.9823 18.7053 29.3161V20.7355C18.7053 20.0693 19.1979 19.6194 19.8215 19.6194ZM26.7491 20.171C26.2612 20.171 25.8641 20.5685 25.8641 21.0562V22.3001C25.8641 22.7877 26.2611 23.1854 26.7491 23.1854H28.0538C28.5416 23.1854 28.9391 22.7879 28.9391 22.3001V21.0562C28.9391 20.5683 28.5415 20.171 28.0538 20.171H26.7491ZM24.1226 22.3888C22.6514 22.3888 21.4388 23.5474 21.4388 25.0007C21.4388 26.4541 22.6514 27.6126 24.1226 27.6126C25.5939 27.6126 26.8068 26.4541 26.8068 25.0007C26.8068 23.5473 25.5941 22.3888 24.1226 22.3888Z" fill="#132043" stroke="#132043" stroke-width="0.730966"/>
<rect x="0.79967" y="1.71617" width="46.617" height="46.617" rx="23.3085" stroke="#132043" stroke-width="1.48215"/>
</svg>
