<svg width="14" height="14" viewBox="0 0 14 14" fill="none" xmlns="http://www.w3.org/2000/svg">
<path d="M6.6862 13.6668C3.0042 13.6668 0.0195312 10.6822 0.0195312 7.00016C0.0195312 3.31816 3.0042 0.333496 6.6862 0.333496C10.3682 0.333496 13.3529 3.31816 13.3529 7.00016C13.3529 10.6822 10.3682 13.6668 6.6862 13.6668ZM6.6862 12.3335C8.10069 12.3335 9.45724 11.7716 10.4574 10.7714C11.4576 9.77121 12.0195 8.41465 12.0195 7.00016C12.0195 5.58567 11.4576 4.22912 10.4574 3.22893C9.45724 2.22873 8.10069 1.66683 6.6862 1.66683C5.27171 1.66683 3.91516 2.22873 2.91496 3.22893C1.91477 4.22912 1.35286 5.58567 1.35286 7.00016C1.35286 8.41465 1.91477 9.77121 2.91496 10.7714C3.91516 11.7716 5.27171 12.3335 6.6862 12.3335ZM7.35286 7.00016H10.0195V8.3335H6.01953V3.66683H7.35286V7.00016Z" fill="#132043"/>
</svg>
