<svg width="17" height="15" viewBox="0 0 17 15" fill="none" xmlns="http://www.w3.org/2000/svg">
<path fill-rule="evenodd" clip-rule="evenodd" d="M15.8837 0.0252809C15.6138 0.109045 1.04546 5.9279 0.951092 5.98963C0.752775 6.11936 0.642227 6.4163 0.705182 6.6501C0.746611 6.80393 0.880251 6.98131 1.00522 7.04834C1.05685 7.07603 1.96367 7.42933 3.02038 7.83347C4.07711 8.23758 4.94694 8.57348 4.95336 8.5799C4.95977 8.58631 5.21066 9.52301 5.51086 10.6615C5.81109 11.7999 6.07292 12.7629 6.0927 12.8014C6.24777 13.1036 6.64059 13.2378 6.93472 13.0892C6.97774 13.0674 7.50332 12.697 8.10269 12.266L9.1924 11.4824L9.47945 11.6798C10.478 12.3662 13.202 14.2048 13.2901 14.2517C13.3581 14.288 13.4653 14.3087 13.589 14.3096C13.7537 14.3107 13.8017 14.2971 13.9176 14.2168C13.9994 14.16 14.0807 14.067 14.1225 13.9821C14.2148 13.7946 16.7104 0.726463 16.6873 0.551019C16.6383 0.17732 16.2379 -0.0846415 15.8837 0.0252809ZM13.0673 2.63548C12.9556 2.74503 11.5406 4.10512 9.92293 5.65789C6.50107 8.94239 6.5112 8.93235 6.48135 9.06821C6.46909 9.1241 6.44866 9.15789 6.43598 9.14328C6.42328 9.12866 6.33767 8.83016 6.24571 8.47989C6.06885 7.80653 5.99539 7.64895 5.81456 7.55546C5.76568 7.53017 5.15052 7.28968 4.44749 7.02099C3.74449 6.7523 3.1486 6.52088 3.12332 6.50673C3.09237 6.4894 3.98896 6.11808 5.87435 5.36746C7.41267 4.75501 9.69217 3.84628 10.9399 3.34802C12.1876 2.84979 13.2224 2.44079 13.2394 2.43919C13.2565 2.43757 13.179 2.5259 13.0673 2.63548ZM15.0325 2.64746C15.0168 2.72919 14.5846 4.99623 14.0721 7.68528C13.5597 10.3743 13.1328 12.5821 13.1234 12.5915C13.1015 12.6135 8.09152 9.21797 8.10097 9.18746C8.11032 9.1572 15.0174 2.5034 15.0422 2.50081C15.0526 2.49974 15.0483 2.56573 15.0325 2.64746ZM7.38439 10.2588C7.75549 10.5083 8.05885 10.7196 8.05854 10.7282C8.05744 10.7573 7.05694 11.4553 7.04016 11.4386C7.031 11.4294 6.92574 11.0511 6.80624 10.5979C6.68674 10.1446 6.58036 9.74564 6.56987 9.71122C6.55313 9.65631 6.56052 9.65822 6.6302 9.72687C6.67388 9.76989 7.01326 10.0093 7.38439 10.2588Z" fill="#132043"/>
</svg>
