<svg width="49" height="50" viewBox="0 0 49 50" fill="none" xmlns="http://www.w3.org/2000/svg">
<rect x="1.64342" y="1.71617" width="46.617" height="46.617" rx="23.3085" stroke="#132043" stroke-width="1.48215"/>
<path d="M21.8015 17.976L21.8015 17.976C21.6955 17.7608 21.4479 17.5151 21.2485 17.4198L21.8015 17.976ZM21.8015 17.976C22.0402 18.4609 21.9536 19.0223 21.5791 19.4137L21.8431 19.6664M21.8015 17.976L21.8431 19.6664M21.8431 19.6664L21.5791 19.4137C21.0935 19.9211 20.2829 19.9218 19.7952 19.4137L21.8431 19.6664ZM26.1536 21.7548L26.1566 22.0184L26.1637 22.6433L26.177 23.8258L26.8332 22.8419L26.956 22.6578C26.956 22.6577 26.956 22.6577 26.956 22.6577C27.3237 22.1065 27.9272 21.7151 28.6518 21.5788L28.5842 21.2196L28.6518 21.5788C28.7625 21.5579 29.0332 21.5469 29.3445 21.5536C29.6524 21.5603 29.9386 21.5829 30.0749 21.6112L30.1493 21.2534L30.0749 21.6112C30.6588 21.7326 31.0631 21.9505 31.358 22.2657L31.358 22.2657C31.8055 22.744 32.0645 23.4368 32.1508 24.6386L32.1508 24.6387C32.1647 24.8328 32.1763 26.1257 32.1764 27.6843L32.1765 30.0222H31.1473H30.1181V27.9436C30.1181 26.4725 30.1154 25.674 30.0815 25.1835C30.0643 24.9345 30.0382 24.749 29.9954 24.5861C29.9518 24.4202 29.8944 24.2919 29.8313 24.161C29.8313 24.161 29.8313 24.161 29.8313 24.161L29.5021 24.3198M26.1536 21.7548L26.2856 25.3307L26.6495 25.3648M26.1536 21.7548H25.1735H24.1974V25.8885V30.0222H25.2266H26.2558M26.1536 21.7548L26.6212 30.3877L26.2557 30.3877L26.2558 30.0222M29.5021 24.3198C29.3194 23.941 29.0751 23.7538 28.6429 23.6616C28.4161 23.6132 28.0113 23.6267 27.7704 23.6907C27.0973 23.8695 26.7395 24.4039 26.6495 25.3648M29.5021 24.3198C29.7407 24.8143 29.7527 24.9877 29.7527 27.9436V30.0222L29.5021 24.3198ZM26.6495 25.3648C26.632 25.5515 26.6214 26.557 26.6213 28.0263L26.6212 30.0222M26.6495 25.3648L26.2856 25.3307M26.6212 30.0222L26.2856 25.3307M26.6212 30.0222H26.2558M26.6212 30.0222L26.2856 25.3307M26.2856 25.3307C26.2661 25.5396 26.2559 26.5701 26.2558 28.0263L26.2558 30.0222M32.5153 24.6124C32.5305 24.8235 32.5418 26.1353 32.5419 27.6842L32.542 30.0222L32.5153 24.6124ZM32.5153 24.6124C32.4264 23.3739 32.155 22.5826 31.6249 22.016L32.5153 24.6124ZM20.4091 17.3148C20.0807 17.3856 19.7211 17.6671 19.572 17.9717C19.3339 18.4583 19.4224 19.0254 19.7952 19.4137L20.4091 17.3148ZM20.4091 17.3148C20.4091 17.3148 20.4091 17.3148 20.4091 17.3148C20.6914 17.254 20.9703 17.2869 21.2485 17.4198L20.4091 17.3148ZM19.645 25.9061C19.645 24.6739 19.647 23.552 19.6502 22.7371C19.6518 22.3296 19.6537 21.9993 19.6558 21.7706C19.6559 21.7677 19.6559 21.7649 19.6559 21.7621C19.6762 21.7619 19.6973 21.7618 19.7191 21.7616C19.9711 21.7596 20.3173 21.7593 20.6967 21.7612L21.717 21.7662L21.7232 25.8956L21.7293 30.0222H20.6874H19.645V25.9061Z" fill="#132043" stroke="#132043" stroke-width="0.730966"/>
</svg>
