<svg width="17" height="17" viewBox="0 0 17 17" fill="none" xmlns="http://www.w3.org/2000/svg">
<path fill-rule="evenodd" clip-rule="evenodd" d="M8.20546 0.0094931C8.15381 0.0167557 7.97772 0.0376671 7.81415 0.0560115C5.18367 0.350805 2.77257 2.01573 1.58356 4.35837C0.454946 6.58211 0.46897 9.27893 1.62104 11.5487L1.80683 11.9148L1.24394 13.9588C0.934373 15.083 0.683969 16.0057 0.687538 16.0092C0.691106 16.0128 1.64101 15.7686 2.79843 15.4665L4.90287 14.9174L5.19272 15.0584C6.0252 15.4634 6.89652 15.7227 7.7985 15.8339C8.25473 15.8902 9.22213 15.8828 9.69242 15.8194C12.6244 15.4243 15.0977 13.5231 16.1521 10.854C16.5351 9.88451 16.6887 9.04493 16.6875 7.92708C16.6867 7.18275 16.6517 6.83583 16.5139 6.20533C16.2295 4.90423 15.5354 3.56706 14.6581 2.63011C14.5325 2.49594 14.4169 2.36287 14.4011 2.33435C14.3593 2.25872 13.9153 1.86722 13.5898 1.61904C12.9859 1.15852 12.1946 0.72408 11.4924 0.467571C11.0821 0.317654 10.3672 0.137403 9.91155 0.0689403C9.60038 0.0222027 8.41047 -0.0192757 8.20546 0.0094931ZM9.83329 1.398C11.2382 1.64196 12.4272 2.25722 13.4352 3.26174C14.4106 4.23378 15.0193 5.41076 15.2814 6.83142C15.3605 7.26042 15.3776 8.26877 15.314 8.75245C15.0987 10.388 14.3251 11.8259 13.0948 12.8774C11.9007 13.8979 10.4811 14.4549 8.93936 14.5077C7.68352 14.5507 6.56078 14.2734 5.43204 13.6413L5.0988 13.4547L3.85821 13.7766C3.15736 13.9585 2.6178 14.084 2.61805 14.065C2.6183 14.0466 2.76562 13.4992 2.9454 12.8486L3.27232 11.6657L3.13677 11.4556C1.78 9.35133 1.75189 6.68751 3.06339 4.50393C3.58667 3.63267 4.40563 2.80304 5.26284 2.27578C5.55735 2.09465 6.23844 1.77159 6.54294 1.6686C7.01232 1.50985 7.61966 1.37956 8.14285 1.32531C8.46698 1.29172 9.46953 1.33483 9.83329 1.398ZM5.60719 4.3075C5.35199 4.42436 4.97374 4.92892 4.79875 5.38597C4.70431 5.63259 4.70074 5.65944 4.70024 6.12707C4.69977 6.59567 4.70327 6.62246 4.80301 6.90968C4.99284 7.45623 5.29455 7.96054 5.82234 8.61349C7.18406 10.2981 8.07141 10.9391 9.88025 11.545C10.7392 11.8327 11.4411 11.7581 12.1014 11.3091C12.5185 11.0254 12.6806 10.7484 12.7579 10.1875C12.8005 9.87816 12.7748 9.7689 12.6379 9.67828C12.5755 9.63699 12.4754 9.59344 12.4154 9.58145C12.3554 9.5695 12.0598 9.44083 11.7585 9.29552C11.0736 8.96523 10.9415 8.91317 10.7885 8.91317C10.6697 8.91317 10.6571 8.92422 10.3717 9.28099C9.8779 9.89838 9.84487 9.93022 9.70193 9.92646C9.53696 9.92214 8.8647 9.59955 8.47361 9.33703C7.81393 8.89423 7.18459 8.22018 6.81329 7.55875C6.68603 7.33207 6.69618 7.28665 6.9365 7.00741C7.16196 6.74546 7.36462 6.43742 7.39126 6.31624C7.41984 6.18611 6.71749 4.49589 6.57446 4.35054L6.47432 4.2488L6.10336 4.24949C5.81129 4.25002 5.70577 4.26236 5.60719 4.3075Z" fill="#132043"/>
</svg>
