<svg width="13" height="12" viewBox="0 0 13 12" fill="none" xmlns="http://www.w3.org/2000/svg">
<path d="M4.9315 5.12133C5.55706 6.22032 6.46718 7.13044 7.56617 7.756L8.1555 6.93067C8.25027 6.79796 8.3904 6.70459 8.54937 6.66822C8.70834 6.63186 8.87512 6.65502 9.01817 6.73333C9.96105 7.24862 11.0023 7.55852 12.0735 7.64267C12.2407 7.65592 12.3967 7.73169 12.5105 7.85488C12.6243 7.97807 12.6875 8.13963 12.6875 8.30733V11.282C12.6875 11.4471 12.6263 11.6063 12.5157 11.7288C12.4052 11.8513 12.253 11.9285 12.0888 11.9453C11.7355 11.982 11.3795 12 11.0208 12C5.31417 12 0.6875 7.37333 0.6875 1.66667C0.6875 1.308 0.7055 0.952 0.742167 0.598667C0.759003 0.434465 0.836156 0.282347 0.958693 0.171756C1.08123 0.0611648 1.24044 -3.55718e-05 1.4055 1.55115e-08H4.38017C4.54787 -2.10123e-05 4.70943 0.0631677 4.83262 0.176967C4.95581 0.290767 5.03158 0.446816 5.04483 0.614C5.12898 1.68519 5.43888 2.72645 5.95417 3.66933C6.03248 3.81238 6.05564 3.97916 6.01928 4.13813C5.98291 4.2971 5.88954 4.43723 5.75683 4.532L4.9315 5.12133ZM3.25017 4.68333L4.51683 3.77867C4.15736 3.00273 3.91107 2.17923 3.7855 1.33333H2.0275C2.0235 1.444 2.0215 1.55533 2.0215 1.66667C2.02083 6.63733 6.05017 10.6667 11.0208 10.6667C11.1322 10.6667 11.2435 10.6647 11.3542 10.66V8.902C10.5083 8.77643 9.68477 8.53014 8.90883 8.17067L8.00417 9.43733C7.63994 9.29581 7.28617 9.12873 6.9455 8.93733L6.90683 8.91533C5.59922 8.17115 4.51635 7.08828 3.77217 5.78067L3.75017 5.742C3.55877 5.40133 3.39169 5.04756 3.25017 4.68333Z" fill="#03053D"/>
</svg>
