<svg width="49" height="50" viewBox="0 0 49 50" fill="none" xmlns="http://www.w3.org/2000/svg">
<rect x="0.959826" y="1.71617" width="46.617" height="46.617" rx="23.3085" stroke="#132043" stroke-width="1.48215"/>
<path d="M27.824 18.294L25.9781 18.291C23.9044 18.291 22.5642 19.6849 22.5642 21.8422V23.4795H20.7082C20.5478 23.4795 20.418 23.6113 20.418 23.7739V26.1462C20.418 26.3088 20.548 26.4404 20.7082 26.4404H22.5642V32.4265C22.5642 32.5891 22.694 32.7208 22.8544 32.7208H25.2759C25.4363 32.7208 25.5662 32.589 25.5662 32.4265V26.4404H27.7362C27.8966 26.4404 28.0265 26.3088 28.0265 26.1462L28.0274 23.7739C28.0274 23.6958 27.9967 23.6211 27.9424 23.5658C27.888 23.5106 27.814 23.4795 27.737 23.4795H25.5662V22.0915C25.5662 21.4244 25.723 21.0858 26.5803 21.0858L27.8237 21.0853C27.984 21.0853 28.1138 20.9535 28.1138 20.7911V18.5882C28.1138 18.426 27.9841 18.2943 27.824 18.294Z" fill="#132043"/>
</svg>
