<svg width="17" height="23" viewBox="0 0 17 23" fill="none" xmlns="http://www.w3.org/2000/svg">
<path d="M8.6875 16.4945L12.9305 12.2525C13.7695 11.4133 14.3409 10.3442 14.5723 9.18036C14.8037 8.0165 14.6848 6.81015 14.2307 5.71386C13.7765 4.61756 13.0075 3.68055 12.0208 3.0213C11.0341 2.36206 9.87415 2.01019 8.6875 2.01019C7.50086 2.01019 6.34086 2.36206 5.35419 3.0213C4.36752 3.68055 3.59848 4.61756 3.14432 5.71386C2.69017 6.81015 2.57129 8.0165 2.80272 9.18036C3.03415 10.3442 3.60549 11.4133 4.4445 12.2525L8.6875 16.4945ZM14.3445 13.6665L8.6875 19.3235L3.0305 13.6665C1.91172 12.5476 1.14984 11.1222 0.841191 9.57034C0.532543 8.0185 0.690994 6.40999 1.29651 4.9482C1.90202 3.48642 2.9274 2.23701 4.24298 1.35798C5.55857 0.478947 7.10527 0.00976563 8.6875 0.00976562C10.2697 0.00976562 11.8164 0.478947 13.132 1.35798C14.4476 2.23701 15.473 3.48642 16.0785 4.9482C16.684 6.40999 16.8425 8.0185 16.5338 9.57034C16.2252 11.1222 15.4633 12.5476 14.3445 13.6665ZM1.6875 20.0095H15.6875V22.0095H1.6875V20.0095Z" fill="#132043"/>
</svg>
