<svg width="14" height="13" viewBox="0 0 14 13" fill="none" xmlns="http://www.w3.org/2000/svg">
<path d="M2.48299 12.5029L2.46966 12.5163L2.45566 12.5029H1.25899C1.08353 12.5028 0.915321 12.4329 0.791316 12.3088C0.667311 12.1847 0.597656 12.0164 0.597656 11.8409V1.16493C0.598876 0.989848 0.668923 0.822275 0.792665 0.698408C0.916407 0.574542 1.08391 0.504326 1.25899 0.50293H13.2697C13.635 0.50293 13.931 0.799596 13.931 1.16493V11.8409C13.9298 12.016 13.8597 12.1836 13.736 12.3075C13.6122 12.4313 13.4447 12.5015 13.2697 12.5029H2.48299ZM12.5977 8.50293V1.83626H1.93099V11.1696L8.59766 4.50293L12.5977 8.50293ZM12.5977 10.3883L8.59766 6.38826L3.81632 11.1696H12.5977V10.3883ZM4.59766 5.83626C4.24403 5.83626 3.9049 5.69579 3.65485 5.44574C3.4048 5.19569 3.26432 4.85655 3.26432 4.50293C3.26432 4.14931 3.4048 3.81017 3.65485 3.56012C3.9049 3.31007 4.24403 3.1696 4.59766 3.1696C4.95128 3.1696 5.29042 3.31007 5.54047 3.56012C5.79051 3.81017 5.93099 4.14931 5.93099 4.50293C5.93099 4.85655 5.79051 5.19569 5.54047 5.44574C5.29042 5.69579 4.95128 5.83626 4.59766 5.83626Z" fill="#132043" fill-opacity="0.5"/>
</svg>
