<svg width="115" height="62" viewBox="0 0 115 62" fill="none" xmlns="http://www.w3.org/2000/svg">
<path fill-rule="evenodd" clip-rule="evenodd" d="M12.1163 0.602426C11.5902 0.629963 10.9267 0.685747 10.4695 0.740914C5.27023 1.36828 1.85827 3.91891 0.826771 7.94937C0.589599 8.87603 0.525954 9.4602 0.525954 10.7102C0.525954 11.8222 0.554875 12.1591 0.719305 12.9624C1.18841 15.2543 2.44983 17.0152 4.55031 18.3102C5.0579 18.6232 6.03225 19.1013 6.65835 19.3445C7.86642 19.814 9.01244 20.1488 11.4419 20.7424C13.3207 21.2015 14.0965 21.4146 14.7082 21.6397C16.3907 22.2588 17.1352 23.018 17.1352 24.1144C17.1352 24.591 17.0101 25.0286 16.7669 25.4032C16.6237 25.6238 16.2621 25.9909 16.0215 26.16C14.8026 27.0166 12.7548 27.1515 11.3557 26.4674C10.1938 25.8993 9.56341 24.9277 9.50472 23.6143L9.49713 23.4445L4.77933 23.4367L0.0615234 23.4288L0.083073 23.9615C0.303776 29.417 3.6393 33.1679 9.34029 34.3713C12.1716 34.9689 15.5666 34.9051 18.3195 34.2024C20.5883 33.6234 22.3866 32.6669 23.8035 31.2857C24.677 30.4342 25.3008 29.5493 25.7895 28.4686C26.5464 26.7945 26.8535 24.6397 26.6213 22.6314C26.2094 19.0696 24.1756 16.671 20.2439 15.1105C19.1276 14.6674 17.8036 14.2598 15.9903 13.8007C15.7142 13.7308 15.1073 13.5773 14.6414 13.4595C12.1236 12.823 11.055 12.3881 10.3873 11.7283C10.1203 11.4643 9.91357 11.1045 9.85767 10.8063C9.69221 9.92364 10.0838 9.1426 10.9244 8.67891C11.793 8.1997 13.2155 8.07665 14.3121 8.38579C15.2155 8.64048 15.9298 9.25006 16.242 10.0327C16.347 10.296 16.4451 10.7782 16.4451 11.0314V11.235H21.0405H25.6358V11.1566C25.6358 10.9372 25.565 9.96803 25.5242 9.62968C25.1614 6.61975 23.7239 4.22916 21.3385 2.66853C19.6336 1.55316 17.5344 0.893695 14.9464 0.66034C14.4559 0.616133 12.586 0.577853 12.1163 0.602426ZM33.8856 17.6716V33.987H38.5123H43.139V17.6716V1.35624H38.5123H33.8856V17.6716ZM50.7071 11.891C50.7165 21.6447 50.7213 22.4601 50.7716 22.8888C51.0443 25.2131 51.7066 27.1098 52.8466 28.8315C54.9774 32.0495 58.5584 34.1337 62.8694 34.665C64.2729 34.838 66.0769 34.838 67.4804 34.665C70.3348 34.3132 72.8554 33.2926 74.9492 31.6408C75.3952 31.2889 76.4072 30.2854 76.7703 29.8348C78.2458 28.0038 79.1437 25.9306 79.4949 23.5433C79.6383 22.5692 79.6303 23.2033 79.6417 11.9373L79.6524 1.35624H74.9784H70.3043L70.2947 11.6903C70.2857 21.3472 70.2815 22.0416 70.2307 22.2868C70.0986 22.9248 69.9764 23.3037 69.7565 23.7567C68.87 25.5825 67.0356 26.5615 64.7673 26.4192C63.8508 26.3616 63.0223 26.112 62.3339 25.6859C61.9546 25.4512 61.7521 25.2875 61.4262 24.9519C60.6754 24.179 60.2051 23.1099 60.0792 21.8899C60.0569 21.6734 60.0463 18.3078 60.0463 11.4632V1.35624H55.3716H50.697L50.7071 11.891ZM86.8657 5.40035V9.44446H91.367H95.8682V21.7158V33.9872L100.456 33.9793L105.043 33.9715L105.051 21.708L105.059 9.44446H109.56H114.062V5.40035V1.35624H100.464H86.8657V5.40035Z" fill="#978154"/>
<path fill-rule="evenodd" clip-rule="evenodd" d="M93.1235 42.8054C92.9541 42.8523 92.7804 42.9728 92.6869 43.1086C92.6087 43.222 92.6001 43.2609 92.6001 43.4985C92.6001 43.7432 92.607 43.7717 92.6944 43.8903C92.8984 44.1666 93.3146 44.2846 93.703 44.1762C94.4197 43.9761 94.442 43.0179 93.7346 42.8152C93.5613 42.7656 93.2838 42.7611 93.1235 42.8054ZM29.7052 46.2289V49.3258H30.3972H31.0892V48.7401V48.1544L31.4 47.8792C31.571 47.7278 31.7187 47.604 31.7284 47.604C31.7461 47.604 32.0947 48.0138 32.8 48.8636L33.181 49.3228L34.0105 49.3243C34.67 49.3255 34.8337 49.3181 34.8089 49.288C34.6755 49.1266 33.2965 47.4413 33.122 47.2264C33.0005 47.0769 32.8611 46.9094 32.8122 46.8544L32.7232 46.7542L33.6815 45.8122L34.6397 44.8702L33.8361 44.8621L33.0324 44.8541L32.5449 45.3001C32.2768 45.5455 31.8431 45.9398 31.5812 46.1763L31.105 46.6064L31.0892 44.8774L31.0735 43.1484L30.3893 43.1402L29.7052 43.1321V46.2289ZM50.277 44.2074V45.2827L50.1433 45.1724C49.9739 45.0327 49.6247 44.872 49.3805 44.8214C49.0965 44.7627 48.5481 44.7774 48.2548 44.8516C47.8716 44.9486 47.532 45.1342 47.2544 45.3983C46.7489 45.879 46.5358 46.4541 46.574 47.2339C46.5944 47.6492 46.6475 47.8615 46.8142 48.193C47.1121 48.7857 47.6722 49.2039 48.3539 49.3427C48.604 49.3936 49.124 49.3989 49.3826 49.3532C49.6498 49.306 49.9965 49.1427 50.1809 48.977L50.3399 48.8342V49.08V49.3258H51.0006H51.6613L51.6533 46.2371L51.6453 43.1484L50.9611 43.1402L50.277 43.1321V44.2074ZM112.558 46.2295V49.3258H113.235H113.911V46.2295V43.1333H113.235H112.558V46.2295ZM1.99307 43.4501C1.05988 43.6213 0.456948 44.077 0.241385 44.7741C0.172498 44.997 0.180676 45.4572 0.25771 45.6933C0.477205 46.3659 0.981151 46.6554 2.55926 47.0152C3.26811 47.1768 3.54624 47.3083 3.6635 47.5372C3.71581 47.6393 3.72534 47.6959 3.70836 47.8046C3.60141 48.4895 1.90594 48.5276 0.770966 47.8707C0.661062 47.8071 0.56116 47.755 0.548955 47.755C0.536719 47.755 0.422064 47.9806 0.294136 48.2563L0.0615234 48.7575L0.138683 48.8146C0.270827 48.9125 0.7062 49.1076 1.00676 49.2037C1.64467 49.4074 2.639 49.4794 3.29444 49.3694C4.21677 49.2144 4.84688 48.746 5.05697 48.0591C5.08676 47.9617 5.10714 47.7831 5.10714 47.6191C5.10714 47.065 4.90636 46.6953 4.44457 46.3992C4.15106 46.211 3.82179 46.098 2.97721 45.8959C1.94809 45.6497 1.70028 45.5395 1.61447 45.2898C1.51923 45.0127 1.70437 44.7106 2.05104 44.5776C2.20936 44.517 2.2845 44.5093 2.73227 44.5086C3.32026 44.5076 3.55611 44.5554 4.09406 44.7849C4.27213 44.8609 4.42362 44.9174 4.4307 44.9106C4.44545 44.8965 4.8555 43.929 4.8555 43.9084C4.8555 43.8794 4.32529 43.6494 4.1163 43.5876C3.66228 43.4535 3.49798 43.4315 2.85809 43.4191C2.39699 43.4101 2.16598 43.4184 1.99307 43.4501ZM55.7187 46.4108V49.3258H56.4265H57.1342V46.4108V43.4958H56.4265H55.7187V46.4108ZM64.715 44.402V44.9457H64.3532H63.9915V45.4441V45.9426H64.3532H64.715L64.7154 47.0225C64.7159 48.1936 64.7312 48.3339 64.8909 48.6367C64.9977 48.839 65.2403 49.0834 65.4358 49.1856C65.6838 49.3152 66.0296 49.3862 66.4128 49.3862C66.8342 49.3862 67.0638 49.3468 67.3356 49.2277C67.5243 49.1451 67.5478 49.1257 67.5322 49.0659C67.4941 48.9202 67.1923 48.2057 67.1731 48.2158C66.7646 48.429 66.3458 48.3971 66.1681 48.1393L66.0833 48.0163L66.0739 46.9794L66.0645 45.9426H66.6479H67.2314V45.4441V44.9457H66.6495H66.0675V44.402V43.8583H65.3912H64.715V44.402ZM89.0928 44.402V44.9457H88.7311H88.3693V45.4441V45.9426H88.7311H89.0928L89.0933 47.0225C89.0938 48.1936 89.109 48.3339 89.2688 48.6367C89.3755 48.839 89.6182 49.0834 89.8136 49.1856C90.0616 49.3152 90.4075 49.3862 90.7907 49.3862C91.2121 49.3862 91.4417 49.3468 91.7135 49.2277C91.9022 49.1451 91.9257 49.1257 91.91 49.0659C91.8843 48.9675 91.5748 48.2081 91.5604 48.2081C91.5537 48.2081 91.4902 48.2372 91.4192 48.2727C91.339 48.3129 91.2105 48.3423 91.0801 48.3504C90.8023 48.3678 90.6231 48.2849 90.5176 48.0901C90.4465 47.9591 90.4454 47.9411 90.4454 46.9498V45.9426H91.0273H91.6092V45.4441V44.9457H91.0273H90.4454V44.402V43.8583H89.7691H89.0928V44.402ZM7.47718 44.7973C6.94945 44.8488 6.44469 45.0014 6.02756 45.2355L5.89425 45.3104L6.13001 45.7624C6.25967 46.011 6.37253 46.2144 6.3808 46.2144C6.3891 46.2144 6.46746 46.1721 6.555 46.1204C7.09248 45.8028 7.94322 45.7241 8.39422 45.9503C8.60793 46.0574 8.78546 46.336 8.78672 46.5662L8.78741 46.6914L7.93026 46.705C7.11267 46.7179 7.0603 46.7223 6.7956 46.7993C6.44503 46.9013 6.30109 46.972 6.12189 47.1304C5.88755 47.3375 5.78642 47.527 5.73628 47.8533C5.62792 48.5579 6.12098 49.1796 6.91582 49.3406C7.17599 49.3933 7.74027 49.3999 7.9759 49.3531C8.24896 49.2988 8.56984 49.1351 8.73441 48.9662L8.88178 48.8149V49.0703V49.3258H9.52897H10.1761L10.1639 47.8381C10.1524 46.4351 10.1479 46.3372 10.085 46.1192C9.91421 45.5272 9.57411 45.1561 9.01471 44.9512C8.60777 44.8021 8.02481 44.7438 7.47718 44.7973ZM13.8665 44.7944C13.4726 44.8472 13.1388 44.9886 12.8687 45.2171L12.7193 45.3436V45.0993V44.8551H12.0745H11.4297V47.0905V49.3258H12.1041H12.7786L12.7887 48.0042C12.7984 46.7114 12.8002 46.6789 12.8702 46.5121C13.0253 46.1418 13.3152 45.9414 13.7288 45.9184C14.2763 45.888 14.583 46.1483 14.6684 46.7161C14.6857 46.8306 14.7 47.4647 14.7004 48.1251L14.701 49.3258H15.3755H16.05L16.0597 47.9891L16.0693 46.6524L16.1662 46.4556C16.3432 46.0963 16.6491 45.9124 17.0701 45.9124C17.3255 45.9124 17.4795 45.9625 17.6396 46.0978C17.8006 46.2339 17.8972 46.4333 17.9401 46.7179C17.9571 46.8314 17.9714 47.4647 17.9717 48.1251L17.9724 49.3258H18.651H19.3296L19.317 47.8079C19.3031 46.1231 19.3029 46.1212 19.0829 45.675C18.9556 45.4168 18.6749 45.1281 18.4271 45.0003C18.1424 44.8536 17.8111 44.7842 17.4062 44.7867C16.7942 44.7904 16.3171 44.9574 15.9222 45.3061L15.7277 45.478L15.5211 45.2766C15.3042 45.0653 14.9932 44.8962 14.701 44.8307C14.4899 44.7833 14.0813 44.7655 13.8665 44.7944ZM22.1716 44.7828C21.5231 44.8409 20.7892 45.0575 20.5212 45.27L20.4436 45.3315L20.6752 45.7654C20.8026 46.0041 20.9089 46.2022 20.9115 46.2057C20.9141 46.2092 21.0519 46.1467 21.2178 46.0668C21.6085 45.8786 21.9373 45.8097 22.3632 45.8268C22.6133 45.8369 22.7091 45.8547 22.8479 45.9167C23.1397 46.0471 23.2886 46.2406 23.336 46.5511L23.3574 46.6914L22.4971 46.7052C21.759 46.7171 21.6034 46.7279 21.4009 46.7808C20.8811 46.9167 20.5377 47.1582 20.3704 47.5053C20.2949 47.6619 20.2864 47.7146 20.2861 48.0269C20.2857 48.3539 20.2915 48.3862 20.3849 48.5773C20.5177 48.8494 20.7388 49.0577 21.0409 49.1955C21.3517 49.3372 21.5918 49.3839 22.0172 49.3852C22.6125 49.387 22.9896 49.2596 23.2953 48.9534L23.4456 48.8029V49.0643V49.3258H24.0765H24.7075L24.6962 47.8079C24.6837 46.1278 24.6848 46.1387 24.4691 45.716C24.239 45.2651 23.7929 44.9659 23.165 44.8412C22.9442 44.7974 22.3798 44.7642 22.1716 44.7828ZM28.5354 44.796C28.084 44.8465 27.6953 45.0063 27.4332 45.2488C27.3441 45.3313 27.2667 45.3988 27.2614 45.3988C27.2561 45.3988 27.2517 45.2765 27.2517 45.127V44.8551H26.6068H25.962V47.0905V49.3258H26.6361H27.3102L27.3221 48.11C27.3325 47.0527 27.3412 46.8724 27.3894 46.728C27.5563 46.2279 27.9571 45.9728 28.5756 45.9728H28.8559V45.3686C28.8559 44.8119 28.8516 44.7648 28.8009 44.7684C28.7706 44.7706 28.6511 44.783 28.5354 44.796ZM36.8374 44.7998C36.4353 44.8395 35.9886 44.9572 35.666 45.1084C35.2151 45.3198 35.2315 45.2584 35.4952 45.7475C35.6201 45.9794 35.7326 46.1802 35.745 46.1937C35.7574 46.2072 35.836 46.1766 35.9197 46.1257C36.265 45.9154 36.7166 45.8087 37.1719 45.8301C37.5513 45.8478 37.6801 45.8821 37.8592 46.0132C38.0296 46.1378 38.1348 46.3198 38.1573 46.5285L38.1749 46.6919L37.3293 46.7048C36.3882 46.7193 36.2126 46.7448 35.8232 46.9239C35.2942 47.1671 35.0209 47.6677 35.1116 48.2274C35.2001 48.7731 35.6084 49.1726 36.2348 49.3265C36.5111 49.3943 37.0284 49.4072 37.3352 49.3537C37.6246 49.3033 37.9473 49.1408 38.1162 48.9604L38.261 48.8058V49.0658V49.3258H38.9086H39.5562L39.5422 47.8381C39.529 46.4368 39.5243 46.3366 39.4611 46.1134C39.3669 45.781 39.2229 45.5351 38.9952 45.3178C38.6802 45.0171 38.2715 44.8572 37.6594 44.7953C37.3232 44.7613 37.2216 44.7619 36.8374 44.7998ZM43.2939 44.7957C42.9176 44.8457 42.6007 44.971 42.3024 45.1879L42.0986 45.336V45.0955V44.8551H41.4538H40.8089V47.0905V49.3258H41.4837H42.1584L42.1679 48.0193C42.1771 46.7396 42.1788 46.7094 42.2491 46.5423C42.4091 46.1621 42.733 45.9428 43.1706 45.9185C43.708 45.8886 44.0206 46.0786 44.1563 46.5176C44.1984 46.6537 44.2061 46.8831 44.2061 48.0022V49.3258H44.8981H45.5901L45.5894 48.0042C45.5887 46.5947 45.5629 46.2376 45.4372 45.8993C45.2411 45.3713 44.827 45.0005 44.2763 44.8597C43.9851 44.7852 43.5745 44.7585 43.2939 44.7957ZM61.0032 44.7957C60.6027 44.848 60.2462 44.9938 59.9573 45.2233L59.8079 45.342V45.0986V44.8551H59.1474H58.4868V47.0905V49.3258H59.1788H59.8708L59.8712 48.0797C59.8716 46.7386 59.881 46.6437 60.0384 46.3877C60.1466 46.2119 60.2977 46.0794 60.4842 45.997C60.6167 45.9384 60.6936 45.9275 60.9718 45.9275C61.2496 45.9275 61.3221 45.9378 61.4283 45.9924C61.608 46.0848 61.7238 46.2047 61.8179 46.3957L61.8997 46.5618L61.9093 47.9438L61.9189 49.3258H62.5951H63.2712L63.2604 47.7777C63.2511 46.4317 63.2427 46.2069 63.1964 46.0562C62.9976 45.4089 62.5445 44.9807 61.9123 44.8425C61.6407 44.7832 61.2518 44.7631 61.0032 44.7957ZM70.0279 44.7942C69.146 44.8995 68.4382 45.3696 68.0944 46.0785C67.9602 46.3554 67.896 46.6016 67.8726 46.9292C67.7914 48.0669 68.4934 48.9898 69.6731 49.2968C69.9906 49.3795 70.6963 49.4101 71.0728 49.3575C71.5601 49.2896 72.055 49.0664 72.3384 48.7868L72.4597 48.6671L72.1072 48.3017C71.9133 48.1007 71.7475 47.9363 71.7388 47.9363C71.73 47.9363 71.6698 47.9766 71.605 48.0259C71.23 48.3111 70.7139 48.4171 70.2047 48.3135C69.9166 48.2549 69.6803 48.1371 69.524 47.9743C69.4048 47.8501 69.2455 47.5742 69.2448 47.4907C69.2446 47.4609 69.617 47.4529 71.0029 47.4529H72.7613L72.7833 47.2712C72.8261 46.9172 72.7306 46.3995 72.5544 46.0304C72.2772 45.4497 71.7184 45.0187 71.0375 44.8603C70.7202 44.7864 70.3152 44.76 70.0279 44.7942ZM76.2804 44.7964C75.821 44.8476 75.4766 44.9968 75.1817 45.2721L75.0323 45.4117V45.1334V44.8551H74.3875H73.7426V47.0905V49.3258H74.417H75.0914L75.1016 48.0646C75.1116 46.8354 75.1136 46.7992 75.1832 46.6329C75.284 46.3921 75.4662 46.2059 75.7175 46.0872C75.9102 45.996 75.9565 45.987 76.282 45.9771L76.6365 45.9663V45.3654V44.7645L76.5657 44.7684C76.5268 44.7706 76.3984 44.7832 76.2804 44.7964ZM80.0083 44.7953C79.5906 44.8507 79.2362 44.9901 78.939 45.2157L78.7755 45.3398V45.0975V44.8551H78.1306H77.4858V47.0905V49.3258H78.1602H78.8347L78.8457 48.0344C78.8556 46.8641 78.8621 46.7289 78.9153 46.592C79.102 46.1115 79.4646 45.8904 80.0199 45.9184C80.3365 45.9343 80.5358 46.0216 80.6853 46.2099C80.8872 46.4641 80.8929 46.5094 80.9069 47.9891L80.9195 49.3258H81.5956H82.2717L82.2595 47.823C82.2479 46.393 82.244 46.3087 82.179 46.0829C81.9959 45.4472 81.5627 45.0151 80.9532 44.86C80.6607 44.7855 80.2787 44.7593 80.0083 44.7953ZM84.9857 44.7964C84.6761 44.8252 84.2713 44.9153 83.9829 45.0196C83.7615 45.0996 83.4459 45.2605 83.4145 45.3092C83.3972 45.3361 83.7594 46.0493 83.851 46.1687C83.8942 46.2251 83.9005 46.2257 83.9554 46.178C83.9875 46.1501 84.1055 46.086 84.2178 46.0356C84.9413 45.7105 85.8464 45.7622 86.1289 46.1448C86.2075 46.2513 86.2933 46.4914 86.2933 46.605V46.6914L85.4361 46.7061C84.694 46.7188 84.5459 46.7293 84.3322 46.7845C83.8334 46.9135 83.5237 47.1278 83.3532 47.4621C83.0949 47.9686 83.2012 48.5625 83.6186 48.9449C83.9483 49.2469 84.3655 49.3862 84.94 49.3862C85.5547 49.3862 85.9218 49.2676 86.2225 48.972L86.3877 48.8096V49.0677V49.3258H87.0186H87.6495L87.6398 47.7777L87.6301 46.2295L87.5424 45.9879C87.2788 45.2625 86.709 44.8813 85.7586 44.7947C85.3967 44.7616 85.3573 44.7617 84.9857 44.7964ZM97.3813 44.7821C96.8164 44.8532 96.4368 44.9726 96.0983 45.1857C95.8367 45.3504 95.5091 45.6751 95.3581 45.9195C95.0631 46.3967 94.9665 47.109 95.1183 47.6866C95.1435 47.7824 95.23 47.9899 95.3107 48.1476C95.4326 48.3863 95.503 48.4784 95.729 48.6955C95.965 48.9222 96.0441 48.9765 96.3293 49.1079C96.8217 49.3348 97.0002 49.3712 97.6172 49.3706C98.1999 49.3701 98.4068 49.3329 98.8075 49.1568C99.4198 48.8877 99.8234 48.4645 100.05 47.8535C100.146 47.597 100.149 47.5735 100.148 47.0905C100.147 46.6316 100.14 46.5728 100.062 46.3504C99.789 45.5672 99.1275 45.0166 98.2488 44.8409C98.0251 44.7962 97.5339 44.7629 97.3813 44.7821ZM103.627 44.7957C103.201 44.8521 102.778 45.0285 102.538 45.2498C102.486 45.2985 102.433 45.3384 102.42 45.3384C102.408 45.3384 102.398 45.2297 102.398 45.0968V44.8551H101.754H101.109V47.0905V49.3258H101.801H102.493V48.0577C102.493 46.8365 102.495 46.7822 102.561 46.5892C102.61 46.4455 102.673 46.3439 102.781 46.2301C102.982 46.0183 103.181 45.9361 103.531 45.9194C103.883 45.9025 104.102 45.9763 104.282 46.1726C104.519 46.431 104.518 46.4224 104.53 47.9589L104.541 49.3258H105.217H105.893L105.882 47.7928C105.871 46.0895 105.874 46.1148 105.65 45.6739C105.438 45.2571 105.026 44.95 104.535 44.8428C104.263 44.7832 103.874 44.7631 103.627 44.7957ZM108.768 44.7827C108.095 44.8436 107.494 45.0186 107.094 45.2702L107.024 45.3142L107.261 45.7643C107.391 46.0119 107.506 46.2144 107.517 46.2144C107.527 46.2144 107.601 46.1742 107.681 46.125C108.021 45.9153 108.506 45.8042 108.977 45.8282C109.563 45.8581 109.838 46.075 109.933 46.5813L109.953 46.6914L109.093 46.7052C108.34 46.7174 108.202 46.7272 107.982 46.7844C107.469 46.9173 107.162 47.1305 106.985 47.4745C106.897 47.6457 106.881 47.7127 106.87 47.9564C106.86 48.1885 106.87 48.2764 106.927 48.4456C107.056 48.8321 107.38 49.1299 107.842 49.2862C108.037 49.3524 108.146 49.3677 108.501 49.3789C109.161 49.3997 109.56 49.2778 109.869 48.9606L110.011 48.8149V49.0703V49.3258H110.658H111.304L111.292 47.823C111.281 46.533 111.272 46.2927 111.226 46.1265C111.032 45.4216 110.526 44.9827 109.743 44.8398C109.503 44.7959 108.968 44.7646 108.768 44.7827ZM92.7416 47.0905V49.3258H93.4179H94.0942V47.0905V44.8551H93.4179H92.7416V47.0905ZM70.684 45.8044C71.0931 45.9089 71.3947 46.2119 71.4907 46.6147L71.5105 46.6978H70.3584H69.2062L69.2273 46.6147C69.3862 45.9895 70.0229 45.6354 70.684 45.8044ZM49.6164 45.9471C50.1005 46.161 50.3319 46.5783 50.3016 47.1828C50.2861 47.4913 50.2068 47.7152 50.0371 47.9289C49.8378 48.1798 49.3947 48.3517 49.0312 48.3191C48.5151 48.2728 48.1371 47.9745 47.9956 47.5019C47.9218 47.2554 47.9437 46.7793 48.0396 46.5423C48.1633 46.2367 48.4581 45.9832 48.7963 45.8915C49.0238 45.8299 49.4103 45.8561 49.6164 45.9471ZM97.9654 45.8993C98.4154 46.024 98.6956 46.3572 98.7843 46.8729C98.8829 47.4461 98.6012 48.0127 98.1121 48.225C97.9455 48.2973 97.8735 48.3104 97.6329 48.312C97.1918 48.3149 96.8777 48.1702 96.659 47.8634C96.5098 47.654 96.4509 47.4819 96.431 47.1962C96.3854 46.5437 96.736 46.0111 97.2943 45.8848C97.4844 45.8418 97.781 45.8482 97.9654 45.8993ZM8.7826 47.7348C8.77272 47.9899 8.76316 48.0274 8.68195 48.1296C8.46503 48.4025 8.15428 48.5255 7.73523 48.5044C7.28668 48.4818 7.05737 48.2991 7.05737 47.9643C7.05737 47.8202 7.07168 47.7735 7.13975 47.6958C7.31521 47.4956 7.47425 47.4607 8.23213 47.4563L8.79349 47.4529L8.7826 47.7348ZM23.3512 47.6807C23.3512 47.9532 23.295 48.0785 23.0918 48.2583C22.7339 48.5751 22.0336 48.6022 21.7305 48.3111C21.5363 48.1246 21.5502 47.7727 21.7577 47.6207C21.9338 47.4917 22.1466 47.4571 22.7772 47.4549L23.3512 47.4529V47.6807ZM38.1667 47.7038C38.1667 47.9297 38.1575 47.9686 38.0738 48.0952C37.8928 48.3694 37.5878 48.5102 37.1748 48.5102C36.9195 48.5102 36.7811 48.474 36.6332 48.3685C36.4929 48.2685 36.4366 48.1502 36.4366 47.9552C36.4366 47.8209 36.4521 47.7722 36.519 47.6958C36.6943 47.4958 36.8537 47.4607 37.6083 47.4563L38.1667 47.4529V47.7038ZM86.2933 47.7045C86.2933 47.9467 86.2888 47.9623 86.1743 48.1199C86.0804 48.2491 86.0097 48.306 85.8394 48.3894C85.6543 48.48 85.5863 48.4966 85.3626 48.5057C85.0259 48.5193 84.8287 48.4599 84.6776 48.2993C84.5375 48.1504 84.5037 47.9746 84.58 47.7915C84.6916 47.5237 84.9149 47.4577 85.7192 47.4549L86.2933 47.4529V47.7045ZM109.948 47.6887C109.948 47.8968 109.937 47.9402 109.858 48.0587C109.736 48.2404 109.616 48.3426 109.429 48.4255C109.296 48.4841 109.219 48.4951 108.941 48.4951C108.647 48.4951 108.596 48.4869 108.472 48.4196C108.276 48.3129 108.208 48.2122 108.193 48.0046C108.183 47.8594 108.193 47.8133 108.254 47.7264C108.414 47.501 108.58 47.4608 109.374 47.4563L109.948 47.4529V47.6887ZM13.7329 52.8121C13.5471 52.8703 13.3969 52.9876 13.2955 53.1538C13.2254 53.2686 13.2097 53.3311 13.2097 53.4944C13.2097 53.6578 13.2254 53.7203 13.2955 53.8351C13.4946 54.1613 13.9137 54.2975 14.3414 54.175C14.6804 54.0778 14.8708 53.8279 14.8728 53.4771C14.8739 53.291 14.8618 53.2446 14.7797 53.1178C14.6405 52.9032 14.4198 52.7921 14.1069 52.7796C13.9603 52.7737 13.8153 52.7863 13.7329 52.8121ZM35.4613 52.7959C35.1193 52.9034 34.8957 53.1796 34.8957 53.4944C34.8957 53.7969 35.1221 54.0848 35.4279 54.1712C35.9386 54.3154 36.4218 54.108 36.5483 53.6902C36.6039 53.5062 36.591 53.302 36.5149 53.1626C36.459 53.0602 36.2881 52.9091 36.1535 52.843C36.032 52.7834 35.5956 52.7537 35.4613 52.7959ZM56.741 53.0904C56.7064 53.097 56.6003 53.1171 56.5051 53.135C56.2271 53.1876 55.9133 53.3485 55.7134 53.5411C55.4114 53.832 55.2486 54.2456 55.2474 54.7254L55.2469 54.9444H54.8852H54.5234V55.4428V55.9412H54.8852H55.2469V57.6329V59.3245H55.9232H56.5995V57.6329V55.9412H57.1814H57.7633V55.4428V54.9444H57.1657H56.568V54.7838C56.568 54.4702 56.671 54.2648 56.8826 54.1565C57.0085 54.0921 57.4051 54.1071 57.5815 54.1829C57.6632 54.218 57.7359 54.2372 57.7432 54.2255C57.7504 54.2139 57.8302 54.0092 57.9205 53.7706C58.1079 53.2757 58.1105 53.2911 57.8223 53.1938C57.5204 53.0919 56.9976 53.0419 56.741 53.0904ZM76.7309 56.2276V59.3245H77.4214H78.1118L78.1212 58.0029L78.1306 56.6813L78.2212 56.493C78.3308 56.2652 78.5435 56.0645 78.7606 55.9841C78.9795 55.903 79.4983 55.9021 79.6562 55.9825C79.8364 56.0742 79.9981 56.2451 80.0732 56.4233C80.1422 56.5869 80.144 56.6217 80.1531 57.9576L80.1625 59.3245H80.8373H81.5121V57.8733C81.5121 56.2312 81.5013 56.1253 81.2924 55.7131C81.1415 55.4151 80.9788 55.2332 80.7192 55.0718C80.0335 54.6457 78.9345 54.6844 78.2818 55.1577L78.1157 55.278L78.1075 54.2126L78.0992 53.1471L77.415 53.1389L76.7309 53.1308V56.2276ZM94.5975 56.2282V59.3245H95.2738H95.9501V56.2282V53.132H95.2738H94.5975V56.2282ZM0.492178 55.4051C0.506145 57.4366 0.505799 57.4318 0.666472 57.876C0.873826 58.4492 1.27545 58.8906 1.82006 59.1438C2.45732 59.44 3.37811 59.5114 4.15159 59.3245C4.94694 59.1324 5.54985 58.6088 5.81495 57.8802C5.97827 57.4313 5.98789 57.2886 5.98789 55.318V53.4944H5.29764H4.60738L4.59625 55.3447C4.58643 56.9756 4.57879 57.2156 4.53173 57.3695C4.41305 57.7576 4.1933 58.0226 3.87202 58.1651C3.68647 58.2474 3.65309 58.2521 3.25128 58.2519C2.84249 58.2516 2.81899 58.2481 2.62217 58.1585C2.38673 58.0514 2.17765 57.8509 2.07976 57.6383C1.916 57.2829 1.91877 57.3197 1.90679 55.3447L1.89559 53.4944H1.18731H0.47903L0.492178 55.4051ZM60.5629 54.0378V54.581L61.5301 54.589L62.4974 54.597L62.5054 56.9608L62.5135 59.3245H63.221H63.9286V56.9532V54.5819H64.9037H65.8788V54.0382V53.4944H63.2208H60.5629V54.0378ZM37.8836 54.4007V54.9444H37.5218H37.1601V55.4428V55.9412H37.5218H37.8836L37.8841 56.991C37.8847 58.1294 37.9028 58.2996 38.0558 58.6102C38.2313 58.9665 38.5881 59.2271 39.0494 59.3361C39.3138 59.3986 39.9043 59.4001 40.1743 59.339C40.4215 59.283 40.7146 59.1524 40.7146 59.0982C40.7146 59.0259 40.3751 58.2217 40.3478 58.2293C40.3332 58.2333 40.2435 58.2634 40.1484 58.2962C39.8423 58.4017 39.5675 58.366 39.4041 58.1996C39.2439 58.0363 39.2362 57.977 39.2362 56.9185V55.9412H39.8181H40.4V55.4428V54.9444H39.8181H39.2362V54.4007V53.8569H38.5599H37.8836V54.4007ZM9.84847 54.7937C9.43476 54.8423 9.07699 54.9856 8.77955 55.222L8.63014 55.3407V55.0973V54.8538H7.9853H7.34047V57.0891V59.3245H8.0155H8.69053L8.69965 58.018C8.70859 56.7377 8.71022 56.7081 8.78059 56.541C8.87703 56.3119 9.06469 56.1143 9.28397 56.0109C9.44628 55.9344 9.49576 55.9261 9.79398 55.9261C10.1049 55.9261 10.1344 55.9316 10.2973 56.0196C10.4976 56.1278 10.6502 56.338 10.7043 56.5803C10.7249 56.6724 10.7376 57.2268 10.7376 58.027V59.3245H11.4155H12.0934L12.0832 57.7613C12.0733 56.2227 12.072 56.1947 12.0005 55.9866C11.7934 55.3835 11.3641 54.99 10.7534 54.8436C10.5053 54.7842 10.1135 54.7625 9.84847 54.7937ZM22.9423 54.7929C22.0655 54.8987 21.3729 55.3517 21.0247 56.047C20.5039 57.0869 20.8289 58.3407 21.776 58.9453C22.301 59.2805 22.7975 59.4002 23.5675 59.3773C23.9815 59.365 24.1036 59.3499 24.3421 59.2813C24.6942 59.1801 24.9661 59.0363 25.199 58.8281L25.3788 58.6674L25.022 58.3012C24.8258 58.0998 24.6583 57.9349 24.6497 57.9349C24.6412 57.9349 24.5805 57.9758 24.5148 58.0258C23.9069 58.4881 22.8412 58.441 22.3937 57.9319C22.3015 57.827 22.1568 57.5574 22.1562 57.4894C22.156 57.4596 22.5285 57.4516 23.9149 57.4516H25.6739L25.696 57.2534C25.7239 57.0032 25.6691 56.5837 25.5687 56.2799C25.3288 55.5535 24.6952 55.0117 23.886 54.841C23.6147 54.7838 23.195 54.7623 22.9423 54.7929ZM29.1805 54.7958C28.7428 54.8457 28.3983 54.9938 28.1088 55.2564L27.9437 55.4063V55.13V54.8538H27.2989H26.654V57.0891V59.3245H27.3303H28.0066V58.1432C28.0066 57.1672 28.0152 56.9297 28.0561 56.7763C28.149 56.4281 28.3338 56.2131 28.6657 56.0669C28.8106 56.0031 28.9002 55.9879 29.1947 55.977L29.5492 55.9638L29.5407 55.371C29.5309 54.6904 29.5691 54.7514 29.1805 54.7958ZM31.8026 54.7945C31.0351 54.8776 30.4589 55.1941 30.2073 55.6709C30.1181 55.8398 30.1025 55.9042 30.0896 56.1547C30.0656 56.6225 30.2022 56.9384 30.5273 57.1677C30.8205 57.3744 31.1941 57.4785 32.143 57.6182C32.6753 57.6965 32.8822 57.8036 32.8822 58.0006C32.8822 58.1386 32.8163 58.233 32.6741 58.2991C32.2238 58.5085 31.2469 58.4026 30.5983 58.074L30.4062 57.9767L30.1894 58.4276C30.0701 58.6756 29.9682 58.8896 29.9628 58.9031C29.9477 58.9411 30.382 59.1295 30.6803 59.2145C31.1624 59.3517 31.5396 59.3942 32.1223 59.3769C32.5136 59.3653 32.7099 59.3452 32.8979 59.2976C33.7949 59.0705 34.2899 58.4783 34.1725 57.7728C34.0675 57.1416 33.6669 56.8535 32.6529 56.68C31.8588 56.5441 31.71 56.5124 31.5894 56.4533C31.3455 56.3337 31.3001 56.1335 31.4782 55.9624C31.6313 55.8154 31.8141 55.7745 32.3003 55.7785C32.6454 55.7813 32.7524 55.7944 32.9862 55.8619C33.1386 55.906 33.3346 55.9767 33.4219 56.0192C33.5091 56.0616 33.5839 56.092 33.588 56.0868C33.615 56.0527 34.0146 55.2041 34.0146 55.1809C34.0146 55.1445 33.6762 54.9973 33.4484 54.9345C32.9907 54.8084 32.2533 54.7456 31.8026 54.7945ZM51.2167 54.793C50.198 54.9146 49.4381 55.4795 49.1237 56.3491C49.0425 56.5736 49.0363 56.625 49.0354 57.074C49.0344 57.6144 49.0634 57.7508 49.2617 58.1381C49.545 58.6911 50.0548 59.0859 50.7395 59.2826C51.114 59.3902 51.7745 59.4172 52.1674 59.341C52.6699 59.2436 53.0732 59.0477 53.422 58.7317C53.8172 58.3737 54.0489 57.9239 54.1212 57.3745C54.2605 56.3153 53.6677 55.3478 52.6434 54.9623C52.2402 54.8105 51.6532 54.7409 51.2167 54.793ZM67.8919 54.7926C66.9104 54.9104 66.1365 55.5061 65.8501 56.3642C65.7046 56.8003 65.7115 57.3928 65.8674 57.8459C66.1111 58.5539 66.6697 59.0437 67.5054 59.2821C67.7287 59.3458 67.8711 59.3641 68.246 59.3771C68.9241 59.4006 69.3676 59.316 69.8079 59.0792C70.0061 58.9726 70.314 58.7321 70.314 58.6839C70.314 58.6664 70.262 58.5961 70.1985 58.5276C69.965 58.2761 69.6257 57.9349 69.609 57.9349C69.5996 57.9349 69.5172 57.9894 69.426 58.056C68.8603 58.4692 67.8779 58.4366 67.4122 57.9893C67.2856 57.8677 67.1725 57.6846 67.1221 57.5196L67.1013 57.4516H68.8616C70.4377 57.4516 70.6238 57.4466 70.6409 57.4038C70.6761 57.3158 70.6605 56.8249 70.6152 56.5978C70.5906 56.4742 70.5295 56.2717 70.4794 56.1479C70.2248 55.5181 69.6454 55.0362 68.9295 54.8587C68.6474 54.7887 68.175 54.7587 67.8919 54.7926ZM73.5067 54.7926C72.8365 54.867 72.3119 55.1092 71.8796 55.5438C71.6181 55.8066 71.4271 56.1332 71.3291 56.485C71.2527 56.7592 71.2539 57.4217 71.3312 57.6933C71.5081 58.3143 71.947 58.8214 72.5691 59.1236C72.9075 59.2879 73.2478 59.361 73.7504 59.3773C74.1534 59.3904 74.2538 59.3836 74.5149 59.3257C74.9576 59.2274 75.2748 59.0637 75.5652 58.7835C75.7755 58.5807 75.9832 58.2916 75.9431 58.2574C75.9061 58.2257 74.9397 57.7235 74.9157 57.7235C74.9008 57.7235 74.8654 57.7609 74.8371 57.8066C74.587 58.2098 74.0346 58.4139 73.5382 58.2866C72.9665 58.1399 72.6424 57.7067 72.6424 57.0891C72.6424 56.5029 72.9441 56.0615 73.4465 55.9124C73.9772 55.755 74.4853 55.9059 74.7852 56.3099C74.8433 56.388 74.8996 56.4526 74.9105 56.4534C74.9214 56.4541 75.0417 56.3958 75.1779 56.3238C75.3141 56.2517 75.5423 56.1339 75.685 56.0619C75.8277 55.9899 75.9445 55.915 75.9445 55.8955C75.9445 55.8188 75.693 55.4939 75.4997 55.3209C75.253 55.1001 74.9261 54.9385 74.5605 54.8567C74.2408 54.7852 73.8091 54.7589 73.5067 54.7926ZM85.2989 54.7935C84.8807 54.849 84.5504 54.9786 84.2723 55.1962L84.0914 55.3378V55.0958V54.8538H83.4309H82.7703V57.0891V59.3245H83.4608H84.1513L84.1607 58.0029L84.1701 56.6813L84.2606 56.493C84.3702 56.2652 84.5829 56.0645 84.8001 55.9841C85.0189 55.903 85.5377 55.9021 85.6956 55.9825C85.8758 56.0742 86.0375 56.2451 86.1126 56.4233C86.1816 56.5869 86.1834 56.6217 86.1925 57.9576L86.2019 59.3245H86.8785H87.5552L87.5433 57.7764C87.5328 56.4059 87.5251 56.2074 87.4758 56.047C87.2846 55.4239 86.8317 54.9917 86.2147 54.8433C85.9698 54.7844 85.5421 54.7611 85.2989 54.7935ZM90.7442 54.7925C89.3723 54.9428 88.4639 55.937 88.5365 57.2086C88.5705 57.8037 88.7578 58.236 89.157 58.6401C89.5224 59.0102 89.9532 59.234 90.5065 59.3413C90.9065 59.4188 91.5917 59.389 91.9552 59.2783C92.759 59.0334 93.274 58.5638 93.5349 57.8379C93.6305 57.5717 93.6358 57.5341 93.6369 57.1042C93.6383 56.5868 93.6013 56.4132 93.4115 56.0444C93.1117 55.4622 92.5489 55.0392 91.8474 54.8689C91.5191 54.7892 91.0625 54.7576 90.7442 54.7925ZM99.1231 54.7928C98.0892 54.9169 97.3336 55.4814 97.0191 56.3644C96.9117 56.666 96.894 57.319 96.9839 57.6648C97.1913 58.4622 97.7764 59.033 98.6407 59.2811C99.0207 59.3902 99.6783 59.4177 100.074 59.341C100.612 59.2366 101.008 59.0351 101.377 58.6779C101.886 58.1847 102.118 57.5024 102.022 56.7773C101.913 55.9461 101.358 55.2665 100.537 54.9573C100.153 54.8128 99.5453 54.7422 99.1231 54.7928ZM104.812 54.7933C103.584 54.9397 102.746 55.8925 102.817 57.0589C102.84 57.4214 102.9 57.6415 103.065 57.9648C103.168 58.1668 103.249 58.2727 103.45 58.4642C103.87 58.8663 104.365 59.069 105.009 59.1031C105.58 59.1332 106.106 58.9887 106.456 58.7057L106.598 58.5913L106.607 58.7796C106.637 59.3688 106.337 59.7722 105.764 59.9145C105.512 59.9773 104.843 59.9612 104.556 59.8855C104.272 59.8103 103.92 59.6674 103.762 59.563C103.682 59.5105 103.608 59.4804 103.592 59.4949C103.578 59.5091 103.452 59.7179 103.313 59.9588L103.06 60.3969L103.13 60.4506C103.264 60.5529 103.768 60.7719 104.046 60.8486C104.622 61.0077 105.415 61.0574 105.984 60.9701C106.852 60.837 107.392 60.4971 107.693 59.895C107.975 59.3307 107.997 59.0933 107.997 56.704L107.997 54.8538H107.337H106.676V55.113V55.3721L106.5 55.2213C106.099 54.878 105.46 54.716 104.812 54.7933ZM13.3799 57.0891V59.3245H14.0562H14.7325V57.0891V54.8538H14.0562H13.3799V57.0891ZM15.3822 54.9671C15.479 55.1914 16.2233 56.8978 16.321 57.1193C16.3759 57.2439 16.5987 57.7537 16.8162 58.2521C17.0337 58.7505 17.2295 59.196 17.2513 59.242L17.291 59.3256L17.9956 59.3175L18.7002 59.3094L19.3436 57.8443C19.6975 57.0385 20.1354 56.0439 20.3166 55.6339C20.4978 55.224 20.6461 54.8805 20.6461 54.8706C20.6461 54.8607 20.353 54.8562 19.9948 54.8607L19.3436 54.8689L19.0973 55.4277C18.9619 55.7351 18.6655 56.4117 18.4388 56.9313C18.212 57.451 18.0225 57.8724 18.0178 57.8678C18.013 57.8632 17.8018 57.3701 17.5485 56.772C17.2952 56.1738 17.0084 55.4976 16.911 55.2691L16.734 54.8538H16.0337H15.3333L15.3822 54.9671ZM35.0526 57.0891V59.3245H35.7446H36.4366V57.0891V54.8538H35.7446H35.0526V57.0891ZM40.7856 54.9061C40.7942 54.9355 41.2222 55.8974 41.7367 57.0438C42.2511 58.1902 42.6927 59.1742 42.7179 59.2306C42.7751 59.3585 42.7537 59.4474 42.6176 59.6461C42.4639 59.8706 42.2408 59.9724 41.9468 59.9522C41.7327 59.9375 41.3838 59.8151 41.3088 59.7284C41.2891 59.7056 41.2607 59.687 41.2456 59.687C41.2306 59.687 41.1104 59.8936 40.9787 60.1462L40.7392 60.6055L40.8134 60.6642C41.0364 60.8405 41.5002 60.9814 41.9413 61.0067C42.7223 61.0515 43.332 60.7402 43.7268 60.0948C43.798 59.9785 44.0821 59.3736 44.3581 58.7505C44.6341 58.1275 45.1359 56.9956 45.4732 56.2352L46.0866 54.8526L45.4273 54.8607L44.768 54.8689L44.1273 56.3491C43.7749 57.1631 43.476 57.8269 43.4631 57.824C43.4502 57.8211 43.1531 57.155 42.803 56.3438L42.1663 54.8689L41.4681 54.8608C40.8129 54.8531 40.7708 54.8559 40.7856 54.9061ZM109.766 57.1064L110.774 59.3589L110.703 59.5059C110.617 59.6821 110.447 59.8481 110.287 59.9121C110.052 60.0061 109.629 59.94 109.365 59.7678C109.297 59.7238 109.233 59.6978 109.222 59.71C109.211 59.7223 109.098 59.9251 108.971 60.1608C108.702 60.6624 108.697 60.6344 109.083 60.8069C109.851 61.1509 110.777 61.0611 111.313 60.5903C111.666 60.2804 111.746 60.1391 112.387 58.6901C113.07 57.1474 113.347 56.5214 113.713 55.6996C113.894 55.2925 114.049 54.9354 114.059 54.906C114.075 54.8559 114.036 54.853 113.424 54.8607L112.772 54.8689L112.126 56.3581C111.77 57.1772 111.468 57.8363 111.454 57.8226C111.44 57.809 111.172 57.2 110.858 56.4693C110.545 55.7386 110.26 55.0762 110.224 54.9973L110.16 54.8538H109.459H108.758L109.766 57.1064ZM23.805 55.8798C24.0987 56.0144 24.324 56.2892 24.4064 56.6134L24.4275 56.6964H23.2754H22.1233L22.1431 56.6134C22.1795 56.4605 22.3028 56.2266 22.4072 56.1124C22.7222 55.7679 23.3374 55.6655 23.805 55.8798ZM68.5616 55.8049C68.8982 55.8891 69.1854 56.1334 69.3032 56.4357C69.4144 56.7213 69.516 56.6964 68.2379 56.6964C66.9552 56.6964 67.0484 56.7179 67.1578 56.4478C67.3705 55.9227 67.9576 55.6539 68.5616 55.8049ZM52.0737 55.947C52.5471 56.1558 52.7965 56.6167 52.7538 57.2039C52.7146 57.7438 52.4256 58.1269 51.9517 58.2674C51.6116 58.3683 51.2527 58.3316 50.958 58.1658C50.1978 57.7379 50.188 56.4802 50.9414 56.0156C51.2409 55.8309 51.7418 55.8005 52.0737 55.947ZM91.4511 55.8985C91.8437 56.0105 92.1222 56.2953 92.237 56.7024C92.2973 56.916 92.2661 57.4234 92.1795 57.6373C91.9177 58.2841 91.05 58.5284 90.4245 58.1315C90.2331 58.01 90.133 57.8915 90.0148 57.6464C89.935 57.481 89.928 57.4367 89.9272 57.0891C89.9264 56.7286 89.9308 56.7026 90.024 56.5138C90.186 56.1853 90.4068 55.9937 90.7375 55.8945C90.9208 55.8394 91.2506 55.8413 91.4511 55.8985ZM100.029 55.9731C100.279 56.0963 100.468 56.3 100.577 56.5652C100.679 56.8142 100.683 57.327 100.585 57.5775C100.441 57.9457 100.168 58.1916 99.8046 58.2813C99.3672 58.3894 98.9764 58.2961 98.6543 58.0067C98.376 57.7567 98.2303 57.2844 98.3038 56.8701C98.4229 56.199 98.8671 55.8367 99.5426 55.8598C99.7823 55.8679 99.8432 55.8822 100.029 55.9731ZM105.788 55.8937C106.138 55.9832 106.451 56.2463 106.565 56.548C106.654 56.7813 106.648 57.1365 106.551 57.3743C106.46 57.5992 106.238 57.8186 105.992 57.9281C105.758 58.032 105.272 58.0593 105.002 57.9838C104.483 57.839 104.163 57.3954 104.198 56.8707C104.23 56.3836 104.537 56.0285 105.041 55.8939C105.233 55.8424 105.587 55.8423 105.788 55.8937Z" fill="white"/>
</svg>
