<svg width="115" height="19" viewBox="0 0 115 19" fill="none" xmlns="http://www.w3.org/2000/svg">
<path fill-rule="evenodd" clip-rule="evenodd" d="M93.1235 0.141855C92.9541 0.188677 92.7804 0.309265 92.6869 0.445018C92.6087 0.558447 92.6001 0.597353 92.6001 0.834935C92.6001 1.07962 92.607 1.10817 92.6945 1.2267C92.8984 1.50307 93.3146 1.62103 93.703 1.51261C94.4197 1.31252 94.442 0.354334 93.7346 0.151641C93.5613 0.10201 93.2838 0.0975707 93.1235 0.141855ZM29.7052 3.56536V6.66223H30.3972H31.0892V6.07651V5.49079L31.4 5.2156C31.571 5.06423 31.7187 4.94041 31.7284 4.94041C31.7461 4.94041 32.0947 5.3502 32.8 6.20006L33.181 6.65924L34.0105 6.66072C34.67 6.66193 34.8337 6.6545 34.8089 6.62448C34.6755 6.46305 33.2965 4.77774 33.122 4.56281C33.0005 4.41329 32.8611 4.24588 32.8122 4.19078L32.7232 4.09064L33.6815 3.14862L34.6397 2.20663L33.8361 2.19856L33.0324 2.1905L32.5449 2.63657C32.2768 2.88192 31.8431 3.27619 31.5812 3.51274L31.105 3.9428L31.0892 2.21382L31.0735 0.484801L30.3893 0.476645L29.7052 0.468521V3.56536ZM50.277 1.54382V2.61914L50.1433 2.50885C49.9739 2.36908 49.6247 2.20841 49.3805 2.15787C49.0965 2.09912 48.5481 2.1138 48.2548 2.18805C47.8716 2.28502 47.532 2.47058 47.2544 2.73468C46.7489 3.21538 46.5358 3.7905 46.574 4.57037C46.5944 4.98566 46.6475 5.19793 46.8142 5.52945C47.1121 6.12212 47.6722 6.54035 48.3539 6.67909C48.604 6.73002 49.124 6.73537 49.3826 6.68966C49.6498 6.64245 49.9965 6.47909 50.1809 6.31343L50.3399 6.17064V6.41644V6.66223H51.0006H51.6613L51.6533 3.57352L51.6453 0.484801L50.9611 0.476645L50.277 0.468521V1.54382ZM112.558 3.56597V6.66223H113.235H113.911V3.56597V0.469698H113.235H112.558V3.56597ZM1.99307 0.786574C1.05988 0.95773 0.456948 1.41347 0.241385 2.11057C0.172498 2.33338 0.180676 2.79359 0.25771 3.02972C0.477205 3.70235 0.981151 3.9918 2.55926 4.3516C3.26811 4.51324 3.54624 4.6447 3.6635 4.87359C3.71581 4.97569 3.72534 5.03236 3.70836 5.14102C3.60141 5.82591 1.90594 5.86403 0.770966 5.20711C0.661062 5.14349 0.56116 5.09144 0.548955 5.09144C0.536719 5.09144 0.422064 5.317 0.294136 5.59268L0.0615234 6.09388L0.138683 6.15106C0.270827 6.24894 0.7062 6.44405 1.00676 6.54008C1.64467 6.74386 2.639 6.81587 3.29444 6.70579C4.21677 6.55086 4.84688 6.08246 5.05697 5.39557C5.08676 5.29812 5.10714 5.11948 5.10714 4.95551C5.10714 4.40141 4.90636 4.03176 4.44457 3.73561C4.15106 3.54739 3.82179 3.43447 2.97721 3.23236C1.94809 2.9861 1.70028 2.87591 1.61447 2.62627C1.51923 2.34909 1.70437 2.04701 2.05104 1.91407C2.20936 1.85338 2.2845 1.84574 2.73227 1.84498C3.32026 1.84399 3.55611 1.89187 4.09406 2.12132C4.27213 2.1973 4.42362 2.25387 4.4307 2.24705C4.44545 2.23288 4.8555 1.26546 4.8555 1.24479C4.8555 1.21585 4.32529 0.985793 4.1163 0.924049C3.66228 0.789898 3.49798 0.767878 2.85809 0.755493C2.39699 0.746551 2.16598 0.754856 1.99307 0.786574ZM55.7187 3.74721V6.66223H56.4265H57.1342V3.74721V0.832188H56.4265H55.7187V3.74721ZM64.715 1.73841V2.28215H64.3532H63.9915V2.78057V3.27899H64.3532H64.715L64.7154 4.35891C64.7159 5.53003 64.7312 5.67034 64.8909 5.97308C64.9977 6.17541 65.2403 6.41982 65.4358 6.52198C65.6838 6.65163 66.0296 6.72265 66.4128 6.72265C66.8342 6.72265 67.0638 6.6832 67.3356 6.56415C67.5243 6.4815 67.5478 6.46214 67.5322 6.40233C67.4941 6.25664 67.1923 5.54217 67.1731 5.55223C66.7646 5.76541 66.3458 5.73354 66.1681 5.47575L66.0833 5.35274L66.0739 4.31587L66.0645 3.27899H66.6479H67.2314V2.78057V2.28215H66.6495H66.0675V1.73841V1.19468H65.3912H64.715V1.73841ZM89.0928 1.73841V2.28215H88.7311H88.3693V2.78057V3.27899H88.7311H89.0928L89.0933 4.35891C89.0938 5.53003 89.109 5.67034 89.2688 5.97308C89.3755 6.17541 89.6182 6.41982 89.8136 6.52198C90.0616 6.65163 90.4075 6.72265 90.7906 6.72265C91.2121 6.72265 91.4417 6.6832 91.7135 6.56415C91.9022 6.4815 91.9257 6.46214 91.91 6.40233C91.8843 6.30397 91.5748 5.54456 91.5604 5.54456C91.5537 5.54456 91.4902 5.57362 91.4192 5.60917C91.339 5.64929 91.2105 5.67874 91.0801 5.68687C90.8023 5.70424 90.6231 5.62128 90.5176 5.42654C90.4465 5.2955 90.4454 5.27755 90.4454 4.2862V3.27899H91.0273H91.6092V2.78057V2.28215H91.0273H90.4454V1.73841V1.19468H89.7691H89.0928V1.73841ZM7.47718 2.13368C6.94945 2.18524 6.44469 2.33785 6.02756 2.57196L5.89425 2.64678L6.13001 3.09881C6.25967 3.34745 6.37253 3.55086 6.3808 3.55086C6.3891 3.55086 6.46746 3.50854 6.555 3.45683C7.09248 3.13925 7.94322 3.06053 8.39422 3.2867C8.60793 3.39387 8.78546 3.67245 8.78672 3.90263L8.78741 4.02784L7.93026 4.0414C7.11267 4.05436 7.0603 4.05871 6.7956 4.13571C6.44503 4.23769 6.30109 4.30841 6.12189 4.46679C5.88755 4.67389 5.78642 4.86344 5.73628 5.18968C5.62792 5.89433 6.12098 6.51603 6.91582 6.67701C7.17599 6.72969 7.74027 6.73636 7.9759 6.68951C8.24896 6.63523 8.56984 6.47153 8.73441 6.30258L8.88178 6.15131V6.40677V6.66223H9.52897H10.1761L10.1639 5.17452C10.1524 3.77156 10.1479 3.67362 10.085 3.45559C9.91421 2.86361 9.57411 2.49248 9.01471 2.28759C8.60777 2.13854 8.02481 2.08018 7.47718 2.13368ZM13.8665 2.13078C13.4726 2.18358 13.1388 2.32504 12.8687 2.55353L12.7193 2.67998V2.43575V2.19152H12.0745H11.4297V4.42688V6.66223H12.1041H12.7786L12.7887 5.34066C12.7984 4.04781 12.8002 4.01536 12.8702 3.8485C13.0253 3.47827 13.3152 3.27785 13.7288 3.25486C14.2763 3.22441 14.583 3.48477 14.6684 4.05255C14.6857 4.16707 14.7 4.80109 14.7004 5.46149L14.701 6.66223H15.3755H16.05L16.0597 5.32555L16.0693 3.98887L16.1662 3.79201C16.3432 3.43269 16.6491 3.24879 17.0701 3.24879C17.3255 3.24879 17.4795 3.29893 17.6396 3.4342C17.8006 3.57034 17.8972 3.76968 17.9401 4.05436C17.9571 4.16785 17.9714 4.80109 17.9717 5.46149L17.9724 6.66223H18.6509H19.3296L19.317 5.14431C19.3031 3.45958 19.3029 3.45761 19.0829 3.01142C18.9556 2.7532 18.6749 2.46448 18.4271 2.33673C18.1424 2.18998 17.8111 2.12066 17.4062 2.1231C16.7942 2.12679 16.3171 2.29384 15.9222 2.64255L15.7277 2.8144L15.5211 2.61304C15.3042 2.40171 14.9932 2.23261 14.701 2.16709C14.4899 2.11975 14.0813 2.10196 13.8665 2.13078ZM22.1716 2.11924C21.5231 2.1773 20.7892 2.39392 20.5212 2.6064L20.4436 2.66796L20.6752 3.10186C20.8026 3.3405 20.9089 3.53863 20.9115 3.54213C20.9141 3.54561 21.0519 3.48314 21.2178 3.40324C21.6085 3.21505 21.9373 3.14617 22.3632 3.16327C22.6133 3.17333 22.7091 3.19109 22.8479 3.25311C23.1397 3.38351 23.2886 3.57702 23.336 3.8875L23.3574 4.02778L22.4971 4.04164C21.759 4.05357 21.6034 4.0643 21.4009 4.11722C20.8811 4.2531 20.5377 4.49458 20.3704 4.84169C20.2949 4.99835 20.2864 5.051 20.2861 5.36331C20.2857 5.69034 20.2915 5.7226 20.3849 5.91375C20.5177 6.1858 20.7388 6.39415 21.0409 6.53189C21.3517 6.67365 21.5918 6.72029 22.0172 6.72159C22.6125 6.7234 22.9896 6.59602 23.2953 6.28984L23.4456 6.13928V6.40076V6.66223H24.0765H24.7075L24.6962 5.14431C24.6837 3.4642 24.6848 3.47516 24.4691 3.05244C24.239 2.60156 23.7929 2.3023 23.165 2.17766C22.9442 2.1338 22.3798 2.10063 22.1716 2.11924ZM28.5354 2.13241C28.084 2.18295 27.6953 2.34268 27.4332 2.58525C27.3441 2.66775 27.2667 2.73526 27.2614 2.73526C27.2561 2.73526 27.2517 2.61292 27.2517 2.46339V2.19152H26.6068H25.962V4.42688V6.66223H26.6361H27.3102L27.3221 5.44638C27.3325 4.38909 27.3412 4.20887 27.3894 4.06439C27.5563 3.56437 27.9571 3.3092 28.5756 3.3092H28.8559V2.70505C28.8559 2.1483 28.8516 2.1012 28.8009 2.10486C28.7706 2.10706 28.6511 2.11945 28.5354 2.13241ZM36.8374 2.13621C36.4353 2.17591 35.9886 2.2936 35.666 2.44484C35.2151 2.65624 35.2315 2.59482 35.4952 3.08394C35.6201 3.31585 35.7326 3.51661 35.745 3.53014C35.7574 3.54367 35.836 3.51304 35.9197 3.46208C36.265 3.25178 36.7165 3.14518 37.1719 3.1665C37.5513 3.18423 37.6801 3.21855 37.8592 3.34959C38.0296 3.47423 38.1348 3.65619 38.1573 3.86493L38.1749 4.02829L37.3293 4.04125C36.3882 4.05569 36.2126 4.08125 35.8232 4.26028C35.2942 4.50349 35.0209 5.00411 35.1116 5.5638C35.2001 6.10953 35.6084 6.50902 36.2348 6.6629C36.5111 6.73074 37.0284 6.74358 37.3352 6.69014C37.6246 6.63976 37.9473 6.47728 38.1162 6.29685L38.261 6.14218V6.40221V6.66223H38.9086H39.5562L39.5422 5.17452C39.529 3.77319 39.5243 3.67302 39.4611 3.44982C39.3669 3.11739 39.2229 2.87153 38.9952 2.65418C38.6802 2.35353 38.2715 2.19367 37.6594 2.13177C37.3232 2.09776 37.2216 2.09833 36.8374 2.13621ZM43.2939 2.13217C42.9176 2.1821 42.6007 2.30743 42.3024 2.52429L42.0986 2.67243V2.43198V2.19152H41.4538H40.8089V4.42688V6.66223H41.4837H42.1584L42.1679 5.35576C42.1771 4.07605 42.1788 4.04578 42.2491 3.87871C42.409 3.49854 42.733 3.27921 43.1706 3.25489C43.708 3.22498 44.0206 3.41499 44.1563 3.85402C44.1984 3.99008 44.2061 4.21954 44.2061 5.3386V6.66223H44.8981H45.5901L45.5894 5.34066C45.5887 3.93114 45.5629 3.57403 45.4372 3.23574C45.2411 2.70774 44.827 2.33688 44.2763 2.19609C43.9851 2.12165 43.5745 2.09492 43.2939 2.13217ZM61.0032 2.13208C60.6027 2.18446 60.2462 2.33024 59.9573 2.55972L59.8079 2.67844V2.435V2.19152H59.1474H58.4868V4.42688V6.66223H59.1788H59.8708L59.8712 5.41618C59.8716 4.07499 59.881 3.98014 60.0384 3.72413C60.1466 3.54829 60.2977 3.41587 60.4842 3.3334C60.6167 3.27486 60.6936 3.26389 60.9718 3.26389C61.2496 3.26389 61.3221 3.27419 61.4283 3.32881C61.608 3.42127 61.7238 3.54114 61.8179 3.73211L61.8997 3.89825L61.9093 5.28024L61.9189 6.66223H62.5951H63.2712L63.2604 5.1141C63.2511 3.76811 63.2427 3.54334 63.1964 3.3926C62.9976 2.74535 62.5445 2.31713 61.9123 2.17896C61.6407 2.11963 61.2519 2.09957 61.0032 2.13208ZM70.0279 2.13066C69.146 2.2359 68.4382 2.70599 68.0944 3.41493C67.9602 3.69181 67.896 3.938 67.8726 4.26563C67.7914 5.40328 68.4934 6.32627 69.6731 6.63327C69.9906 6.71588 70.6963 6.74648 71.0728 6.69395C71.5601 6.62599 72.055 6.40281 72.3384 6.12327L72.4597 6.00356L72.1072 5.63814C71.9133 5.43714 71.7475 5.27269 71.7388 5.27269C71.73 5.27269 71.6698 5.31302 71.605 5.36232C71.23 5.64751 70.7139 5.7535 70.2047 5.64992C69.9166 5.59129 69.6803 5.47357 69.524 5.31072C69.4048 5.18651 69.2455 4.91062 69.2448 4.82713C69.2446 4.79737 69.617 4.78937 71.0029 4.78937H72.7613L72.7833 4.60767C72.8261 4.25358 72.7306 3.73591 72.5544 3.36681C72.2772 2.78616 71.7184 2.3551 71.0375 2.19669C70.7202 2.12286 70.3152 2.0964 70.0279 2.13066ZM76.2804 2.1328C75.821 2.18406 75.4766 2.3332 75.1817 2.60857L75.0323 2.7481V2.4698V2.19152H74.3875H73.7426V4.42688V6.66223H74.417H75.0914L75.1016 5.40107C75.1116 4.17184 75.1136 4.13559 75.1832 3.96933C75.284 3.72851 75.4662 3.54237 75.7175 3.4236C75.9102 3.33246 75.9565 3.32343 76.282 3.31349L76.6365 3.30268V2.70179V2.1009L76.5657 2.10486C76.5268 2.10706 76.3984 2.11963 76.2804 2.1328ZM80.0083 2.13169C79.5906 2.18715 79.2362 2.32652 78.939 2.55214L78.7755 2.67626V2.43388V2.19152H78.1306H77.4858V4.42688V6.66223H78.1602H78.8347L78.8456 5.37086C78.8556 4.2005 78.8621 4.06533 78.9153 3.92846C79.102 3.44795 79.4646 3.2268 80.0199 3.2548C80.3365 3.27075 80.5358 3.35805 80.6853 3.5463C80.8872 3.80053 80.8929 3.84578 80.9069 5.32555L80.9195 6.66223H81.5956H82.2717L82.2595 5.15941C82.2479 3.72945 82.244 3.64508 82.179 3.41934C81.9959 2.78365 81.5627 2.3515 80.9532 2.19639C80.6607 2.12193 80.2787 2.09577 80.0083 2.13169ZM84.9857 2.1328C84.6761 2.16165 84.2713 2.25176 83.9829 2.356C83.7615 2.43602 83.4459 2.59688 83.4145 2.64567C83.3972 2.67249 83.7594 3.38572 83.851 3.50516C83.8942 3.56156 83.9005 3.56213 83.9554 3.51443C83.9875 3.48652 84.1056 3.42245 84.2178 3.37203C84.9413 3.04691 85.8464 3.09862 86.1289 3.48123C86.2075 3.58768 86.2933 3.82784 86.2933 3.94145V4.02784L85.4361 4.04249C84.694 4.05518 84.5459 4.06572 84.3322 4.12094C83.8334 4.24989 83.5237 4.46428 83.3532 4.79855C83.0949 5.30507 83.2012 5.89895 83.6186 6.28129C83.9483 6.5833 84.3655 6.72265 84.94 6.72265C85.5547 6.72265 85.9218 6.60406 86.2225 6.30838L86.3877 6.14602V6.40411V6.66223H87.0186H87.6495L87.6398 5.1141L87.6301 3.56597L87.5424 3.32431C87.2788 2.5989 86.709 2.21772 85.7586 2.13108C85.3967 2.09806 85.3573 2.09815 84.9857 2.1328ZM97.3813 2.11854C96.8164 2.18965 96.4368 2.30903 96.0983 2.52209C95.8367 2.68678 95.5091 3.01151 95.3581 3.25589C95.0631 3.73313 94.9665 4.44543 95.1183 5.02305C95.1435 5.11881 95.23 5.32628 95.3107 5.48405C95.4326 5.72272 95.503 5.81485 95.729 6.03196C95.965 6.2586 96.0441 6.31288 96.3293 6.44435C96.8217 6.67124 97.0002 6.70764 97.6172 6.70706C98.1999 6.70649 98.4068 6.66933 98.8075 6.49325C99.4198 6.22417 99.8234 5.80096 100.05 5.18995C100.146 4.93346 100.149 4.90993 100.148 4.42688C100.147 3.96806 100.14 3.90924 100.062 3.6868C99.789 2.90361 99.1275 2.35301 98.2488 2.17736C98.0251 2.13265 97.5339 2.09933 97.3813 2.11854ZM103.627 2.13214C103.201 2.18851 102.778 2.36497 102.538 2.58618C102.486 2.63494 102.433 2.67484 102.42 2.67484C102.408 2.67484 102.398 2.5661 102.398 2.43318V2.19152H101.754H101.109V4.42688V6.66223H101.801H102.493V5.39415C102.493 4.17296 102.495 4.11867 102.561 3.92565C102.61 3.78189 102.673 3.6803 102.781 3.56648C102.982 3.35469 103.181 3.27253 103.531 3.2558C103.883 3.23891 104.102 3.31277 104.282 3.50902C104.519 3.76739 104.518 3.75887 104.53 5.29535L104.541 6.66223H105.217H105.893L105.882 5.1292C105.871 3.42589 105.874 3.45121 105.65 3.0103C105.438 2.5935 105.026 2.28647 104.535 2.17923C104.263 2.11966 103.874 2.09948 103.627 2.13214ZM108.768 2.11912C108.095 2.18005 107.494 2.35507 107.094 2.60663L107.024 2.65065L107.261 3.10074C107.391 3.34832 107.506 3.55086 107.517 3.55086C107.527 3.55086 107.601 3.51063 107.681 3.46145C108.021 3.25169 108.506 3.14058 108.977 3.16463C109.563 3.1945 109.838 3.41143 109.933 3.9177L109.953 4.02778L109.093 4.04164C108.34 4.05382 108.202 4.06361 107.982 4.12082C107.469 4.25373 107.162 4.46694 106.985 4.81091C106.897 4.98212 106.881 5.04913 106.87 5.29278C106.86 5.52489 106.87 5.61286 106.927 5.78199C107.056 6.16855 107.38 6.46634 107.842 6.62266C108.037 6.68888 108.146 6.70416 108.501 6.71534C109.161 6.73615 109.56 6.61421 109.869 6.29703L110.011 6.15131V6.40677V6.66223H110.658H111.304L111.292 5.15941C111.281 3.86943 111.272 3.62916 111.226 3.4629C111.032 2.75801 110.526 2.31915 109.743 2.17621C109.503 2.13235 108.968 2.10102 108.768 2.11912ZM92.7416 4.42688V6.66223H93.4179H94.0942V4.42688V2.19152H93.4179H92.7416V4.42688ZM70.684 3.1408C71.0931 3.24538 71.3947 3.54832 71.4907 3.95111L71.5105 4.03418H70.3584H69.2062L69.2273 3.95111C69.3862 3.32597 70.0229 2.97179 70.684 3.1408ZM49.6164 3.28353C50.1005 3.49743 50.3319 3.91468 50.3016 4.51922C50.2861 4.82776 50.2068 5.05166 50.0371 5.26532C49.8378 5.51619 49.3947 5.6881 49.0312 5.65551C48.5151 5.6092 48.1371 5.31093 47.9956 4.83831C47.9218 4.59184 47.9437 4.11571 48.0396 3.87871C48.1633 3.57316 48.4581 3.31963 48.7963 3.22795C49.0238 3.16629 49.4103 3.19248 49.6164 3.28353ZM97.9654 3.23574C98.4154 3.36046 98.6956 3.69359 98.7843 4.2093C98.8829 4.78251 98.6012 5.34917 98.1121 5.56141C97.9455 5.63373 97.8735 5.64681 97.6329 5.64841C97.1918 5.65134 96.8777 5.50665 96.659 5.19983C96.5098 4.99046 96.4509 4.81831 96.431 4.53261C96.3854 3.88012 96.736 3.34757 97.2943 3.22124C97.4844 3.17822 97.781 3.18463 97.9654 3.23574ZM8.7826 5.0712C8.77273 5.32631 8.76316 5.3638 8.68194 5.46599C8.46503 5.73891 8.15428 5.86195 7.73523 5.8408C7.28668 5.81821 7.05737 5.63551 7.05737 5.30075C7.05737 5.1566 7.07168 5.10993 7.13975 5.03227C7.31521 4.83202 7.47425 4.79713 8.23213 4.79269L8.79349 4.78937L8.7826 5.0712ZM23.3512 5.01714C23.3512 5.28964 23.295 5.41488 23.0918 5.5947C22.7339 5.91149 22.0336 5.93864 21.7305 5.6475C21.5363 5.46106 21.5502 5.10915 21.7577 4.95717C21.9338 4.82816 22.1466 4.79354 22.7772 4.79136L23.3512 4.78937V5.01714ZM38.1667 5.04021C38.1667 5.26613 38.1575 5.30504 38.0738 5.43167C37.8928 5.70586 37.5878 5.84663 37.1748 5.84663C36.9195 5.84663 36.7811 5.81045 36.6332 5.70496C36.4929 5.60491 36.4366 5.48665 36.4366 5.2916C36.4366 5.15733 36.4521 5.10863 36.519 5.03227C36.6943 4.8322 36.8537 4.79716 37.6083 4.79269L38.1667 4.78937V5.04021ZM86.2933 5.04097C86.2933 5.28314 86.2888 5.29873 86.1743 5.45632C86.0804 5.58549 86.0097 5.6424 85.8394 5.7258C85.6543 5.81645 85.5863 5.83304 85.3626 5.8421C85.0259 5.85575 84.8287 5.79633 84.6776 5.63572C84.5375 5.48683 84.5037 5.31105 84.58 5.12794C84.6916 4.86009 84.9149 4.79414 85.7192 4.79136L86.2933 4.78937V5.04097ZM109.948 5.02511C109.948 5.23321 109.937 5.27662 109.858 5.39515C109.736 5.57682 109.616 5.67898 109.429 5.76193C109.296 5.82056 109.219 5.83153 108.941 5.83153C108.647 5.83153 108.596 5.82331 108.472 5.75601C108.276 5.64932 108.208 5.54866 108.193 5.34105C108.183 5.19584 108.193 5.14968 108.254 5.06287C108.414 4.83746 108.58 4.79725 109.374 4.79269L109.948 4.78937V5.02511ZM13.7329 10.1485C13.5471 10.2067 13.3969 10.324 13.2955 10.4902C13.2254 10.605 13.2097 10.6675 13.2097 10.8309C13.2097 10.9942 13.2254 11.0567 13.2955 11.1715C13.4946 11.4978 13.9137 11.634 14.3414 11.5114C14.6804 11.4143 14.8708 11.1643 14.8728 10.8135C14.8739 10.6275 14.8618 10.5811 14.7797 10.4542C14.6405 10.2396 14.4198 10.1286 14.1069 10.116C13.9603 10.1101 13.8153 10.1227 13.7329 10.1485ZM35.4613 10.1323C35.1193 10.2399 34.8957 10.516 34.8957 10.8309C34.8957 11.1333 35.1221 11.4212 35.4279 11.5076C35.9386 11.6518 36.4218 11.4444 36.5483 11.0266C36.6039 10.8426 36.591 10.6384 36.5149 10.499C36.459 10.3966 36.2881 10.2455 36.1535 10.1795C36.032 10.1198 35.5956 10.0901 35.4613 10.1323ZM56.741 10.4269C56.7064 10.4334 56.6003 10.4535 56.5051 10.4715C56.2271 10.524 55.9133 10.6849 55.7134 10.8775C55.4114 11.1684 55.2486 11.582 55.2474 12.0618L55.2469 12.2808H54.8852H54.5234V12.7793V13.2777H54.8852H55.2469V14.9693V16.6609H55.9232H56.5995V14.9693V13.2777H57.1814H57.7633V12.7793V12.2808H57.1657H56.568V12.1202C56.568 11.8066 56.671 11.6012 56.8826 11.493C57.0085 11.4285 57.4051 11.4435 57.5815 11.5193C57.6632 11.5544 57.7359 11.5736 57.7432 11.562C57.7504 11.5503 57.8302 11.3456 57.9205 11.1071C58.1079 10.6121 58.1105 10.6275 57.8223 10.5302C57.5204 10.4283 56.9976 10.3784 56.741 10.4269ZM76.7309 13.564V16.6609H77.4214H78.1118L78.1212 15.3393L78.1306 14.0178L78.2212 13.8294C78.3308 13.6016 78.5435 13.4009 78.7606 13.3205C78.9795 13.2395 79.4983 13.2386 79.6562 13.3189C79.8364 13.4106 79.9981 13.5815 80.0732 13.7598C80.1422 13.9233 80.144 13.9581 80.1531 15.294L80.1625 16.6609H80.8373H81.5121V15.2097C81.5121 13.5677 81.5013 13.4617 81.2924 13.0495C81.1414 12.7516 80.9788 12.5696 80.7192 12.4083C80.0335 11.9821 78.9345 12.0208 78.2818 12.4941L78.1157 12.6145L78.1075 11.549L78.0992 10.4835L77.415 10.4753L76.7309 10.4672V13.564ZM94.5975 13.5646V16.6609H95.2738H95.9501V13.5646V10.4684H95.2738H94.5975V13.5646ZM0.492178 12.7415C0.506145 14.773 0.505799 14.7682 0.666472 15.2124C0.873826 15.7857 1.27545 16.227 1.82006 16.4802C2.45732 16.7765 3.37811 16.8478 4.15159 16.661C4.94694 16.4688 5.54985 15.9453 5.81495 15.2166C5.97827 14.7677 5.98789 14.625 5.98789 12.6545V10.8309H5.29764H4.60738L4.59625 12.6811C4.58643 14.312 4.57879 14.552 4.53173 14.7059C4.41305 15.094 4.1933 15.3591 3.87202 15.5016C3.68647 15.5839 3.65309 15.5885 3.25128 15.5883C2.84249 15.588 2.81899 15.5845 2.62217 15.495C2.38673 15.3878 2.17765 15.1873 2.07976 14.9748C1.916 14.6193 1.91877 14.6561 1.90679 12.6811L1.89559 10.8309H1.18731H0.47903L0.492178 12.7415ZM60.5629 11.3742V11.9175L61.5301 11.9255L62.4974 11.9334L62.5054 14.2972L62.5135 16.6609H63.221H63.9286V14.2896V11.9183H64.9037H65.8788V11.3746V10.8309H63.2208H60.5629V11.3742ZM37.8836 11.7371V12.2808H37.5218H37.1601V12.7793V13.2777H37.5218H37.8836L37.8841 14.3274C37.8847 15.4658 37.9028 15.636 38.0558 15.9467C38.2313 16.3029 38.5881 16.5636 39.0494 16.6725C39.3138 16.735 39.9043 16.7365 40.1743 16.6754C40.4215 16.6194 40.7146 16.4888 40.7146 16.4346C40.7146 16.3623 40.3751 15.5581 40.3478 15.5657C40.3332 15.5697 40.2435 15.5998 40.1484 15.6327C39.8423 15.7382 39.5675 15.7025 39.4041 15.536C39.2439 15.3727 39.2362 15.3134 39.2362 14.2549V13.2777H39.8181H40.4V12.7793V12.2808H39.8181H39.2362V11.7371V11.1934H38.5599H37.8836V11.7371ZM9.84846 12.1301C9.43476 12.1787 9.07699 12.3221 8.77955 12.5584L8.63014 12.6771V12.4337V12.1902H7.9853H7.34047V14.4256V16.6609H8.0155H8.69053L8.69965 15.3544C8.70859 14.0741 8.71022 14.0446 8.78059 13.8774C8.87703 13.6484 9.06469 13.4507 9.28397 13.3473C9.44628 13.2708 9.49576 13.2626 9.79398 13.2626C10.1049 13.2626 10.1344 13.268 10.2973 13.356C10.4976 13.4642 10.6502 13.6744 10.7043 13.9167C10.7249 14.0088 10.7376 14.5633 10.7376 15.3635V16.6609H11.4155H12.0934L12.0832 15.0977C12.0733 13.5591 12.072 13.5311 12.0005 13.323C11.7934 12.7199 11.3641 12.3265 10.7534 12.1801C10.5053 12.1206 10.1135 12.0989 9.84846 12.1301ZM22.9423 12.1293C22.0655 12.2352 21.3729 12.6881 21.0247 13.3834C20.5039 14.4234 20.8289 15.6771 21.776 16.2817C22.301 16.6169 22.7975 16.7366 23.5675 16.7137C23.9815 16.7015 24.1036 16.6863 24.3421 16.6178C24.6942 16.5165 24.9661 16.3727 25.199 16.1645L25.3788 16.0038L25.022 15.6376C24.8258 15.4362 24.6583 15.2714 24.6497 15.2714C24.6412 15.2714 24.5805 15.3122 24.5148 15.3622C23.9069 15.8246 22.8412 15.7774 22.3937 15.2684C22.3015 15.1634 22.1568 14.8938 22.1562 14.8258C22.156 14.7961 22.5285 14.7881 23.9149 14.7881H25.6739L25.696 14.5899C25.7239 14.3396 25.6691 13.9201 25.5687 13.6164C25.3288 12.89 24.6952 12.3482 23.886 12.1774C23.6147 12.1202 23.195 12.0988 22.9423 12.1293ZM29.1805 12.1322C28.7428 12.1821 28.3983 12.3302 28.1088 12.5929L27.9437 12.7427V12.4665V12.1902H27.2989H26.654V14.4256V16.6609H27.3303H28.0066V15.4796C28.0066 14.5036 28.0152 14.2661 28.0561 14.1127C28.149 13.7645 28.3338 13.5495 28.6657 13.4033C28.8106 13.3395 28.9002 13.3243 29.1947 13.3134L29.5492 13.3002L29.5407 12.7074C29.5309 12.0268 29.5691 12.0878 29.1805 12.1322ZM31.8026 12.1309C31.0351 12.214 30.4589 12.5306 30.2073 13.0073C30.1181 13.1762 30.1025 13.2406 30.0896 13.4911C30.0656 13.9589 30.2022 14.2749 30.5273 14.5041C30.8205 14.7108 31.1941 14.815 32.143 14.9546C32.6753 15.033 32.8822 15.14 32.8822 15.3371C32.8822 15.475 32.8163 15.5694 32.6741 15.6355C32.2238 15.8449 31.2469 15.739 30.5983 15.4104L30.4062 15.3131L30.1894 15.764C30.0701 16.012 29.9682 16.226 29.9628 16.2395C29.9477 16.2775 30.382 16.466 30.6803 16.5509C31.1624 16.6882 31.5396 16.7307 32.1222 16.7134C32.5136 16.7017 32.7099 16.6817 32.8979 16.6341C33.7949 16.4069 34.2899 15.8148 34.1725 15.1092C34.0675 14.4781 33.6669 14.19 32.6529 14.0164C31.8588 13.8805 31.71 13.8488 31.5894 13.7897C31.3455 13.6702 31.3001 13.4699 31.4782 13.2989C31.6313 13.1518 31.8141 13.1109 32.3003 13.1149C32.6454 13.1178 32.7524 13.1308 32.9862 13.1984C33.1386 13.2424 33.3346 13.3131 33.4219 13.3556C33.5091 13.3981 33.5839 13.4285 33.588 13.4232C33.615 13.3891 34.0146 12.5406 34.0146 12.5173C34.0146 12.4809 33.6762 12.3337 33.4484 12.2709C32.9907 12.1448 32.2533 12.0821 31.8026 12.1309ZM51.2167 12.1294C50.198 12.251 49.4381 12.8159 49.1237 13.6855C49.0425 13.91 49.0363 13.9614 49.0354 14.4105C49.0344 14.9508 49.0634 15.0872 49.2617 15.4745C49.545 16.0275 50.0548 16.4224 50.7395 16.619C51.114 16.7266 51.7745 16.7536 52.1674 16.6774C52.6699 16.58 53.0732 16.3841 53.422 16.0681C53.8172 15.7101 54.0489 15.2603 54.1212 14.7109C54.2605 13.6517 53.6677 12.6842 52.6434 12.2987C52.2402 12.1469 51.6532 12.0773 51.2167 12.1294ZM67.8919 12.129C66.9104 12.2468 66.1365 12.8425 65.8501 13.7006C65.7046 14.1367 65.7115 14.7293 65.8674 15.1823C66.1111 15.8903 66.6697 16.3802 67.5054 16.6185C67.7287 16.6822 67.8711 16.7005 68.246 16.7135C68.9241 16.737 69.3676 16.6524 69.8079 16.4156C70.0061 16.3091 70.314 16.0686 70.314 16.0203C70.314 16.0029 70.262 15.9326 70.1985 15.8641C69.965 15.6125 69.6257 15.2714 69.609 15.2714C69.5995 15.2714 69.5172 15.3259 69.426 15.3924C68.8603 15.8056 67.8779 15.7731 67.4122 15.3257C67.2856 15.2042 67.1725 15.021 67.1221 14.856L67.1013 14.7881H68.8616C70.4377 14.7881 70.6238 14.7831 70.6409 14.7403C70.6761 14.6522 70.6605 14.1613 70.6152 13.9342C70.5906 13.8106 70.5295 13.6081 70.4794 13.4843C70.2248 12.8545 69.6454 12.3726 68.9295 12.1951C68.6474 12.1252 68.175 12.0951 67.8919 12.129ZM73.5067 12.129C72.8365 12.2034 72.3119 12.4456 71.8796 12.8802C71.6181 13.1431 71.4271 13.4697 71.3291 13.8214C71.2527 14.0956 71.2539 14.7581 71.3312 15.0297C71.5081 15.6507 71.947 16.1578 72.5691 16.46C72.9075 16.6244 73.2478 16.6975 73.7504 16.7137C74.1534 16.7268 74.2538 16.72 74.5149 16.6621C74.9576 16.5639 75.2748 16.4002 75.5652 16.1199C75.7755 15.9171 75.9832 15.628 75.9431 15.5938C75.9061 15.5621 74.9397 15.0599 74.9157 15.0599C74.9008 15.0599 74.8654 15.0973 74.8371 15.143C74.587 15.5462 74.0346 15.7503 73.5382 15.623C72.9665 15.4764 72.6424 15.0431 72.6424 14.4256C72.6424 13.8393 72.9441 13.3979 73.4465 13.2489C73.9772 13.0914 74.4853 13.2423 74.7852 13.6463C74.8433 13.7244 74.8996 13.789 74.9105 13.7898C74.9214 13.7906 75.0417 13.7322 75.1779 13.6602C75.3141 13.5881 75.5423 13.4703 75.685 13.3983C75.8277 13.3263 75.9445 13.2514 75.9445 13.2319C75.9445 13.1552 75.693 12.8303 75.4997 12.6573C75.253 12.4365 74.9261 12.275 74.5605 12.1932C74.2408 12.1217 73.8091 12.0954 73.5067 12.129ZM85.2989 12.1299C84.8807 12.1855 84.5504 12.3151 84.2723 12.5327L84.0914 12.6742V12.4322V12.1902H83.4309H82.7703V14.4256V16.6609H83.4608H84.1513L84.1607 15.3393L84.1701 14.0178L84.2607 13.8294C84.3702 13.6016 84.5829 13.4009 84.8 13.3205C85.0189 13.2395 85.5377 13.2386 85.6956 13.3189C85.8758 13.4106 86.0375 13.5815 86.1126 13.7598C86.1816 13.9233 86.1834 13.9581 86.1925 15.294L86.2019 16.6609H86.8785H87.5552L87.5433 15.1128C87.5328 13.7423 87.5251 13.5438 87.4758 13.3834C87.2846 12.7603 86.8317 12.3281 86.2147 12.1797C85.9698 12.1208 85.5421 12.0976 85.2989 12.1299ZM90.7442 12.1289C89.3723 12.2793 88.4639 13.2734 88.5365 14.545C88.5705 15.1401 88.7578 15.5724 89.157 15.9765C89.5224 16.3466 89.9532 16.5704 90.5065 16.6777C90.9065 16.7552 91.5917 16.7254 91.9552 16.6147C92.759 16.3699 93.274 15.9002 93.5349 15.1743C93.6305 14.9082 93.6358 14.8705 93.6369 14.4407C93.6383 13.9232 93.6013 13.7496 93.4115 13.3808C93.1117 12.7986 92.5489 12.3756 91.8474 12.2053C91.5191 12.1257 91.0625 12.094 90.7442 12.1289ZM99.1231 12.1292C98.0892 12.2534 97.3336 12.8178 97.0191 13.7008C96.9117 14.0024 96.894 14.6555 96.9839 15.0012C97.1913 15.7986 97.7764 16.3695 98.6407 16.6175C99.0207 16.7266 99.6783 16.7541 100.074 16.6774C100.612 16.573 101.008 16.3716 101.377 16.0143C101.886 15.5211 102.118 14.8389 102.022 14.1137C101.913 13.2825 101.358 12.6029 100.537 12.2937C100.153 12.1492 99.5453 12.0786 99.1231 12.1292ZM104.812 12.1297C103.584 12.2762 102.746 13.2289 102.817 14.3954C102.84 14.7578 102.9 14.9779 103.065 15.3012C103.168 15.5032 103.249 15.6091 103.45 15.8006C103.87 16.2028 104.365 16.4054 105.009 16.4395C105.58 16.4697 106.106 16.3251 106.456 16.0421L106.598 15.9277L106.607 16.1161C106.637 16.7053 106.337 17.1086 105.764 17.251C105.512 17.3137 104.843 17.2977 104.556 17.222C104.272 17.1468 103.92 17.0038 103.762 16.8994C103.682 16.8469 103.608 16.8168 103.592 16.8313C103.578 16.8456 103.452 17.0544 103.313 17.2953L103.06 17.7333L103.13 17.7871C103.264 17.8893 103.768 18.1083 104.046 18.185C104.622 18.3441 105.415 18.3938 105.984 18.3065C106.852 18.1735 107.392 17.8336 107.693 17.2314C107.975 16.6671 107.997 16.4297 107.997 14.0404L107.997 12.1902H107.337H106.676V12.4494V12.7086L106.5 12.5577C106.099 12.2145 105.46 12.0524 104.812 12.1297ZM13.3799 14.4256V16.6609H14.0562H14.7325V14.4256V12.1902H14.0562H13.3799V14.4256ZM15.3822 12.3035C15.479 12.5278 16.2233 14.2343 16.321 14.4558C16.3759 14.5804 16.5987 15.0901 16.8162 15.5885C17.0337 16.087 17.2295 16.5324 17.2513 16.5784L17.291 16.662L17.9956 16.6539L18.7002 16.6458L19.3436 15.1807C19.6975 14.375 20.1354 13.3803 20.3166 12.9704C20.4978 12.5605 20.6461 12.2169 20.6461 12.207C20.6461 12.1971 20.353 12.1927 19.9948 12.1972L19.3436 12.2053L19.0973 12.7641C18.9619 13.0715 18.6655 13.7481 18.4388 14.2678C18.212 14.7874 18.0225 15.2088 18.0178 15.2042C18.013 15.1996 17.8018 14.7065 17.5485 14.1084C17.2952 13.5103 17.0084 12.834 16.911 12.6056L16.734 12.1902H16.0337H15.3333L15.3822 12.3035ZM35.0526 14.4256V16.6609H35.7446H36.4366V14.4256V12.1902H35.7446H35.0526V14.4256ZM40.7856 12.2425C40.7942 12.2719 41.2222 13.2339 41.7367 14.3802C42.2511 15.5266 42.6926 16.5107 42.7179 16.567C42.7751 16.695 42.7537 16.7838 42.6176 16.9826C42.4639 17.207 42.2408 17.3088 41.9468 17.2886C41.7327 17.2739 41.3838 17.1515 41.3088 17.0648C41.2891 17.042 41.2607 17.0234 41.2456 17.0234C41.2306 17.0234 41.1104 17.2301 40.9787 17.4826L40.7392 17.9419L40.8134 18.0006C41.0364 18.177 41.5002 18.3179 41.9413 18.3431C42.7223 18.3879 43.332 18.0766 43.7268 17.4312C43.798 17.3149 44.0821 16.71 44.3581 16.087C44.6341 15.4639 45.1359 14.332 45.4732 13.5716L46.0866 12.189L45.4273 12.1972L44.768 12.2053L44.1273 13.6855C43.7749 14.4996 43.476 15.1633 43.4631 15.1604C43.4502 15.1575 43.1531 14.4914 42.803 13.6802L42.1663 12.2053L41.4681 12.1972C40.8129 12.1895 40.7708 12.1923 40.7856 12.2425ZM109.766 14.4428L110.774 16.6953L110.703 16.8423C110.617 17.0185 110.447 17.1845 110.287 17.2485C110.052 17.3426 109.629 17.2764 109.365 17.1042C109.297 17.0602 109.233 17.0342 109.222 17.0465C109.211 17.0587 109.098 17.2615 108.971 17.4972C108.702 17.9988 108.697 17.9708 109.083 18.1433C109.851 18.4874 110.777 18.3975 111.313 17.9268C111.666 17.6168 111.746 17.4755 112.387 16.0266C113.07 14.4838 113.347 13.8579 113.713 13.036C113.894 12.629 114.049 12.2719 114.059 12.2424C114.075 12.1923 114.036 12.1895 113.424 12.1971L112.772 12.2053L112.126 13.6946C111.77 14.5136 111.468 15.1727 111.454 15.1591C111.44 15.1454 111.172 14.5365 110.858 13.8057C110.545 13.075 110.26 12.4126 110.224 12.3337L110.16 12.1902H109.459H108.758L109.766 14.4428ZM23.805 13.2162C24.0987 13.3508 24.324 13.6256 24.4064 13.9498L24.4275 14.0329H23.2754H22.1233L22.1431 13.9498C22.1795 13.7969 22.3028 13.563 22.4072 13.4488C22.7222 13.1043 23.3374 13.0019 23.805 13.2162ZM68.5616 13.1414C68.8982 13.2255 69.1854 13.4699 69.3032 13.7721C69.4144 14.0577 69.516 14.0329 68.2379 14.0329C66.9552 14.0329 67.0484 14.0543 67.1578 13.7843C67.3705 13.2592 67.9576 12.9903 68.5616 13.1414ZM52.0737 13.2834C52.5471 13.4922 52.7965 13.9531 52.7538 14.5403C52.7146 15.0802 52.4256 15.4633 51.9517 15.6039C51.6115 15.7048 51.2527 15.6681 50.958 15.5022C50.1978 15.0743 50.188 13.8166 50.9414 13.352C51.2409 13.1674 51.7418 13.137 52.0737 13.2834ZM91.4511 13.2349C91.8437 13.3469 92.1222 13.6318 92.237 14.0388C92.2973 14.2525 92.2661 14.7598 92.1795 14.9737C91.9177 15.6205 91.05 15.8649 90.4245 15.4679C90.2331 15.3464 90.133 15.2279 90.0148 14.9829C89.935 14.8174 89.928 14.7731 89.9272 14.4256C89.9264 14.065 89.9308 14.039 90.024 13.8502C90.1861 13.5218 90.4068 13.3301 90.7375 13.2309C90.9208 13.1758 91.2506 13.1777 91.4511 13.2349ZM100.029 13.3096C100.279 13.4327 100.468 13.6365 100.577 13.9016C100.679 14.1507 100.683 14.6635 100.585 14.914C100.441 15.2822 100.168 15.528 99.8046 15.6178C99.3672 15.7258 98.9764 15.6325 98.6544 15.3432C98.376 15.0931 98.2303 14.6208 98.3038 14.2066C98.4229 13.5354 98.8671 13.1731 99.5426 13.1962C99.7823 13.2044 99.8432 13.2186 100.029 13.3096ZM105.788 13.2301C106.138 13.3196 106.451 13.5828 106.565 13.8844C106.654 14.1177 106.648 14.4729 106.551 14.7108C106.46 14.9356 106.238 15.1551 105.992 15.2646C105.758 15.3684 105.272 15.3957 105.002 15.3202C104.483 15.1755 104.163 14.7318 104.198 14.2071C104.23 13.72 104.537 13.3649 105.041 13.2303C105.233 13.1788 105.587 13.1787 105.788 13.2301Z" fill="#132043"/>
</svg>
