<svg width="115" height="36" viewBox="0 0 115 36" fill="none" xmlns="http://www.w3.org/2000/svg">
<path fill-rule="evenodd" clip-rule="evenodd" d="M12.1163 0.938852C11.5902 0.966389 10.9267 1.02217 10.4695 1.07734C5.27023 1.7047 1.85827 4.25533 0.826771 8.2858C0.589599 9.21245 0.525954 9.79663 0.525954 11.0466C0.525954 12.1587 0.554875 12.4955 0.719305 13.2989C1.18841 15.5907 2.44983 17.3516 4.55031 18.6467C5.0579 18.9596 6.03225 19.4377 6.65835 19.681C7.86642 20.1504 9.01244 20.4853 11.4419 21.0789C13.3207 21.5379 14.0965 21.751 14.7082 21.9761C16.3907 22.5952 17.1352 23.3544 17.1352 24.4509C17.1352 24.9275 17.0101 25.3651 16.7669 25.7396C16.6237 25.9603 16.2621 26.3273 16.0215 26.4965C14.8026 27.353 12.7548 27.4879 11.3557 26.8038C10.1938 26.2357 9.56341 25.2641 9.50472 23.9507L9.49713 23.7809L4.77933 23.7731L0.0615234 23.7653L0.083073 24.2979C0.303776 29.7535 3.6393 33.5043 9.34029 34.7077C12.1716 35.3053 15.5666 35.2415 18.3195 34.5389C20.5883 33.9598 22.3866 33.0033 23.8035 31.6222C24.677 30.7707 25.3008 29.8858 25.7895 28.805C26.5464 27.1309 26.8535 24.9761 26.6213 22.9679C26.2094 19.406 24.1756 17.0075 20.2439 15.447C19.1276 15.0039 17.8036 14.5962 15.9903 14.1371C15.7142 14.0672 15.1073 13.9137 14.6414 13.7959C12.1236 13.1594 11.055 12.7245 10.3873 12.0647C10.1203 11.8008 9.91357 11.441 9.85767 11.1427C9.69221 10.2601 10.0838 9.47902 10.9244 9.01534C11.793 8.53613 13.2155 8.41308 14.3121 8.72222C15.2155 8.97691 15.9298 9.58649 16.242 10.3691C16.347 10.6324 16.4451 11.1147 16.4451 11.3679V11.5714H21.0405H25.6358V11.493C25.6358 11.2737 25.565 10.3045 25.5242 9.96611C25.1614 6.95618 23.7239 4.56559 21.3385 3.00496C19.6336 1.88959 17.5344 1.23012 14.9464 0.996766C14.4559 0.952559 12.586 0.914279 12.1163 0.938852ZM33.8856 18.008V34.3234H38.5123H43.139V18.008V1.69266H38.5123H33.8856V18.008ZM50.7071 12.2274C50.7165 21.9811 50.7213 22.7965 50.7716 23.2252C51.0443 25.5495 51.7066 27.4463 52.8466 29.1679C54.9774 32.3859 58.5584 34.4701 62.8694 35.0014C64.2729 35.1744 66.0769 35.1744 67.4804 35.0014C70.3348 34.6496 72.8554 33.629 74.9492 31.9772C75.3952 31.6253 76.4072 30.6218 76.7703 30.1712C78.2458 28.3403 79.1437 26.267 79.4949 23.8798C79.6383 22.9056 79.6303 23.5398 79.6417 12.2737L79.6524 1.69266H74.9784H70.3043L70.2947 12.0268C70.2857 21.6836 70.2815 22.378 70.2307 22.6232C70.0986 23.2612 69.9764 23.6401 69.7565 24.0931C68.87 25.9189 67.0356 26.8979 64.7673 26.7556C63.8508 26.6981 63.0223 26.4484 62.3339 26.0224C61.9546 25.7877 61.7521 25.6239 61.4262 25.2883C60.6754 24.5155 60.2051 23.4463 60.0792 22.2264C60.0569 22.0099 60.0463 18.6442 60.0463 11.7997V1.69266H55.3716H50.697L50.7071 12.2274ZM86.8657 5.73677V9.78088H91.367H95.8682V22.0522V34.3236L100.456 34.3158L105.043 34.3079L105.051 22.0444L105.059 9.78088H109.56H114.062V5.73677V1.69266H100.464H86.8657V5.73677Z" fill="#978154"/>
</svg>
