<svg width="40" height="39" viewBox="0 0 40 39" fill="none" xmlns="http://www.w3.org/2000/svg">
<rect x="1.18515" y="0.638275" width="37.7234" height="37.7234" rx="18.8617" stroke="#132043" stroke-width="1.27655"/>
<path d="M22.9308 14.043L21.4341 14.0405C19.7526 14.0405 18.666 15.1707 18.666 16.9199V18.2475H17.1611C17.0311 18.2475 16.9258 18.3544 16.9258 18.4862V20.4097C16.9258 20.5415 17.0312 20.6483 17.1611 20.6483H18.666V25.5019C18.666 25.6338 18.7713 25.7405 18.9013 25.7405H20.8647C20.9948 25.7405 21.1001 25.6336 21.1001 25.5019V20.6483H22.8596C22.9896 20.6483 23.0949 20.5415 23.0949 20.4097L23.0957 18.4862C23.0957 18.4229 23.0708 18.3623 23.0267 18.3175C22.9827 18.2727 22.9226 18.2475 22.8602 18.2475H21.1001V17.1221C21.1001 16.5812 21.2272 16.3066 21.9223 16.3066L22.9306 16.3062C23.0605 16.3062 23.1658 16.1993 23.1658 16.0676V14.2815C23.1658 14.15 23.0606 14.0432 22.9308 14.043Z" fill="#132043"/>
</svg>
