<svg width="32" height="33" viewBox="0 0 32 33" fill="none" xmlns="http://www.w3.org/2000/svg">
<path fill-rule="evenodd" clip-rule="evenodd" d="M6.92767 3.67905C6.82464 3.73876 6.69153 3.87445 6.63191 3.98061L6.52344 4.17355V16.7355V29.2975L6.63238 29.4913C6.6923 29.5979 6.82912 29.7345 6.93641 29.7948L7.13151 29.9044L17.8218 29.8909L28.5121 29.8773L28.8589 29.7424C29.8492 29.3571 30.5446 28.6176 30.8845 27.5884C30.9702 27.3287 30.9792 27.0275 30.9935 23.9108C31.0081 20.7429 31.0031 20.5043 30.9179 20.3397C30.8677 20.2427 30.7614 20.1154 30.6815 20.0568C30.5418 19.9543 30.4581 19.9493 28.4441 19.9245L26.3518 19.8988L26.3261 11.9686C26.3006 4.09701 26.2996 4.03745 26.1959 3.89852C26.1383 3.82152 26.0114 3.71567 25.9137 3.66326C25.7428 3.5716 25.3902 3.5681 16.4256 3.56923L7.11495 3.57042L6.92767 3.67905ZM24.795 16.1826L24.8087 27.2541L24.9303 27.6141C24.9971 27.8122 25.096 28.061 25.1499 28.1671L25.2481 28.3599H16.6573H8.0665V16.7355V5.11111H16.4238H24.7812L24.795 16.1826ZM10.3554 21.3087C9.944 21.4109 9.74016 21.695 9.77514 22.1173C9.79525 22.3598 9.82601 22.4281 9.98787 22.59L10.1771 22.7792H13.2872H16.3973L16.5853 22.5912C16.9319 22.2446 16.8691 21.6599 16.4579 21.4041L16.2705 21.2876L13.3901 21.279C11.8059 21.2742 10.4402 21.2876 10.3554 21.3087ZM29.4525 24.2837L29.4379 27.0998L29.3042 27.385C29.1278 27.761 28.9122 27.9992 28.5891 28.175C27.914 28.5425 27.0679 28.3149 26.642 27.6512C26.3357 27.1739 26.3261 27.0669 26.3261 24.1314V21.4676H27.8966H29.467L29.4525 24.2837ZM10.3039 24.54C9.67833 24.6966 9.57078 25.597 10.1363 25.9431C10.3015 26.0442 10.388 26.0455 16.1419 26.0326L21.9798 26.0196L22.1429 25.9032C22.3497 25.7558 22.4936 25.3985 22.4468 25.149C22.4044 24.9229 22.191 24.6644 21.971 24.5724C21.8323 24.5145 20.8113 24.5033 16.1049 24.5082C12.971 24.5115 10.3605 24.5258 10.3039 24.54Z" fill="#988155"/>
<rect x="1.7" y="8.29302" width="18.4215" height="9.45026" rx="1.3" fill="white" stroke="#988155" stroke-width="1.4" stroke-linejoin="round"/>
<path d="M8.23545 12.0608C8.23545 12.3727 8.16374 12.6493 8.02032 12.8906C7.87918 13.1296 7.67772 13.3174 7.41592 13.454C7.15413 13.5883 6.84226 13.6554 6.4803 13.6554H5.28516V15.3491H4.27783V10.5378H6.43932C7.01527 10.5378 7.45804 10.671 7.76764 10.9374C8.07951 11.2014 8.23545 11.5759 8.23545 12.0608ZM7.22129 12.0779C7.22129 11.5725 6.92307 11.3198 6.32664 11.3198H5.28516V12.8803H6.35396C6.63168 12.8803 6.84567 12.812 6.99592 12.6754C7.14616 12.5366 7.22129 12.3374 7.22129 12.0779Z" fill="#988155"/>
<path d="M13.2311 12.9076C13.2311 13.4221 13.131 13.8615 12.9306 14.2257C12.7326 14.5899 12.4571 14.8688 12.1043 15.0623C11.7537 15.2535 11.3485 15.3491 10.8887 15.3491H8.94229V10.5378H10.6838C11.4942 10.5378 12.1214 10.7427 12.5653 11.1525C13.0092 11.56 13.2311 12.145 13.2311 12.9076ZM12.217 12.9076C12.217 12.3909 12.0827 11.997 11.814 11.7262C11.5454 11.453 11.1618 11.3164 10.6633 11.3164H9.94962V14.5706H10.8033C11.0924 14.5706 11.3417 14.5034 11.5511 14.3691C11.7628 14.2325 11.9267 14.0402 12.0428 13.792C12.1589 13.5439 12.217 13.2491 12.217 12.9076Z" fill="#988155"/>
<path d="M15.0033 13.5837V15.3491H13.996V10.5378H17.5439V11.3164H15.0033V12.8052H17.4653V13.5837H15.0033Z" fill="#988155"/>
</svg>
