<svg width="25" height="24" viewBox="0 0 25 24" fill="none" xmlns="http://www.w3.org/2000/svg">
<path d="M19.4023 22H5.40234C4.60669 22 3.84363 21.6839 3.28102 21.1213C2.71841 20.5587 2.40234 19.7956 2.40234 19V3C2.40234 2.73478 2.5077 2.48043 2.69524 2.29289C2.88277 2.10536 3.13713 2 3.40234 2H17.4023C17.6676 2 17.9219 2.10536 18.1095 2.29289C18.297 2.48043 18.4023 2.73478 18.4023 3V15H22.4023V19C22.4023 19.7956 22.0863 20.5587 21.5237 21.1213C20.9611 21.6839 20.198 22 19.4023 22ZM18.4023 17V19C18.4023 19.2652 18.5077 19.5196 18.6952 19.7071C18.8828 19.8946 19.1371 20 19.4023 20C19.6676 20 19.9219 19.8946 20.1095 19.7071C20.297 19.5196 20.4023 19.2652 20.4023 19V17H18.4023ZM16.4023 20V4H4.40234V19C4.40234 19.2652 4.5077 19.5196 4.69524 19.7071C4.88277 19.8946 5.13713 20 5.40234 20H16.4023ZM6.40234 7H14.4023V9H6.40234V7ZM6.40234 11H14.4023V13H6.40234V11ZM6.40234 15H11.4023V17H6.40234V15Z" fill="#132043"/>
</svg>
