<svg width="12" height="12" viewBox="0 0 12 12" fill="none" xmlns="http://www.w3.org/2000/svg">
<path d="M2.50407 2.86091L2.50408 2.8609C2.77029 2.58272 2.83138 2.18599 2.66185 1.84159L2.66185 1.84159C2.58821 1.69199 2.40805 1.51431 2.2737 1.45008L2.50407 2.86091ZM2.50407 2.86091C2.16125 3.21915 1.58885 3.21982 1.24414 2.86077C0.979635 2.58525 0.916726 2.18384 1.08607 1.83785C1.18967 1.62617 1.44861 1.42369 1.67595 1.37469M2.50407 2.86091L1.67595 1.37469M8.356 4.83266L8.356 4.83267C7.79976 4.93729 7.34189 5.23657 7.06463 5.65227L6.96503 5.80159L6.20108 6.94705L6.18554 5.57029L6.17982 5.06362L6.17885 4.97766H5.51182H4.84956V8.20018V11.4227H5.55488H6.2602L6.26025 9.93351C6.26032 8.75743 6.26838 7.91302 6.28498 7.73587C6.28498 7.73586 6.28498 7.73586 6.28498 7.73585L6.70864 7.77556C6.78163 6.99644 7.07174 6.56313 7.61749 6.41813L8.356 4.83266ZM8.356 4.83266C8.43108 4.81854 8.63828 4.80902 8.891 4.81448C9.1398 4.81985 9.3617 4.83811 9.45973 4.85848L9.5384 4.48009L9.45974 4.85849C9.91358 4.95283 10.2152 5.11916 10.432 5.35097L10.4321 5.35098C10.7657 5.70756 10.9713 6.23445 11.0403 7.19598L11.0403 7.19604C11.0512 7.34744 11.0608 8.38908 11.0608 9.65621L11.0609 11.4227M8.356 4.83266L11.0609 11.4227M8.41375 5.97839C8.63029 6.02459 8.83161 6.10141 9.00789 6.23646C9.18547 6.37251 9.30979 6.54628 9.40487 6.74338M8.41375 5.97839L9.22474 9.86646V11.4227H9.65025M8.41375 5.97839C8.27459 5.94869 8.10833 5.94196 7.9613 5.94687C7.81281 5.95182 7.64747 5.96988 7.50822 6.00688L8.41375 5.97839ZM9.40487 6.74338L9.02162 6.92825L9.40487 6.74336C9.40487 6.74337 9.40487 6.74337 9.40487 6.74338ZM9.40487 6.74338C9.45727 6.852 9.50802 6.96483 9.5465 7.11134C9.58406 7.25432 9.60598 7.41366 9.62021 7.61959C9.6481 8.02298 9.65025 8.67617 9.65025 9.86646V11.4227M9.65025 11.4227H10.3556H11.0609M9.65025 11.4227V11.8482M9.65025 11.8482H10.3556H11.0609L11.0609 11.4227M9.65025 11.8482L9.54634 4.44187C10.0647 4.54963 10.4526 4.7501 10.7428 5.06027C11.1726 5.51969 11.3926 6.16129 11.4648 7.1655C11.4771 7.33664 11.4863 8.40025 11.4863 9.65619L11.4864 11.4227H11.0609M9.65025 11.8482L11.0609 11.4227M1.67595 1.37469C1.87589 1.33161 2.0729 1.35415 2.27367 1.45007L1.67595 1.37469ZM1.15837 8.21441C1.15837 7.21549 1.15999 6.30599 1.16259 5.64547C1.16364 5.38085 1.16484 5.15655 1.16616 4.98262C1.36099 4.9815 1.61066 4.98147 1.88133 4.9828L2.58029 4.98624L2.58506 8.20614L2.58982 11.4227H1.87441H1.15837V8.21441Z" fill="#132043" stroke="#132043" stroke-width="0.851034"/>
</svg>
