<svg width="11" height="11" viewBox="0 0 11 11" fill="none" xmlns="http://www.w3.org/2000/svg">
<path d="M8.20883 4.35359H7.63348L7.80197 4.90372C7.86782 5.1187 7.90345 5.34631 7.90345 5.58205C7.90345 6.89131 6.80398 7.97544 5.4194 7.97544C4.03497 7.97544 2.93565 6.89135 2.93565 5.58205C2.93565 5.34601 2.97121 5.11857 3.03707 4.9039L3.20588 4.35359H2.63026H1.77061H1.34509V4.77911V8.7329C1.34509 9.17244 1.70295 9.53053 2.14272 9.53053H8.66072C9.10042 9.53053 9.45835 9.17261 9.45835 8.7329V4.77911V4.35359H9.03283H9.03264H8.20883ZM1.93187 1.24632H8.88916C9.32698 1.24632 9.66494 1.55691 9.66494 2.02209V8.9795C9.66494 9.44469 9.32698 9.75528 8.88916 9.75528H1.93187C1.49385 9.75528 1.15599 9.44469 1.15599 8.9795V2.02209C1.15599 1.55691 1.49385 1.24632 1.93187 1.24632ZM7.54888 1.43522C7.08189 1.43522 6.70214 1.81543 6.70214 2.28215V3.29075C6.70214 3.43027 6.73609 3.56207 6.79618 3.67831C6.41033 3.39828 5.93269 3.23351 5.41931 3.23351C4.15895 3.23351 3.11399 4.22689 3.11399 5.48047C3.11399 6.73405 4.15895 7.72744 5.41931 7.72744C6.67972 7.72744 7.72482 6.7341 7.72482 5.48047C7.72482 4.94242 7.53232 4.45231 7.2129 4.06811C7.31594 4.11286 7.42956 4.13769 7.54888 4.13769H8.6068C9.07361 4.13769 9.45374 3.75757 9.45374 3.29075V2.28215C9.45374 1.81518 9.07354 1.43522 8.6068 1.43522H7.54888Z" fill="#132043" stroke="#132043" stroke-width="0.851034"/>
</svg>
