<svg width="14" height="15" viewBox="0 0 14 15" fill="none" xmlns="http://www.w3.org/2000/svg">
<path d="M0.181531 4.5786L6.3462 0.882604C6.44981 0.820437 6.56837 0.787598 6.6892 0.787598C6.81003 0.787598 6.92859 0.820437 7.0322 0.882604L13.1909 4.57927C13.2403 4.60888 13.2812 4.65079 13.3096 4.70091C13.338 4.75104 13.3529 4.80766 13.3529 4.86527V13.3426C13.3529 13.5194 13.2826 13.689 13.1576 13.814C13.0326 13.939 12.863 14.0093 12.6862 14.0093H0.686198C0.509387 14.0093 0.339818 13.939 0.214793 13.814C0.0897691 13.689 0.0195313 13.5194 0.0195313 13.3426V4.8646C0.0195192 4.807 0.0344364 4.75037 0.0628282 4.70025C0.09122 4.65012 0.132117 4.60821 0.181531 4.5786ZM1.35286 5.43127V12.6759H12.0195V5.4306L6.68886 2.2306L1.35286 5.4306V5.43127ZM6.7262 9.14127L10.2569 6.16594L11.1155 7.18594L6.73553 10.8773L2.2622 7.1906L3.1102 6.16127L6.7262 9.14127Z" fill="#03053D"/>
</svg>
