<svg width="13" height="13" viewBox="0 0 13 13" fill="none" xmlns="http://www.w3.org/2000/svg">
<path d="M0.431641 1.16493C0.431641 0.799596 0.728307 0.50293 1.09364 0.50293H11.7696C12.135 0.50293 12.4316 0.799596 12.4316 1.16493V11.8409C12.4315 12.0164 12.3617 12.1847 12.2376 12.3088C12.1134 12.433 11.9452 12.5028 11.7696 12.5029H1.09364C0.918122 12.5028 0.749842 12.433 0.625731 12.3088C0.50162 12.1847 0.431817 12.0164 0.431641 11.8409V1.16493ZM1.76497 1.83626V11.1696H11.0983V1.83626H1.76497ZM5.51297 4.11293L8.76564 6.28093C8.80222 6.30527 8.83221 6.33828 8.85296 6.37701C8.87371 6.41574 8.88457 6.45899 8.88457 6.50293C8.88457 6.54687 8.87371 6.59012 8.85296 6.62885C8.83221 6.66758 8.80222 6.70059 8.76564 6.72493L5.51231 8.89293C5.47219 8.91952 5.42563 8.93476 5.37756 8.93703C5.32948 8.9393 5.28169 8.92852 5.23925 8.90583C5.1968 8.88314 5.16129 8.84938 5.13648 8.80815C5.11167 8.76691 5.09848 8.71972 5.09831 8.6716V4.33426C5.0984 4.28603 5.11157 4.23872 5.13641 4.19738C5.16126 4.15604 5.19685 4.12222 5.2394 4.0995C5.28196 4.07679 5.32987 4.06605 5.37805 4.06841C5.42622 4.07077 5.47285 4.08616 5.51297 4.11293Z" fill="#132043" fill-opacity="0.5"/>
</svg>
