<svg width="21" height="20" viewBox="0 0 21 20" fill="none" xmlns="http://www.w3.org/2000/svg">
<path d="M10.8223 20C5.29927 20 0.822266 15.523 0.822266 10C0.822266 4.477 5.29927 0 10.8223 0C16.3453 0 20.8223 4.477 20.8223 10C20.8223 15.523 16.3453 20 10.8223 20ZM10.8223 18C12.944 18 14.9788 17.1571 16.4791 15.6569C17.9794 14.1566 18.8223 12.1217 18.8223 10C18.8223 7.87827 17.9794 5.84344 16.4791 4.34315C14.9788 2.84285 12.944 2 10.8223 2C8.70053 2 6.6657 2.84285 5.16541 4.34315C3.66512 5.84344 2.82227 7.87827 2.82227 10C2.82227 12.1217 3.66512 14.1566 5.16541 15.6569C6.6657 17.1571 8.70053 18 10.8223 18ZM9.82227 5H11.8223V7H9.82227V5ZM9.82227 9H11.8223V15H9.82227V9Z" fill="#132043"/>
</svg>
