<svg width="50" height="38" viewBox="0 0 50 38" fill="none" xmlns="http://www.w3.org/2000/svg">
<path d="M0.533203 32.9126L9.26218 20.5603C6.95642 20.1211 4.98004 19.078 3.33307 17.431C1.79589 15.784 1.0273 13.6979 1.0273 11.1725C1.0273 8.20793 2.01548 5.73747 3.99186 3.76109C6.07803 1.67492 8.54849 0.631836 11.4033 0.631836C14.3678 0.631836 16.8383 1.67492 18.8147 3.76109C20.9008 5.73747 21.9439 8.20793 21.9439 11.1725C21.9439 12.9293 21.5596 14.6312 20.791 16.2781C20.1322 17.9251 19.0343 19.9015 17.4971 22.2072L7.12111 37.1947L0.533203 32.9126ZM28.3671 32.9126L37.0961 20.5603C34.7903 20.1211 32.814 19.078 31.167 17.431C29.6298 15.784 28.8612 13.6979 28.8612 11.1725C28.8612 8.20793 29.8494 5.73747 31.8258 3.76109C33.9119 1.67492 36.3824 0.631836 39.2372 0.631836C42.2017 0.631836 44.6722 1.67492 46.6486 3.76109C48.7347 5.73747 49.7778 8.20793 49.7778 11.1725C49.7778 12.9293 49.3935 14.6312 48.625 16.2781C47.9662 17.9251 46.8682 19.9015 45.331 22.2072L34.955 37.1947L28.3671 32.9126Z" fill="#132043"/>
</svg>
