<svg id="Layer_1" data-name="Layer 1" xmlns="http://www.w3.org/2000/svg" viewBox="0 0 793.65 400.96"><defs><style>.cls-1{fill:#978154}.cls-2{fill:#fff}</style></defs><path class="cls-1" d="M24.21 249.35H86.1c0 15.56 12 23.13 25.69 23.13 12.56 0 24.56-6.68 24.56-18.58 0-13.66-16.95-17.62-37.68-22.65C67.19 223.43 27 213.78 27 164.2c0-42.88 31.51-67.45 82.86-67.45 52.21 0 82.16 26.8 82.16 71.11h-60.16c0-13.77-10.27-20.23-22.71-20.23-10.69 0-21 4.63-21 14.79 0 12.37 16.41 16.46 36.92 21.62 32 8.27 74 19 74 68.71 0 47.56-36.55 72.25-87.12 72.25-53.29 0-87.74-28.18-87.74-75.65ZM261.6 101.89h60.79v217.78H261.6ZM393.39 235.43V101.89h61.31v132.42c0 21.28 13.72 35 33.76 35s33.75-13.76 33.75-35V101.89h61.31v133.54c0 53.58-39.55 89.75-95.06 89.75s-95.07-36.18-95.07-89.75ZM817.86 155.91H758.7v163.76h-60.26V155.91h-59.16v-54h178.58Z" transform="translate(-24.21 -96.75)"/><path class="cls-2" d="m25.88 409.64 3.3-7.3A24.67 24.67 0 0 0 43 406.71c5.75 0 8.09-1.92 8.09-4.49 0-7.85-24.37-2.46-24.37-18 0-7.13 5.75-13.05 17.66-13.05 5.27 0 10.66 1.25 14.55 3.71l-3 7.36a23.74 23.74 0 0 0-11.62-3.29c-5.75 0-8 2.15-8 4.79 0 7.72 24.37 2.39 24.37 17.78 0 7-5.81 13-17.78 13-6.6-.03-13.3-2.01-17.02-4.88ZM95.51 395.39v18.38h-8.74v-4c-1.74 2.93-5.09 4.49-9.82 4.49-7.54 0-12-4.19-12-9.76s4-9.64 13.83-9.64h7.42c0-4-2.39-6.34-7.42-6.34a15.48 15.48 0 0 0-9.28 3L66.12 385c3.53-2.52 8.74-3.9 13.89-3.9 9.81-.02 15.5 4.53 15.5 14.29Zm-9.34 8.2v-3.29h-6.4c-4.37 0-5.75 1.62-5.75 3.77 0 2.34 2 3.89 5.27 3.89 3.11.04 5.8-1.43 6.88-4.37ZM158.67 395.33v18.44h-9.33v-17c0-5.21-2.34-7.6-6.11-7.6-4.19 0-7.12 2.69-7.12 8.44v16.16h-9.34v-17c0-5.21-2.22-7.6-6.11-7.6-4.13 0-7.07 2.69-7.07 8.44v16.16h-9.33v-32.21h8.92v3.71a13 13 0 0 1 10.11-4.19c4.49 0 8.33 1.74 10.6 5.27a14.49 14.49 0 0 1 11.61-5.27c7.67 0 13.17 4.43 13.17 14.25ZM195.86 395.39v18.38h-8.74v-4c-1.74 2.93-5.09 4.49-9.82 4.49-7.55 0-12-4.19-12-9.76s4-9.64 13.83-9.64h7.42c0-4-2.4-6.34-7.42-6.34a15.43 15.43 0 0 0-9.28 3l-3.39-6.52c3.54-2.52 8.74-3.9 13.89-3.9 9.82-.02 15.51 4.53 15.51 14.29Zm-9.34 8.2v-3.29h-6.41c-4.37 0-5.74 1.62-5.74 3.77 0 2.34 2 3.89 5.26 3.89 3.12.04 5.81-1.43 6.89-4.37ZM224.6 381.08v8.62c-.78-.06-1.38-.11-2.1-.11-5.15 0-8.56 2.81-8.56 9v15.21h-9.34v-32.24h8.92v4.25c2.28-3.11 6.11-4.73 11.08-4.73ZM244.3 401.14l-4.49 4.43v8.2h-9.34v-44.42h9.34v25.14l13.65-12.93h11.13l-13.41 13.65 14.61 18.56h-11.32ZM298.18 395.39v18.38h-8.74v-4c-1.74 2.93-5.09 4.49-9.82 4.49-7.54 0-12-4.19-12-9.76s4-9.64 13.83-9.64h7.42c0-4-2.39-6.34-7.42-6.34a15.45 15.45 0 0 0-9.28 3l-3.38-6.52c3.53-2.52 8.74-3.9 13.89-3.9 9.81-.02 15.5 4.53 15.5 14.29Zm-9.34 8.2v-3.29h-6.4c-4.37 0-5.75 1.62-5.75 3.77 0 2.34 2 3.89 5.27 3.89 3.11.04 5.8-1.43 6.88-4.37ZM339.85 395.33v18.44h-9.34v-17c0-5.21-2.39-7.6-6.52-7.6-4.49 0-7.73 2.75-7.73 8.68v15.92h-9.34v-32.21h8.92v3.77a14.13 14.13 0 0 1 10.66-4.25c7.6 0 13.35 4.43 13.35 14.25ZM381.76 369.35v44.42h-8.92v-3.71c-2.34 2.81-5.75 4.19-10.06 4.19-9.1 0-16.1-6.47-16.1-16.58s7-16.59 16.1-16.59c4 0 7.31 1.26 9.64 3.9v-15.63Zm-9.16 28.32c0-5.57-3.59-8.92-8.2-8.92s-8.26 3.35-8.26 8.92 3.59 8.92 8.26 8.92 8.2-3.36 8.2-8.92ZM409.78 371.87h9.7v41.9h-9.7ZM462 395.33v18.44h-9.34v-17c0-5.21-2.4-7.6-6.53-7.6-4.49 0-7.72 2.75-7.72 8.68v15.92h-9.34v-32.21H438v3.77a14.13 14.13 0 0 1 10.66-4.25c7.58 0 13.34 4.43 13.34 14.25ZM491.51 412.21a13.34 13.34 0 0 1-7.61 2c-7.6 0-12-3.89-12-11.55v-13.2h-5v-7.18h5v-7.84h9.34v7.84h8v7.18h-8v13.11c0 2.76 1.5 4.26 4 4.26a6.28 6.28 0 0 0 3.77-1.2ZM527.43 400.3h-24.37c.9 4 4.31 6.47 9.22 6.47a10.9 10.9 0 0 0 8.08-3.12l5 5.39c-3 3.41-7.48 5.21-13.29 5.21-11.13 0-18.38-7-18.38-16.58s7.37-16.59 17.19-16.59c9.45 0 16.76 6.35 16.76 16.71-.03.72-.15 1.73-.21 2.51Zm-24.49-5.45h15.87a8 8 0 0 0-15.87 0ZM554.13 381.08v8.62c-.78-.06-1.37-.11-2.09-.11-5.15 0-8.57 2.81-8.57 9v15.21h-9.33v-32.24h8.92v4.25c2.27-3.11 6.1-4.73 11.07-4.73ZM592.93 395.33v18.44h-9.34v-17c0-5.21-2.4-7.6-6.53-7.6-4.48 0-7.72 2.75-7.72 8.68v15.92H560v-32.21h8.92v3.77a14.13 14.13 0 0 1 10.66-4.25c7.6 0 13.35 4.43 13.35 14.25ZM630.17 395.39v18.38h-8.74v-4c-1.74 2.93-5.09 4.49-9.82 4.49-7.54 0-12-4.19-12-9.76s4-9.64 13.83-9.64h7.42c0-4-2.4-6.34-7.42-6.34a15.43 15.43 0 0 0-9.28 3l-3.38-6.52c3.53-2.52 8.74-3.9 13.88-3.9 9.82-.02 15.51 4.53 15.51 14.29Zm-9.34 8.2v-3.29h-6.41c-4.37 0-5.74 1.62-5.74 3.77 0 2.34 2 3.89 5.27 3.89 3.11.04 5.8-1.43 6.88-4.37ZM659.69 412.21a13.34 13.34 0 0 1-7.61 2c-7.6 0-12-3.89-12-11.55v-13.2h-5v-7.18h5v-7.84h9.34v7.84h8v7.18h-8v13.11c0 2.76 1.5 4.26 4 4.26a6.28 6.28 0 0 0 3.77-1.2ZM664.12 371.87c0-2.94 2.34-5.21 5.81-5.21s5.8 2.15 5.8 5c0 3.11-2.33 5.38-5.8 5.38s-5.81-2.24-5.81-5.17Zm1.14 9.69h9.34v32.21h-9.34ZM681.18 397.67c0-9.7 7.49-16.59 17.73-16.59s17.65 6.89 17.65 16.59-7.42 16.58-17.65 16.58-17.73-6.89-17.73-16.58Zm25.92 0c0-5.57-3.53-8.92-8.19-8.92s-8.27 3.35-8.27 8.92 3.59 8.92 8.27 8.92 8.19-3.36 8.19-8.92ZM756 395.33v18.44h-9.34v-17c0-5.21-2.39-7.6-6.52-7.6-4.49 0-7.73 2.75-7.73 8.68v15.92h-9.31v-32.21h8.9v3.77a14.13 14.13 0 0 1 10.66-4.25c7.61 0 13.34 4.43 13.34 14.25ZM793.26 395.39v18.38h-8.74v-4c-1.74 2.93-5.09 4.49-9.82 4.49-7.54 0-12-4.19-12-9.76s4-9.64 13.83-9.64h7.42c0-4-2.39-6.34-7.42-6.34a15.48 15.48 0 0 0-9.28 3l-3.38-6.52c3.53-2.52 8.74-3.9 13.88-3.9 9.82-.02 15.51 4.53 15.51 14.29Zm-9.34 8.2v-3.29h-6.4c-4.37 0-5.75 1.62-5.75 3.77 0 2.34 2 3.89 5.27 3.89 3.11.04 5.81-1.43 6.88-4.37ZM802 369.35h9.33v44.42H802ZM28.82 467.18v-23.47h9.7v23.11c0 8 3.47 11.25 9.34 11.25s9.33-3.29 9.33-11.25v-23.11h9.58v23.47c0 12.33-7.06 19.15-19 19.15s-18.95-6.82-18.95-19.15ZM108.92 467.18v18.44h-9.34v-17c0-5.2-2.39-7.6-6.52-7.6-4.49 0-7.72 2.76-7.72 8.68v15.93H76v-32.22h8.92v3.77a14.09 14.09 0 0 1 10.65-4.25c7.61 0 13.35 4.43 13.35 14.25ZM116.53 443.71c0-2.93 2.34-5.21 5.81-5.21s5.8 2.16 5.8 5c0 3.12-2.33 5.39-5.8 5.39s-5.81-2.24-5.81-5.18Zm1.14 9.7H127v32.21h-9.34ZM168 453.41l-13.59 32.21h-9.64l-13.57-32.21h9.64l8.92 21.91 9.24-21.91ZM202.56 472.15H178.2c.9 4 4.31 6.46 9.22 6.46a10.94 10.94 0 0 0 8.08-3.11l5 5.39c-3 3.41-7.49 5.2-13.29 5.2-11.14 0-18.38-7-18.38-16.58s7.36-16.58 17.18-16.58c9.46 0 16.76 6.35 16.76 16.7-.03.72-.15 1.74-.21 2.52Zm-24.48-5.45h15.86a8 8 0 0 0-15.86 0ZM229.27 452.93v8.62c-.78-.06-1.38-.12-2.1-.12-5.15 0-8.56 2.81-8.56 9v15.21h-9.34v-32.23h8.92v4.25c2.28-3.11 6.11-4.73 11.08-4.73ZM232.14 482.62l3.12-6.7a22.07 22.07 0 0 0 11.19 3.08c4.31 0 5.93-1.14 5.93-2.93 0-5.27-19.46.12-19.46-12.75 0-6.11 5.51-10.42 14.91-10.42 4.43 0 9.34 1 12.39 2.81l-3.11 6.65a18.49 18.49 0 0 0-9.28-2.4c-4.19 0-6 1.32-6 3 0 5.51 19.46.18 19.46 12.87 0 6-5.57 10.23-15.21 10.23-5.43.03-10.94-1.46-13.94-3.44ZM266.21 443.71c0-2.93 2.34-5.21 5.81-5.21s5.81 2.16 5.81 5c0 3.12-2.34 5.39-5.81 5.39s-5.81-2.24-5.81-5.18Zm1.14 9.7h9.34v32.21h-9.34ZM306.44 484.06a13.31 13.31 0 0 1-7.6 2c-7.6 0-12-3.88-12-11.55v-13.2h-5v-7.18h5v-7.84h9.34v7.84h8v7.18h-8v13.11c0 2.76 1.49 4.25 4 4.25a6.36 6.36 0 0 0 3.77-1.19ZM343.38 453.41l-14.54 34.18c-3.12 7.79-7.55 10.12-13.35 10.12-3.3 0-6.89-1.08-9-2.93l3.41-6.65a8.27 8.27 0 0 0 5.27 2c2.57 0 4-1.14 5.27-4l.11-.3-13.94-32.45h9.63l9 21.85 9.1-21.85ZM363.56 469.51c0-9.7 7.49-16.58 17.72-16.58s17.66 6.88 17.66 16.58-7.42 16.58-17.66 16.58-17.72-6.88-17.72-16.58Zm25.92 0c0-5.56-3.53-8.92-8.2-8.92S373 464 373 469.51s3.59 8.92 8.26 8.92 8.22-3.35 8.22-8.92ZM415.71 454.13H424v7.18h-8v24.31h-9.34v-24.31h-5v-7.18h5v-1.44c0-7.24 4.43-12 12.45-12a13.23 13.23 0 0 1 7.13 1.74l-2.46 6.76a6.5 6.5 0 0 0-3.77-1.14c-2.75 0-4.25 1.5-4.25 4.67ZM456.72 451.61h-13.41v-7.9h36.52v7.9h-13.41v34h-9.7ZM512.76 472.15H488.4c.9 4 4.31 6.46 9.22 6.46a10.94 10.94 0 0 0 8.08-3.11l5 5.39c-3 3.41-7.49 5.2-13.29 5.2-11.14 0-18.38-7-18.38-16.58s7.36-16.58 17.18-16.58c9.46 0 16.76 6.35 16.76 16.7-.03.72-.15 1.74-.21 2.52Zm-24.48-5.45h15.86a8 8 0 0 0-15.86 0ZM517.08 469.51c0-9.7 7.48-16.58 18-16.58 6.76 0 12.09 2.93 14.42 8.2l-7.28 3.87a8 8 0 0 0-7.24-4.43c-4.73 0-8.44 3.3-8.44 8.92s3.71 8.92 8.44 8.92a7.91 7.91 0 0 0 7.24-4.43l7.24 3.95c-2.33 5.15-7.66 8.14-14.42 8.14-10.48.02-17.96-6.86-17.96-16.56ZM587.84 467.18v18.44h-9.34v-17c0-5.2-2.39-7.6-6.52-7.6-4.49 0-7.72 2.76-7.72 8.68v15.93h-9.34V441.2h9.34v15.56a14.15 14.15 0 0 1 10.23-3.83c7.6 0 13.35 4.43 13.35 14.25ZM629.51 467.18v18.44h-9.34v-17c0-5.2-2.39-7.6-6.52-7.6-4.49 0-7.72 2.76-7.72 8.68v15.93h-9.34v-32.22h8.92v3.77a14.09 14.09 0 0 1 10.65-4.25c7.6 0 13.35 4.43 13.35 14.25ZM636.22 469.51c0-9.7 7.49-16.58 17.72-16.58s17.66 6.88 17.66 16.58-7.42 16.58-17.66 16.58-17.72-6.88-17.72-16.58Zm25.92 0c0-5.56-3.53-8.92-8.2-8.92s-8.26 3.36-8.26 8.92 3.59 8.92 8.26 8.92 8.2-3.35 8.2-8.92ZM678.13 441.2h9.34v44.42h-9.34ZM694.06 469.51c0-9.7 7.48-16.58 17.72-16.58s17.66 6.88 17.66 16.58-7.42 16.58-17.66 16.58-17.72-6.88-17.72-16.58Zm25.92 0c0-5.56-3.53-8.92-8.2-8.92s-8.26 3.36-8.26 8.92 3.59 8.92 8.26 8.92 8.22-3.35 8.22-8.92ZM770.39 453.41v26.82c0 12-6.46 17.48-18.08 17.48-6.1 0-12-1.5-15.8-4.43l3.71-6.7a19.27 19.27 0 0 0 11.38 3.65c6.58 0 9.45-3 9.45-8.8v-1.38c-2.45 2.69-6 4-10.17 4-8.92 0-16.11-6.17-16.11-15.56s7.19-15.57 16.11-15.57c4.49 0 8.2 1.5 10.65 4.61v-4.13Zm-9.22 15.09c0-4.73-3.53-7.91-8.44-7.91s-8.5 3.18-8.5 7.91 3.59 7.9 8.5 7.9 8.44-3.18 8.44-7.9ZM812.54 453.41 798 487.59c-3.12 7.79-7.55 10.12-13.35 10.12-3.3 0-6.89-1.08-9-2.93l3.41-6.65a8.25 8.25 0 0 0 5.27 2c2.57 0 4-1.14 5.27-4l.11-.3-13.94-32.45h9.64l9 21.85 9.1-21.85Z" transform="translate(-24.21 -96.75)"/></svg>