<svg id="Layer_1" data-name="Layer 1" xmlns="http://www.w3.org/2000/svg" viewBox="0 0 606.9 606.9"><defs><style>.cls-1{fill:#fff;}.cls-2{fill:#978154;}</style></defs><rect class="cls-1" width="606.9" height="606.9"/><path class="cls-2" d="M35.28,330.18h43.1c0,10.83,8.35,16.1,17.88,16.1,8.75,0,17.1-4.65,17.1-12.94,0-9.51-11.8-12.27-26.23-15.77-21.92-5.44-49.9-12.16-49.9-46.68,0-29.86,21.94-47,57.7-47,36.35,0,57.2,18.67,57.2,49.52h-41.9c0-9.59-7.15-14.09-15.8-14.09-7.45,0-14.6,3.22-14.6,10.3,0,8.61,11.43,11.46,25.71,15.05,22.32,5.76,51.5,13.21,51.5,47.84,0,33.12-25.45,50.31-60.66,50.31C59.27,382.85,35.28,363.23,35.28,330.18Z"/><path class="cls-2" d="M195.52,227.51h42.33V379.14H195.52Z"/><path class="cls-2" d="M281.11,320.48v-93h42.7V319.7c0,14.82,9.55,24.4,23.5,24.4s23.5-9.58,23.5-24.4V227.51H413.5v93C413.5,357.79,386,383,347.31,383S281.11,357.79,281.11,320.48Z"/><path class="cls-2" d="M571.62,265.12H530.43v114h-42v-114H447.28V227.51H571.62Z"/></svg>