<svg width="106" height="48" viewBox="0 0 106 48" fill="none" xmlns="http://www.w3.org/2000/svg">
<path d="M33.7188 31.6875V36.4375H0.84375V33.0312L21.2188 1.5H25.9375L20.875 10.625L7.40625 31.6875H33.7188ZM27.375 1.5V47H21.5938V1.5H27.375ZM67.5312 20.625V27.5625C67.5312 31.2917 67.1979 34.4375 66.5312 37C65.8646 39.5625 64.9062 41.625 63.6562 43.1875C62.4062 44.75 60.8958 45.8854 59.125 46.5938C57.375 47.2812 55.3958 47.625 53.1875 47.625C51.4375 47.625 49.8229 47.4062 48.3438 46.9688C46.8646 46.5312 45.5312 45.8333 44.3438 44.875C43.1771 43.8958 42.1771 42.625 41.3438 41.0625C40.5104 39.5 39.875 37.6042 39.4375 35.375C39 33.1458 38.7812 30.5417 38.7812 27.5625V20.625C38.7812 16.8958 39.1146 13.7708 39.7812 11.25C40.4688 8.72917 41.4375 6.70833 42.6875 5.1875C43.9375 3.64583 45.4375 2.54167 47.1875 1.875C48.9583 1.20833 50.9375 0.875 53.125 0.875C54.8958 0.875 56.5208 1.09375 58 1.53125C59.5 1.94792 60.8333 2.625 62 3.5625C63.1667 4.47917 64.1562 5.70833 64.9688 7.25C65.8021 8.77083 66.4375 10.6354 66.875 12.8438C67.3125 15.0521 67.5312 17.6458 67.5312 20.625ZM61.7188 28.5V19.6562C61.7188 17.6146 61.5938 15.8229 61.3438 14.2812C61.1146 12.7188 60.7708 11.3854 60.3125 10.2812C59.8542 9.17708 59.2708 8.28125 58.5625 7.59375C57.875 6.90625 57.0729 6.40625 56.1562 6.09375C55.2604 5.76042 54.25 5.59375 53.125 5.59375C51.75 5.59375 50.5312 5.85417 49.4688 6.375C48.4062 6.875 47.5104 7.67708 46.7812 8.78125C46.0729 9.88542 45.5312 11.3333 45.1562 13.125C44.7812 14.9167 44.5938 17.0938 44.5938 19.6562V28.5C44.5938 30.5417 44.7083 32.3438 44.9375 33.9062C45.1875 35.4688 45.5521 36.8229 46.0312 37.9688C46.5104 39.0938 47.0938 40.0208 47.7812 40.75C48.4688 41.4792 49.2604 42.0208 50.1562 42.375C51.0729 42.7083 52.0833 42.875 53.1875 42.875C54.6042 42.875 55.8438 42.6042 56.9062 42.0625C57.9688 41.5208 58.8542 40.6771 59.5625 39.5312C60.2917 38.3646 60.8333 36.875 61.1875 35.0625C61.5417 33.2292 61.7188 31.0417 61.7188 28.5ZM105.719 31.6875V36.4375H72.8438V33.0312L93.2188 1.5H97.9375L92.875 10.625L79.4062 31.6875H105.719ZM99.375 1.5V47H93.5938V1.5H99.375Z" fill="#132043"/>
</svg>
